<svg width="804" height="534" viewBox="0 0 804 534" fill="none" xmlns="http://www.w3.org/2000/svg">
<g clip-path="url(#clip0_43_604)">
<path d="M407.3 150.086C400.131 138.227 391.636 125.564 378.333 121.692C362.926 117.207 347.1 126.116 333.676 134.907C293.529 161.198 254.867 189.69 217.867 220.253L217.908 220.713C246.714 218.726 275.52 216.74 304.326 214.753C325.138 213.317 346.665 211.683 365.058 201.836C372.037 198.099 378.84 193.107 386.749 192.759C396.575 192.327 405.142 199.191 411.875 206.362C451.702 248.782 463.227 313.653 507.908 350.922C479.733 281.421 446.092 214.266 407.3 150.086Z" fill="#F2F2F2"/>
<path d="M652.109 509.885C647.705 504.322 645.905 503.02 641.561 497.406C606.188 451.645 572.94 404.338 541.817 355.486C520.677 322.307 500.585 288.492 481.542 254.039C472.476 237.659 463.658 221.152 455.089 204.515C448.44 191.616 441.939 178.639 435.586 165.585C433.77 161.857 432.004 158.111 430.248 154.357C426.109 145.529 422.047 136.658 417.685 127.95C412.716 118.025 406.666 107.619 397.539 100.951C393.386 97.7918 388.42 95.8802 383.22 95.4398C375.791 94.9599 368.936 98.0283 362.492 101.38C315.345 125.97 271.206 156.8 231.283 191.881C191.257 227.042 155.481 266.764 124.683 310.239C123.741 311.585 121.513 310.299 122.464 308.945C126.209 303.648 130.028 298.408 133.921 293.226C182.33 228.828 241.687 173.449 309.278 129.621C320.65 122.25 332.235 115.225 344.034 108.545C349.981 105.177 355.954 101.851 362.029 98.7311C367.985 95.6712 374.309 92.9199 381.113 92.8171C404.266 92.4571 416.255 118.685 424.489 136.332C427.077 141.886 429.696 147.423 432.347 152.943C442.364 173.899 452.767 194.664 463.555 215.238C470.214 227.94 477.018 240.568 483.967 253.122C505.595 292.214 528.583 330.515 552.931 368.025C585.185 417.712 617.182 461.604 653.926 508.068C654.937 509.354 653.129 511.188 652.109 509.885Z" fill="#E4E4E4"/>
<path d="M228.994 178.931C227.649 177.431 226.312 175.931 224.958 174.431C214.281 162.62 202.825 150.946 188.163 144.175C181.172 140.844 173.54 139.075 165.798 138.989C157.794 139.015 149.971 141.115 142.576 144.055C139.08 145.452 135.66 147.038 132.293 148.726C128.445 150.663 124.666 152.729 120.905 154.812C113.843 158.72 106.874 162.8 99.9962 167.051C86.3112 175.511 73.0548 184.616 60.227 194.367C53.5772 199.424 47.0646 204.647 40.6893 210.035C34.7596 215.04 28.9498 220.18 23.2599 225.454C22.0432 226.577 20.2264 224.76 21.4432 223.637C22.9428 222.24 24.4595 220.852 25.9763 219.48C30.2608 215.606 34.6139 211.806 39.0357 208.081C47.0989 201.275 55.3709 194.733 63.8517 188.453C77.0396 178.682 90.6815 169.574 104.777 161.128C111.821 156.912 118.962 152.872 126.2 149.009C128.385 147.843 130.596 146.703 132.833 145.623C137.907 143.063 143.18 140.916 148.6 139.204C156.277 136.72 164.399 135.921 172.413 136.864C180.151 137.99 187.605 140.569 194.384 144.466C208.78 152.515 219.945 164.96 230.811 177.105C231.908 178.339 230.1 180.165 228.994 178.931Z" fill="#E4E4E4"/>
<path d="M523.962 301.323L558.458 288.703L575.586 282.437C581.164 280.396 586.729 278.073 592.495 276.612C597.506 275.18 602.827 275.248 607.8 276.807C612.235 278.449 616.295 280.966 619.738 284.209C623.255 287.449 626.528 290.945 629.529 294.668C633.258 299.15 636.932 303.68 640.622 308.194C655.853 326.825 670.984 345.537 686.016 364.33C701.047 383.123 715.978 401.995 730.809 420.947C745.675 439.946 760.44 459.024 775.102 478.182C776.898 480.528 778.693 482.877 780.486 485.226C781.476 486.524 783.71 485.244 782.705 483.928C767.935 464.578 753.062 445.307 738.086 426.115C723.073 406.877 707.956 387.721 692.735 368.647C677.515 349.573 662.192 330.582 646.766 311.673C642.923 306.962 639.074 302.257 635.218 297.556C631.965 293.592 628.75 289.584 625.182 285.894C618.634 279.12 610.453 273.133 600.66 272.971C594.902 272.875 589.33 274.703 583.98 276.639C578.213 278.725 572.46 280.851 566.7 282.958L531.963 295.667L523.279 298.844C521.737 299.408 522.403 301.893 523.962 301.323Z" fill="#E4E4E4"/>
<path d="M183.623 159.037C166.093 150.025 143.643 151.79 127.534 163.049C158.261 168.351 188.652 175.446 218.55 184.296C206.135 177.019 196.423 165.616 183.623 159.037Z" fill="#F2F2F2"/>
<path d="M127.362 163.018L123.987 165.761C125.128 164.801 126.315 163.901 127.534 163.049C127.477 163.039 127.419 163.028 127.362 163.018Z" fill="#F2F2F2"/>
<path d="M618.439 301.449C615.043 297.315 611.371 292.986 606.292 291.307L601.55 291.494C637.648 355.294 686.4 411.043 744.815 455.318C702.69 404.028 660.564 352.739 618.439 301.449Z" fill="#F2F2F2"/>
<path d="M323.56 267.343C325.755 275.317 330.698 282.258 337.517 286.938C340.153 288.733 343.272 290.456 344.174 293.515C344.648 295.466 344.356 297.524 343.357 299.265C342.36 300.984 341.147 302.568 339.748 303.979L339.62 304.457C333.078 300.58 326.855 295.675 323.241 288.983C319.628 282.29 319.123 273.519 323.56 267.343Z" fill="#F2F2F2"/>
<path d="M541.355 457.139C543.549 465.114 548.493 472.055 555.312 476.735C557.948 478.53 561.067 480.252 561.968 483.312C562.443 485.262 562.15 487.321 561.152 489.062C560.155 490.781 558.942 492.365 557.542 493.775L557.415 494.254C550.873 490.376 544.649 485.472 541.036 478.779C537.422 472.087 536.918 463.316 541.355 457.139Z" fill="#F2F2F2"/>
<path d="M106.7 444.05C108.895 452.025 113.839 458.966 120.657 463.645C123.293 465.441 126.412 467.163 127.314 470.223C127.788 472.173 127.496 474.231 126.497 475.972C125.5 477.691 124.287 479.275 122.888 480.686L122.76 481.165C116.218 477.287 109.995 472.382 106.381 465.69C102.768 458.998 102.263 450.227 106.7 444.05Z" fill="#F2F2F2"/>
<path d="M606.879 95.3658C633.208 95.3658 654.551 74.0175 654.551 47.6829C654.551 21.3484 633.208 0 606.879 0C580.551 0 559.208 21.3484 559.208 47.6829C559.208 74.0175 580.551 95.3658 606.879 95.3658Z" fill="#6C63FF"/>
<path d="M692.909 11.0983C669.805 7.97468 643.428 20.4654 637.44 43.0024C635.931 38.9953 633.187 35.5718 629.605 33.2265C626.024 30.8812 621.789 29.7355 617.514 29.9549C613.239 30.1744 609.144 31.7476 605.821 34.4473C602.498 37.147 600.119 40.8334 599.028 44.974L601.673 46.8688C651.184 57.5781 702.435 57.3463 751.848 46.1897C735.777 29.296 716.012 14.2219 692.909 11.0983Z" fill="#F0F0F0"/>
<path d="M593.826 74.6755C570.722 71.5519 544.345 84.0426 538.357 106.58C536.848 102.573 534.105 99.1491 530.523 96.8037C526.941 94.4584 522.707 93.3127 518.432 93.5322C514.156 93.7516 510.061 95.3248 506.738 98.0245C503.415 100.724 501.037 104.411 499.946 108.551L502.591 110.446C552.101 121.155 603.353 120.924 652.765 109.767C636.694 92.8732 616.93 77.7991 593.826 74.6755Z" fill="#F0F0F0"/>
<path d="M795.475 86.6971C795.379 86.6973 795.284 86.6825 795.193 86.6533C548.041 8.47372 330.211 18.6971 190.995 41.0402C172.049 44.0798 153.053 47.5904 134.533 51.4754C129.805 52.4661 124.9 53.528 119.954 54.6336C114.048 55.9494 108.22 57.3043 102.632 58.6593C100.218 59.2309 97.8517 59.807 95.5325 60.3877C92.0194 61.2551 88.4548 62.159 84.6337 63.1523C80.3639 64.2535 76.0257 65.4085 71.7367 66.5854C71.721 66.5909 71.705 66.5955 71.6888 66.5991L71.6893 66.6C66.8449 67.923 62.026 69.2844 57.366 70.6439C54.8438 71.3725 52.4084 72.0911 50.0757 72.8005C49.815 72.8727 49.5841 72.9421 49.35 73.0133L48.8488 73.1657C48.5585 73.2543 48.2719 73.341 47.9853 73.4232L47.967 73.4287L47.9675 73.4296L47.2089 73.6652C46.3043 73.9392 45.4216 74.2067 44.5535 74.4733C21.6103 81.5476 8.99771 86.5803 8.87311 86.6296C8.75917 86.6753 8.63736 86.698 8.51461 86.6966C8.39186 86.6952 8.2706 86.6697 8.15774 86.6214C8.04487 86.5731 7.94261 86.5031 7.85681 86.4152C7.77102 86.3274 7.70335 86.2236 7.65767 86.1096C7.612 85.9956 7.58923 85.8738 7.59064 85.751C7.59205 85.6282 7.61762 85.507 7.66589 85.3941C7.71416 85.2812 7.78419 85.1789 7.87198 85.0931C7.95977 85.0073 8.06359 84.9396 8.17753 84.8939C8.30305 84.8446 20.9773 79.7863 44.004 72.6856C44.8753 72.418 45.7603 72.1505 46.6676 71.8757L47.3723 71.6565C47.3965 71.6474 47.4207 71.6401 47.4453 71.6328C47.7306 71.5516 48.0154 71.4648 48.3048 71.3772L48.8068 71.2247C49.0569 71.1489 49.3034 71.074 49.5558 71.0046C51.8726 70.2998 54.3162 69.5794 56.8448 68.848C61.5066 67.4876 66.33 66.1262 71.1781 64.8014C71.1931 64.7959 71.2087 64.7923 71.2237 64.7877C75.5277 63.6071 79.882 62.4466 84.1654 61.3419C87.9925 60.3475 91.5639 59.4418 95.0829 58.5726C97.412 57.9928 99.7829 57.4155 102.196 56.8405C107.79 55.4837 113.63 54.127 119.547 52.8085C124.501 51.7019 129.414 50.6373 134.15 49.6457C152.698 45.7543 171.724 42.2382 190.699 39.1941C330.115 16.819 548.257 6.57912 795.756 84.871C795.969 84.9382 796.151 85.0793 796.269 85.2689C796.386 85.4585 796.432 85.684 796.398 85.9046C796.365 86.1253 796.253 86.3265 796.083 86.4718C795.914 86.6171 795.698 86.6971 795.475 86.6971Z" fill="#CCCCCC"/>
<path d="M245.826 392.533C245.503 391.587 244.958 390.731 244.237 390.037C243.971 389.79 243.683 389.568 243.377 389.373C240.938 387.746 237.292 387.382 234.974 389.373C234.741 389.576 234.525 389.798 234.329 390.037C233.637 390.888 232.927 391.72 232.198 392.533C231.001 393.898 229.777 395.217 228.496 396.497C228.132 396.853 227.767 397.217 227.393 397.573C227.178 397.788 226.963 397.993 226.748 398.199C225.926 398.984 225.085 399.742 224.234 400.49C223.785 400.892 223.337 401.284 222.879 401.668C222.196 402.238 221.514 402.808 220.822 403.36C220.757 403.407 220.691 403.454 220.626 403.51C220.607 403.519 220.598 403.538 220.579 403.547C220.57 403.547 220.56 403.547 220.551 403.566C220.526 403.576 220.503 403.592 220.486 403.612C220.28 403.753 220.14 403.846 220.037 403.93C220.074 403.912 220.112 403.884 220.149 403.865C219.981 403.996 219.803 404.127 219.635 404.258C217.999 405.464 216.326 406.623 214.615 407.708C210.383 410.417 205.938 412.778 201.323 414.767C201.015 414.888 200.697 415.019 200.379 415.14C188.297 420.092 175.191 422.023 162.195 420.769C160.868 420.666 159.54 420.526 158.213 420.348C156.68 420.124 155.157 419.853 153.642 419.544C147.877 418.394 142.237 416.69 136.798 414.458C129.995 411.342 123.525 407.545 117.486 403.126C116.552 402.462 115.608 401.799 114.664 401.154C115.739 398.517 116.795 395.88 117.823 393.225C118.337 391.944 118.833 390.663 119.319 389.373C123.142 379.434 126.731 369.402 130.171 359.333C133.648 349.132 136.929 338.873 140.014 328.554C140.332 327.507 140.64 326.46 140.939 325.413C142.556 319.962 144.108 314.498 145.594 309.023C145.734 308.49 145.884 307.966 146.015 307.433C146.445 305.863 146.865 304.292 147.277 302.721C148.211 299.178 146.099 294.942 142.379 294.091C140.587 293.632 138.688 293.886 137.08 294.8C135.473 295.714 134.282 297.216 133.76 298.991C133.358 300.505 132.956 302.01 132.545 303.525C130.573 310.846 128.498 318.142 126.32 325.413C126.002 326.46 125.684 327.507 125.366 328.554C120.562 344.392 115.287 360.071 109.541 375.592C108.849 377.471 108.148 379.344 107.438 381.211C107.092 382.127 106.746 383.043 106.391 383.96C105.709 385.764 105.008 387.569 104.307 389.373C103.905 390.43 103.493 391.486 103.082 392.533C102.811 393.197 102.549 393.861 102.288 394.515C99.6225 393.558 96.8612 392.894 94.0525 392.533L93.6038 392.477C91.4263 392.215 89.2241 392.234 87.0513 392.533C83.7994 392.913 80.6705 394.002 77.8859 395.724C75.1013 397.447 72.7289 399.76 70.9364 402.5C66.4777 409.521 66.5337 419.563 72.7872 425.528C79.2275 431.671 88.9769 431.624 96.5576 427.781C100.575 425.607 103.962 422.432 106.391 418.562C107.322 417.16 108.177 415.709 108.952 414.215C109.149 414.346 109.345 414.477 109.541 414.617C110.289 415.14 111.037 415.673 111.775 416.197C116.078 419.315 120.612 422.1 125.338 424.528C135.501 429.581 146.44 432.89 157.699 434.317C157.951 434.345 158.194 434.382 158.447 434.41C159.69 434.569 160.943 434.691 162.195 434.793C180.163 436.148 198.153 432.47 214.148 424.172C215.503 423.471 216.846 422.735 218.177 421.966C220.243 420.769 222.262 419.497 224.234 418.151C225.309 417.422 226.356 416.683 227.393 415.907C231.927 412.567 236.154 408.828 240.022 404.734C241.489 403.192 242.894 401.599 244.237 399.957C245.507 398.613 246.239 396.85 246.294 395.001C246.286 394.157 246.128 393.321 245.826 392.533ZM91.0427 414.804C91.239 414.664 91.4352 414.514 91.6222 414.365C91.5661 414.505 91.295 414.664 91.0427 414.804ZM94.0432 411.784C93.8282 412.027 93.6319 412.27 93.4169 412.513C92.7628 413.245 92.0602 413.933 91.3137 414.57C91.2109 414.664 91.0987 414.757 90.9866 414.841C90.9853 414.841 90.9841 414.842 90.983 414.842C90.9818 414.842 90.9808 414.843 90.9799 414.844C90.979 414.845 90.9783 414.846 90.9779 414.847C90.9774 414.848 90.9772 414.849 90.9772 414.851C90.8422 414.911 90.7111 414.98 90.5846 415.056C90.1827 415.299 89.7714 415.524 89.3508 415.73C88.5272 416.033 87.6799 416.267 86.8176 416.431C86.155 416.479 85.49 416.485 84.8266 416.449H84.8079C84.3501 416.348 83.8977 416.223 83.4526 416.075C83.2282 415.963 83.0132 415.832 82.7982 415.702C82.7141 415.627 82.6393 415.552 82.5926 415.505C82.5013 415.422 82.4169 415.331 82.3403 415.234C82.3403 415.233 82.3401 415.232 82.3396 415.23C82.3391 415.229 82.3385 415.228 82.3376 415.227C82.3367 415.226 82.3357 415.226 82.3345 415.225C82.3334 415.225 82.3322 415.225 82.3309 415.225C82.2281 415.038 82.1159 414.851 82.0131 414.664C82.0078 414.659 82.0044 414.652 82.0038 414.645C81.929 414.411 81.8636 414.168 81.8075 413.925C81.7872 413.498 81.7903 413.071 81.8168 412.644C81.9422 412.047 82.1109 411.459 82.3216 410.886C82.5108 410.48 82.7263 410.087 82.9665 409.708C82.9852 409.671 83.0787 409.521 83.1815 409.353C83.1909 409.344 83.1909 409.344 83.1909 409.334C83.3311 409.175 83.4713 409.007 83.6209 408.858C83.8733 408.577 84.1443 408.334 84.4154 408.082C84.9426 407.736 85.4887 407.421 86.0512 407.137C86.9435 406.82 87.8592 406.573 88.79 406.399C90.1625 406.29 91.5419 406.302 92.9122 406.436C94.2101 406.661 95.4906 406.977 96.7446 407.38C95.9846 408.856 95.1193 410.274 94.1554 411.625C94.118 411.681 94.0806 411.737 94.0432 411.784ZM83.6489 408.708C83.5665 408.84 83.4693 408.963 83.3591 409.073C83.4333 408.935 83.5314 408.811 83.6489 408.708Z" fill="#3F3D56"/>
<path d="M217.728 297.046C217.644 299.982 217.56 302.917 217.476 305.853C217.298 312.37 217.114 318.89 216.924 325.413C216.728 332.752 216.522 340.088 216.307 347.421C216.205 351.208 216.099 354.995 215.99 358.781C215.7 368.982 215.413 379.179 215.13 389.373C215.102 390.43 215.064 391.477 215.036 392.533C214.896 397.591 214.756 402.649 214.615 407.708C214.457 413.196 214.301 418.684 214.148 424.172C214.036 428.286 213.921 432.403 213.802 436.523C212.961 466.376 212.12 496.23 211.278 526.083C211.243 527.931 210.493 529.694 209.186 531.002C207.879 532.309 206.116 533.059 204.268 533.095C202.413 533.08 200.639 532.336 199.327 531.025C198.016 529.713 197.272 527.938 197.257 526.083C197.725 509.291 198.198 492.499 198.678 475.707C199.099 460.523 199.526 445.34 199.959 430.156C200.099 425.154 200.239 420.149 200.379 415.14C200.594 407.605 200.806 400.069 201.015 392.533C201.043 391.477 201.08 390.43 201.108 389.373C201.127 388.447 201.155 387.531 201.183 386.606C201.595 371.973 202.006 357.338 202.417 342.7C202.585 336.941 202.747 331.178 202.903 325.413C203.09 318.84 203.277 312.27 203.464 305.704C203.548 302.815 203.623 299.935 203.707 297.046C203.743 295.197 204.493 293.434 205.8 292.127C207.107 290.819 208.869 290.069 210.718 290.034C212.572 290.049 214.347 290.792 215.658 292.104C216.97 293.416 217.713 295.191 217.728 297.046Z" fill="#3F3D56"/>
<path d="M602.307 298.992C594.956 326.834 586.169 354.278 575.983 381.213C573.173 388.643 570.297 396.058 567.224 403.383L567.93 401.708C566.558 405.197 564.806 408.524 562.706 411.629C562.563 411.83 562.417 412.028 562.269 412.224C562.995 411.295 563.133 411.112 562.683 411.674C562.446 411.955 562.211 412.237 561.965 412.511C561.311 413.243 560.609 413.932 559.863 414.571C559.676 414.731 559.485 414.889 559.291 415.042L560.168 414.361C560.066 414.601 559.352 414.919 559.13 415.055C558.41 415.49 557.658 415.871 556.882 416.195L558.557 415.488C557.284 416 555.957 416.364 554.602 416.573L556.465 416.322C555.133 416.506 553.783 416.521 552.448 416.365L554.312 416.616C553.219 416.465 552.149 416.177 551.129 415.758L552.804 416.465C552.259 416.228 551.734 415.948 551.234 415.628C550.981 415.462 550.201 414.872 551.22 415.651C552.28 416.46 551.356 415.72 551.138 415.505C550.957 415.326 550.793 415.131 550.615 414.949C549.791 414.103 551.547 416.404 550.986 415.415C550.687 414.919 550.413 414.408 550.165 413.884L550.872 415.56C550.55 414.762 550.322 413.93 550.191 413.081L550.442 414.945C550.308 413.888 550.307 412.818 550.439 411.761L550.189 413.625C550.36 412.445 550.672 411.29 551.118 410.185L550.412 411.86C550.723 411.116 551.091 410.398 551.513 409.711C551.707 409.356 551.935 409.02 552.194 408.709C552.24 408.724 551.008 410.123 551.662 409.417C551.833 409.232 551.993 409.037 552.165 408.854C552.442 408.56 552.739 408.292 553.031 408.014C554.007 407.085 551.664 408.917 552.791 408.182C553.608 407.645 554.467 407.176 555.361 406.78L553.686 407.487C555.183 406.872 556.752 406.451 558.355 406.234L556.492 406.485C558.5 406.254 560.529 406.278 562.531 406.556L560.667 406.306C563.202 406.69 565.68 407.387 568.044 408.381L566.369 407.674C571.407 409.838 575.869 413.05 580.323 416.199C584.625 419.315 589.158 422.099 593.882 424.527C604.045 429.581 614.985 432.891 626.245 434.319C642.393 436.298 658.78 434.188 673.901 428.185C689.022 422.181 702.393 412.475 712.789 399.957C714.057 398.612 714.788 396.848 714.842 394.999C714.829 393.142 714.092 391.363 712.789 390.041C710.217 387.679 705.358 387.012 702.874 390.041C700.52 392.915 697.99 395.64 695.297 398.2C694.039 399.393 692.749 400.549 691.425 401.669C690.668 402.308 689.902 402.935 689.124 403.549C688.757 403.84 687.611 404.613 689.37 403.364C688.967 403.651 688.58 403.963 688.183 404.257C682.296 408.598 675.916 412.227 669.177 415.07L670.852 414.363C663.621 417.397 656.026 419.478 648.258 420.555L650.122 420.304C642.131 421.355 634.036 421.343 626.049 420.268L627.913 420.519C619.927 419.422 612.117 417.294 604.678 414.189L606.352 414.896C599.174 411.719 592.361 407.772 586.035 403.124C582.742 400.685 579.269 398.499 575.647 396.584C571.426 394.429 566.857 393.039 562.151 392.481C553.328 391.443 544.338 394.88 539.487 402.504C535.023 409.521 535.081 419.562 541.332 425.528C547.77 431.673 557.52 431.621 565.108 427.777C572.415 424.075 576.804 416.384 579.891 409.132C586.837 392.813 592.987 376.116 598.716 359.334C604.385 342.731 609.525 325.96 614.138 309.02C614.709 306.922 615.272 304.822 615.827 302.72C616.763 299.178 614.648 294.941 610.931 294.094C609.139 293.633 607.238 293.886 605.629 294.799C604.02 295.713 602.829 297.216 602.307 298.992Z" fill="#3F3D56"/>
<path d="M672.256 297.045L669.732 386.608L667.222 475.704L665.803 526.083C665.819 527.938 666.562 529.712 667.874 531.024C669.185 532.336 670.959 533.08 672.813 533.095C674.661 533.06 676.424 532.309 677.731 531.002C679.038 529.695 679.788 527.932 679.824 526.083L682.347 436.521L684.857 347.424L686.277 297.045C686.261 295.191 685.517 293.416 684.206 292.105C682.895 290.793 681.121 290.049 679.266 290.033C677.418 290.069 675.656 290.819 674.349 292.127C673.042 293.434 672.291 295.197 672.256 297.045Z" fill="#3F3D56"/>
<path opacity="0.2" d="M429.599 501.077H431.776V401.933H482.559V399.761H431.776V357.927H470.993C470.418 357.195 469.827 356.473 469.218 355.761H431.776V328.13C431.056 327.823 430.33 327.527 429.599 327.248V355.761H386.926V320.358C386.195 320.392 385.475 320.442 384.749 320.503V355.761H350.706V329.347C349.974 329.671 349.254 330.011 348.54 330.369V355.761H319.922V357.927H348.54V399.761H319.922V401.933H348.54V501.077H350.706V401.933C355.177 401.932 359.604 402.812 363.735 404.523C367.865 406.234 371.619 408.742 374.78 411.904C377.941 415.066 380.449 418.82 382.159 422.952C383.87 427.084 384.75 431.512 384.749 435.984V501.077H386.926V401.933H429.599V501.077ZM350.706 399.761V357.927H384.749V399.761H350.706ZM386.926 399.761V357.927H387.78C393.272 357.927 398.71 359.009 403.784 361.112C408.858 363.215 413.468 366.296 417.352 370.181C421.235 374.066 424.315 378.677 426.416 383.753C428.518 388.828 429.599 394.268 429.599 399.761H386.926Z" fill="black"/>
<path d="M416.304 471.35C413.564 483.578 406.999 494.615 397.563 502.858C396.871 503.457 396.179 504.036 395.46 504.607C393.712 504.766 391.976 504.928 390.253 505.093C388.823 505.224 387.412 505.364 386.009 505.495L385.757 505.523L385.579 503.99L384.869 497.782C382.113 493.281 380.405 488.218 379.871 482.968C379.337 477.718 379.991 472.415 381.784 467.451C384.252 460.795 388.72 454.914 393.113 449.08C399.18 441.02 405.078 433.054 405.293 423.228C408.278 427.049 410.76 431.237 412.678 435.691C410.868 436.543 409.242 437.74 407.892 439.216C407.508 439.636 407.125 440.225 407.387 440.73C407.611 441.16 408.172 441.263 408.658 441.319C409.827 441.441 411.004 441.562 412.173 441.684C413.108 441.787 414.042 441.88 414.977 441.983C416.108 445.696 416.875 449.51 417.267 453.371C417.897 459.377 417.572 465.446 416.304 471.35Z" fill="#3F3D56"/>
<path d="M447.338 446.845C441.823 450.856 438.598 456.625 436.093 462.982C433.525 463.804 431.216 465.28 429.391 467.265C429.008 467.685 428.624 468.274 428.886 468.779C429.11 469.209 429.671 469.312 430.157 469.368C431.326 469.49 432.503 469.611 433.672 469.733C431.167 477.25 428.867 485.029 424.437 491.377C421.49 495.568 417.649 499.053 413.192 501.578C411.976 502.27 410.722 502.891 409.434 503.438C404.686 503.803 400.027 504.192 395.46 504.607C393.712 504.766 391.976 504.928 390.253 505.093C388.823 505.224 387.412 505.364 386.009 505.495C386 504.981 386 504.467 386.009 503.952C386.305 490.254 391.343 477.082 400.264 466.685C400.685 466.199 401.115 465.722 401.554 465.245C406.074 460.417 411.389 456.4 417.267 453.371C426.53 448.554 436.912 446.301 447.338 446.845Z" fill="#6C63FF"/>
<path d="M391.87 500.297L390.795 503.475L390.253 505.093C388.823 505.224 387.412 505.364 386.01 505.495L385.757 505.523C384.206 505.682 382.663 505.841 381.121 506C380.719 505.532 380.317 505.056 379.924 504.569C370.168 492.752 365.484 477.552 366.898 462.291C368.311 447.03 375.707 432.949 387.468 423.125C386.234 429.586 387.673 435.775 390.038 441.918C389.786 442.021 389.543 442.123 389.309 442.236C387.5 443.088 385.874 444.285 384.523 445.76C384.14 446.181 383.757 446.77 384.019 447.275C384.243 447.705 384.804 447.808 385.29 447.864C386.458 447.986 387.636 448.107 388.804 448.229C389.739 448.332 390.674 448.425 391.609 448.528C392.048 448.575 392.487 448.621 392.927 448.668C392.992 448.808 393.048 448.939 393.114 449.08C395.778 454.858 398.647 460.664 400.264 466.685C400.67 468.195 400.988 469.728 401.218 471.275C401.938 476.504 401.471 481.828 399.853 486.852C398.235 491.876 395.506 496.471 391.87 500.297Z" fill="#6C63FF"/>
<path d="M485.96 364.691C477.913 348.991 465.446 335.781 450.783 326.073C436.074 316.379 419.195 310.476 401.651 308.889C399.351 308.68 397.046 308.558 394.735 308.522C392.004 308.481 350.927 320.332 337.167 330.009C323.414 339.568 312.1 352.228 304.139 366.965C296.192 381.784 292.283 398.433 292.805 415.24C293.486 432.149 298.198 448.65 306.548 463.368C314.784 478.038 326.479 490.474 340.614 499.594C354.951 508.744 369.353 533.005 386.281 533.862C403.336 534.725 422.786 511.839 438.341 504.89C453.896 497.883 467.344 486.921 477.344 473.097C487.061 459.549 493.347 443.845 495.664 427.333C498.069 410.426 496.948 392.989 491.176 376.83C489.694 372.677 487.952 368.623 485.96 364.691C484.296 361.413 479.42 360.207 476.368 362.175C474.795 363.144 473.656 364.681 473.188 366.468C472.72 368.255 472.958 370.153 473.853 371.769C474.83 373.694 475.738 375.65 476.578 377.638L475.871 375.963C479.049 383.607 481.21 391.634 482.299 399.84L482.048 397.976C483.206 406.879 483.186 415.896 481.987 424.793L482.237 422.929C481.025 431.826 478.651 440.525 475.175 448.803L475.882 447.128C474.094 451.352 472.01 455.444 469.646 459.375C468.448 461.36 467.176 463.299 465.832 465.192C465.241 466.022 464.633 466.838 464.019 467.652C463.219 468.713 465.11 466.265 464.283 467.306C464.142 467.484 464.002 467.662 463.861 467.839C463.436 468.369 463.006 468.895 462.569 469.416C459.655 472.894 456.474 476.14 453.057 479.125C452.205 479.868 451.34 480.594 450.46 481.304C450.022 481.658 449.589 482.027 449.132 482.356C449.15 482.343 450.609 481.234 449.745 481.878C449.473 482.08 449.204 482.286 448.932 482.487C447.119 483.831 445.257 485.106 443.348 486.313C438.951 489.084 434.339 491.495 429.555 493.525L431.23 492.818C422.978 496.293 414.305 498.666 405.434 499.878L407.298 499.628C398.431 500.826 389.445 500.842 380.574 499.675L382.438 499.926C374.376 498.843 366.49 496.71 358.98 493.582L360.655 494.289C356.305 492.452 352.111 490.266 348.114 487.753C346.136 486.506 344.21 485.183 342.334 483.782C342.067 483.582 341.802 483.379 341.535 483.178C340.679 482.532 342.15 483.655 342.162 483.662C341.664 483.306 341.185 482.923 340.727 482.517C339.821 481.78 338.929 481.025 338.052 480.253C334.541 477.161 331.263 473.814 328.244 470.24C327.488 469.347 326.748 468.439 326.025 467.519C325.711 467.12 325.14 466.313 326.402 468.013C326.236 467.79 326.064 467.57 325.896 467.348C325.493 466.813 325.096 466.275 324.704 465.732C323.331 463.832 322.026 461.886 320.789 459.892C317.994 455.381 315.555 450.658 313.493 445.767L314.2 447.442C310.827 439.414 308.52 430.978 307.338 422.35L307.589 424.215C306.523 416.262 306.508 408.203 307.544 400.246L307.293 402.11C308.355 394.405 310.428 386.873 313.457 379.709L312.751 381.384C314.657 376.9 316.905 372.569 319.476 368.429C320.764 366.358 322.127 364.337 323.568 362.366C323.896 361.919 324.227 361.474 324.561 361.031C324.864 360.631 325.697 359.635 324.276 361.395C324.415 361.222 324.549 361.045 324.687 360.871C325.477 359.869 326.287 358.882 327.117 357.912C330.255 354.236 333.655 350.793 337.29 347.608C338.208 346.802 339.141 346.014 340.089 345.243C340.52 344.893 340.953 344.546 341.389 344.203C341.564 344.065 341.74 343.931 341.914 343.792C340.047 345.279 341.395 344.197 341.819 343.879C343.772 342.416 345.777 341.025 347.835 339.708C352.408 336.783 357.219 334.247 362.217 332.128L360.542 332.834C367.796 329.788 399.933 322.597 405.778 323.382L403.914 323.132C412.506 324.331 420.902 326.652 428.891 330.034L427.216 329.327C431.264 331.046 435.198 333.023 438.994 335.245C440.89 336.357 442.75 337.529 444.572 338.762C445.434 339.346 446.287 339.943 447.131 340.553C447.553 340.858 447.973 341.166 448.39 341.477C448.621 341.65 448.851 341.826 449.083 341.999C450.054 342.728 447.745 340.944 448.763 341.75C452.171 344.428 455.408 347.318 458.454 350.401C459.95 351.925 461.395 353.498 462.788 355.118C463.503 355.95 464.203 356.794 464.888 357.65C465.229 358.075 466.388 359.614 464.967 357.729C465.315 358.19 465.666 358.647 466.009 359.111C468.963 363.111 471.586 367.344 473.853 371.769C475.529 375.039 480.384 376.259 483.445 374.285C485.018 373.317 486.157 371.779 486.625 369.992C487.094 368.205 486.855 366.306 485.96 364.691Z" fill="#3F3D56"/>
<path d="M404.272 479.125C403.549 479.158 402.832 478.968 402.22 478.581C401.608 478.193 401.13 477.627 400.851 476.958C400.571 476.29 400.504 475.551 400.658 474.843C400.812 474.135 401.18 473.492 401.712 473C401.801 472.646 401.865 472.391 401.954 472.037C401.922 471.96 401.89 471.883 401.858 471.806C398.605 464.048 377.849 485.675 376.952 492.966C376.556 496.189 376.723 499.456 377.444 502.622C370.721 487.952 367.23 472.008 367.207 455.871C367.206 451.822 367.431 447.775 367.881 443.751C368.253 440.452 368.769 437.176 369.43 433.924C373.033 416.278 380.77 399.739 392.005 385.665C398.43 386.023 404.061 385.044 404.605 372.589C404.702 370.373 406.345 368.455 406.707 366.272C406.093 366.353 405.47 366.403 404.857 366.443C404.665 366.453 404.464 366.463 404.273 366.474L404.201 366.477C403.527 366.507 402.859 366.342 402.276 366.001C401.694 365.66 401.222 365.158 400.919 364.555C400.615 363.952 400.492 363.275 400.564 362.603C400.636 361.932 400.901 361.297 401.326 360.772C401.591 360.446 401.856 360.121 402.121 359.795C402.524 359.292 402.936 358.799 403.338 358.296C403.385 358.248 403.428 358.198 403.469 358.145C403.931 357.572 404.394 357.009 404.857 356.435C404.012 355.124 402.877 354.027 401.538 353.227C396.902 350.511 390.507 352.392 387.158 356.586C383.8 360.78 383.166 366.665 384.333 371.905C385.48 376.364 387.377 380.595 389.944 384.417C389.692 384.739 389.431 385.051 389.179 385.373C384.584 391.284 380.578 397.631 377.221 404.323C378.171 396.9 366.554 370.096 362.061 364.418C356.665 357.599 345.6 360.575 344.649 369.22C344.64 369.303 344.631 369.387 344.622 369.471C345.289 369.847 345.942 370.247 346.581 370.67C347.384 371.206 348.006 371.973 348.366 372.869C348.726 373.765 348.807 374.75 348.598 375.692C348.389 376.635 347.9 377.493 347.196 378.154C346.491 378.814 345.604 379.246 344.649 379.393L344.552 379.408C335.619 392.165 364.253 425.366 371.421 417.911C368.047 427.474 365.931 437.434 365.126 447.543C364.67 453.506 364.697 459.497 365.206 465.456L365.176 465.245C363.584 452.266 336.263 432.968 328.285 434.575C323.689 435.501 319.163 435.291 319.861 439.928C319.872 440.002 319.883 440.076 319.895 440.15C321.133 440.654 322.338 441.236 323.505 441.89C324.172 442.267 324.825 442.666 325.464 443.089C326.267 443.626 326.889 444.392 327.249 445.288C327.609 446.185 327.69 447.169 327.481 448.112C327.272 449.055 326.783 449.913 326.078 450.573C325.374 451.233 324.486 451.665 323.532 451.812L323.434 451.828C323.364 451.838 323.303 451.848 323.233 451.858C319.167 465.851 349.319 488.433 367.65 481.248H367.66C369.476 489.144 372.108 496.829 375.514 504.181H403.569C403.67 503.869 403.76 503.547 403.851 503.235C401.254 503.398 398.647 503.243 396.088 502.772C398.169 500.218 400.251 497.643 402.332 495.088C402.379 495.04 402.423 494.99 402.463 494.937C403.519 493.63 404.585 492.332 405.641 491.025L405.641 491.023C405.698 487.015 405.238 483.016 404.273 479.126L404.272 479.125ZM372.145 415.91L372.16 415.89L372.145 415.93V415.91ZM365.93 471.944L365.689 471.401C365.699 471.009 365.699 470.616 365.689 470.214C365.689 470.103 365.669 469.993 365.669 469.882C365.759 470.576 365.84 471.27 365.94 471.964L365.93 471.944Z" fill="#3F3D56"/>
<path d="M89.0329 420.732C94.7116 420.732 99.315 416.127 99.315 410.447C99.315 404.767 94.7116 400.162 89.0329 400.162C83.3542 400.162 78.7507 404.767 78.7507 410.447C78.7507 416.127 83.3542 420.732 89.0329 420.732Z" fill="#3F3D56"/>
<path d="M212.419 532.927C218.098 532.927 222.701 528.322 222.701 522.642C222.701 516.962 218.098 512.358 212.419 512.358C206.74 512.358 202.137 516.962 202.137 522.642C202.137 528.322 206.74 532.927 212.419 532.927Z" fill="#3F3D56"/>
<path d="M680.724 532.927C686.403 532.927 691.006 528.322 691.006 522.642C691.006 516.962 686.403 512.358 680.724 512.358C675.045 512.358 670.442 516.962 670.442 522.642C670.442 528.322 675.045 532.927 680.724 532.927Z" fill="#3F3D56"/>
<path d="M705.962 402.032C711.641 402.032 716.244 397.428 716.244 391.748C716.244 386.068 711.641 381.463 705.962 381.463C700.283 381.463 695.68 386.068 695.68 391.748C695.68 397.428 700.283 402.032 705.962 402.032Z" fill="#3F3D56"/>
<path d="M676.05 306.667C681.729 306.667 686.332 302.062 686.332 296.382C686.332 290.702 681.729 286.097 676.05 286.097C670.372 286.097 665.768 290.702 665.768 296.382C665.768 302.062 670.372 306.667 676.05 306.667Z" fill="#3F3D56"/>
<path d="M247.004 391.748C246.998 394.375 245.982 396.899 244.167 398.798C242.352 400.697 239.877 401.825 237.253 401.949C234.63 402.073 232.059 401.184 230.073 399.465C228.087 397.746 226.837 395.329 226.583 392.714C226.329 390.1 227.09 387.487 228.708 385.418C230.325 383.348 232.677 381.98 235.275 381.597C237.873 381.213 240.52 381.843 242.666 383.357C244.813 384.87 246.296 387.152 246.808 389.728C246.94 390.393 247.005 391.07 247.004 391.748Z" fill="#3F3D56"/>
<path d="M452.647 336.585C458.326 336.585 462.929 331.981 462.929 326.301C462.929 320.621 458.326 316.016 452.647 316.016C446.968 316.016 442.365 320.621 442.365 326.301C442.365 331.981 446.968 336.585 452.647 336.585Z" fill="#3F3D56"/>
<path d="M350.76 326.301C350.754 328.928 349.739 331.452 347.924 333.351C346.109 335.25 343.633 336.378 341.01 336.502C338.386 336.626 335.815 335.737 333.829 334.018C331.843 332.299 330.594 329.882 330.34 327.267C330.085 324.653 330.846 322.04 332.464 319.971C334.082 317.901 336.433 316.533 339.031 316.15C341.63 315.766 344.276 316.396 346.423 317.91C348.57 319.423 350.052 321.705 350.564 324.281C350.696 324.946 350.762 325.623 350.76 326.301Z" fill="#3F3D56"/>
<path d="M218.027 296.382C218.021 299.009 217.005 301.533 215.19 303.432C213.375 305.331 210.9 306.459 208.276 306.583C205.653 306.708 203.082 305.818 201.096 304.099C199.11 302.38 197.86 299.963 197.606 297.349C197.352 294.734 198.113 292.121 199.73 290.052C201.348 287.983 203.7 286.614 206.298 286.231C208.896 285.847 211.543 286.477 213.689 287.991C215.836 289.505 217.319 291.786 217.831 294.363C217.963 295.028 218.028 295.704 218.027 296.382Z" fill="#3F3D56"/>
<path d="M560.143 424.471C565.821 424.471 570.425 419.867 570.425 414.187C570.425 408.507 565.821 403.902 560.143 403.902C554.464 403.902 549.86 408.507 549.86 414.187C549.86 419.867 554.464 424.471 560.143 424.471Z" fill="#3F3D56"/>
<path d="M398.432 330.976C406.692 330.976 413.388 324.278 413.388 316.016C413.388 307.754 406.692 301.057 398.432 301.057C390.172 301.057 383.476 307.754 383.476 316.016C383.476 324.278 390.172 330.976 398.432 330.976Z" fill="#3F3D56"/>
<path d="M802.887 533.713L1.11297 534C0.966813 534 0.822082 533.971 0.687049 533.915C0.552017 533.859 0.429331 533.777 0.325981 533.674C0.222632 533.57 0.14064 533.448 0.084708 533.313C0.0287757 533.178 0 533.033 0 532.887C0 532.741 0.0287757 532.596 0.084708 532.461C0.14064 532.326 0.222632 532.203 0.325981 532.1C0.429331 531.996 0.552017 531.914 0.687049 531.858C0.822082 531.802 0.966813 531.773 1.11297 531.773L802.887 531.486C803.182 531.487 803.464 531.605 803.672 531.813C803.88 532.022 803.997 532.305 803.997 532.599C803.997 532.894 803.88 533.177 803.672 533.385C803.464 533.594 803.182 533.712 802.887 533.713Z" fill="#CACACA"/>
</g>
<defs>
<clipPath id="clip0_43_604">
<rect width="804" height="534" fill="white"/>
</clipPath>
</defs>
</svg>
