<svg width="588" height="372" viewBox="0 0 588 372" fill="none" xmlns="http://www.w3.org/2000/svg">
<g clip-path="url(#clip0_35_150)">
<path d="M492.33 29.1235H0.547558C1.24216 25.1859 2.59869 21.4607 4.4946 18.0868C10.5501 7.30333 22.0971 0 35.3276 0H457.55C470.773 0 482.328 7.30333 488.375 18.0868C490.271 21.4607 491.636 25.1859 492.33 29.1235Z" fill="#F2F2F2"/>
<path d="M588 370.64C588 371.179 587.567 371.612 587.028 371.612H384.942C384.403 371.612 383.97 371.179 383.97 370.64C383.97 370.379 384.068 370.15 384.231 369.978H457.55C459.111 369.978 460.639 369.872 462.143 369.668H587.028C587.567 369.668 588 370.101 588 370.64Z" fill="#3F3D56"/>
<path d="M361.381 172.486H131.491C129.355 172.486 127.617 170.287 127.617 167.585C127.617 164.882 129.355 162.683 131.491 162.683H361.381C363.518 162.683 365.256 164.882 365.256 167.585C365.256 170.287 363.518 172.486 361.381 172.486Z" fill="#E6E6E6"/>
<path d="M492.33 29.1235C491.636 25.1859 490.271 21.4607 488.375 18.0868C482.328 7.30333 470.773 0 457.55 0H35.3276C22.0971 0 10.5501 7.30333 4.4946 18.0868C2.59869 21.4607 1.24216 25.1859 0.547557 29.1235C0.187989 31.1331 0 33.1999 0 35.3158V336.296C0 355.772 15.8455 371.612 35.3276 371.612H457.55C461.587 371.612 465.477 370.926 469.097 369.668C482.924 364.881 492.878 351.728 492.878 336.296V35.3158C492.878 33.2081 492.69 31.1331 492.33 29.1235ZM491.243 336.296C491.243 353.337 478.577 367.43 462.143 369.668C460.639 369.872 459.111 369.978 457.55 369.978H85.5118C39.1848 369.978 1.6344 332.432 1.6344 286.121V35.3158C1.6344 33.1999 1.83052 31.1331 2.20645 29.1235C2.94195 25.1532 4.37205 21.4362 6.37415 18.0868C12.2498 8.23465 23.0206 1.63385 35.3276 1.63385H457.55C469.857 1.63385 480.628 8.23465 486.504 18.0868C488.506 21.4362 489.936 25.1532 490.671 29.1235C491.047 31.1331 491.243 33.1999 491.243 35.3158V336.296Z" fill="#3F3D56"/>
<path d="M470.647 176.521L467.882 166.385L480.326 161.778L481.708 170.993L470.647 176.521Z" fill="#FFB6B6"/>
<path opacity="0.1" d="M470.647 176.521L467.882 166.385L475.21 163.295L472.933 175.245L470.647 176.521Z" fill="black"/>
<path d="M434.219 263.392C431.842 261.978 431.717 257.805 433.939 254.071C434.912 252.437 436.173 251.158 437.483 250.354L438.788 248.223L455.297 218.637C455.297 218.637 462.524 190.734 465.466 187.36C468.408 183.986 472.662 184.781 472.662 184.781L476.435 188.131L462.968 227.652L446.35 251.048L444.123 254.303C444.042 255.838 443.519 257.556 442.546 259.191C440.324 262.924 436.596 264.805 434.219 263.392Z" fill="#FFB6B6"/>
<path d="M469.966 173.626C469.966 173.626 475.217 173.423 478.53 177.501C481.843 181.578 464.487 227.537 464.487 227.537L450.35 227.036L469.966 173.626Z" fill="#6C63FF"/>
<path d="M471.338 167.998C478.465 167.998 484.243 162.222 484.243 155.097C484.243 147.972 478.465 142.197 471.338 142.197C464.211 142.197 458.433 147.972 458.433 155.097C458.433 162.222 464.211 167.998 471.338 167.998Z" fill="#FFB6B6"/>
<path d="M441.15 342.385L432.393 364.04L427.323 358.972L425.48 349.296L432.854 340.082L441.15 342.385Z" fill="#FFB6B6"/>
<path d="M523.188 334.553L531.945 344.689L527.797 352.982L518.579 351.6L513.97 338.7L523.188 334.553Z" fill="#FFB6B6"/>
<path d="M464.886 213.61L463.734 232.27L492.309 227.202L490.465 215.684L464.886 213.61Z" fill="#FFB6B6"/>
<path d="M463.503 232.5L492.309 223.055C492.309 223.055 502.909 244.249 491.387 257.61C479.865 270.972 441.611 346.993 441.611 346.993L430.089 341.464L446.681 293.087L465.116 248.396L463.503 232.5Z" fill="#2F2E41"/>
<path d="M491.387 249.778L502.448 298.155L525.493 335.474L513.509 342.385L481.247 298.155L470.647 264.061L491.387 249.778Z" fill="#2F2E41"/>
<path d="M421.332 347.454H413.35C413.35 347.454 404.036 343.768 401.853 347.454C399.67 351.139 411.592 361.593 411.592 361.593C411.592 361.593 428.245 370.951 430.55 370.49C432.854 370.03 433.776 364.501 433.776 364.501L436.541 358.05L432.393 359.433C432.393 359.433 426.863 356.208 428.245 350.679L421.332 347.454Z" fill="#2F2E41"/>
<path d="M530.101 346.071V341.464L535.46 346.071C535.46 346.071 544.389 349.296 537.476 356.207C530.562 363.118 521.805 370.49 521.805 370.49C521.805 370.49 507.979 374.176 507.057 370.03C506.135 365.883 507.057 364.205 507.057 364.205L512.127 361.736L516.736 349.757L524.11 350.679L530.101 346.071Z" fill="#2F2E41"/>
<path d="M475.256 157.631L471.108 157.17L463.503 149.568C463.503 149.568 456.59 153.254 456.59 150.49C456.59 137.589 464.425 138.05 470.877 137.129C477.33 136.207 476.638 135.977 478.712 139.432C479.661 141.013 483.091 141.966 483.091 141.966C483.091 141.966 489.543 133.212 492.769 143.809C495.996 154.406 491.848 187.118 495.074 189.883C498.3 192.647 481.827 195.407 483.611 184.582C485.395 173.757 488.621 157.17 486.778 153.485C484.934 149.799 484.473 150.72 484.473 150.72C486.758 149.788 488.251 166.213 479.637 167.017L479.404 159.013C479.404 159.013 478.021 154.867 475.256 157.631Z" fill="#2F2E41"/>
<path d="M469.495 173.526L483.321 167.998L501.757 223.286L463.826 221.905L460.41 205.403C460.41 205.403 457.076 196.814 459.841 191.746C462.607 186.678 469.495 173.526 469.495 173.526Z" fill="#6C63FF"/>
<path d="M505.474 266.141C502.718 266.378 500.183 263.06 499.811 258.732C499.648 256.837 499.927 255.062 500.523 253.646L500.34 251.154L496.5 217.494C496.5 217.494 489.351 189.961 489.774 185.506C490.197 181.05 490.865 179.867 490.865 179.867L495.884 180.39L507.99 220.348L508.132 249.042L508.221 252.985C509.05 254.279 509.627 255.98 509.79 257.875C510.162 262.204 508.229 265.905 505.474 266.141Z" fill="#FFB6B6"/>
<path d="M482.169 172.375C482.169 172.375 486.317 169.15 491.387 170.532C496.457 171.914 509.156 219.37 509.156 219.37L497.378 227.202L482.169 172.375Z" fill="#6C63FF"/>
<path d="M242.059 252.137H186.771C183.397 252.137 180.651 249.392 180.651 246.019V240.491C180.651 237.118 183.397 234.375 186.771 234.375H242.059C245.433 234.375 248.179 237.118 248.179 240.491V246.019C248.179 249.392 245.433 252.137 242.059 252.137Z" fill="#6C63FF"/>
<path d="M454.531 71.4902H399.243C395.869 71.4902 393.123 68.7458 393.123 65.3728V59.845C393.123 56.472 395.869 53.7284 399.243 53.7284H454.531C457.905 53.7284 460.651 56.472 460.651 59.845V65.3728C460.651 68.7458 457.905 71.4902 454.531 71.4902Z" fill="#6C63FF"/>
<path d="M324.08 252.545H268.791C265.192 252.545 262.263 249.617 262.263 246.019V240.491C262.263 236.893 265.192 233.966 268.791 233.966H324.08C327.679 233.966 330.608 236.893 330.608 240.491V246.019C330.608 249.617 327.679 252.545 324.08 252.545ZM268.791 235.6C266.093 235.6 263.898 237.794 263.898 240.491V246.019C263.898 248.716 266.093 250.911 268.791 250.911H324.08C326.778 250.911 328.973 248.716 328.973 246.019V240.491C328.973 237.794 326.778 235.6 324.08 235.6H268.791Z" fill="#6C63FF"/>
<path d="M391.898 147.161H100.974C98.2707 147.161 96.0713 144.963 96.0713 142.26C96.0713 139.557 98.2707 137.358 100.974 137.358H391.898C394.601 137.358 396.801 139.557 396.801 142.26C396.801 144.963 394.601 147.161 391.898 147.161Z" fill="#E6E6E6"/>
<path d="M82.4473 67.5109H45.6733C42.9695 67.5109 40.7701 65.3122 40.7701 62.6093C40.7701 59.9065 42.9695 57.7078 45.6733 57.7078H82.4473C85.1511 57.7078 87.3505 59.9065 87.3505 62.6093C87.3505 65.3122 85.1511 67.5109 82.4473 67.5109Z" fill="#E6E6E6"/>
<path d="M302.274 67.5109H265.5C262.796 67.5109 260.597 65.3122 260.597 62.6093C260.597 59.9065 262.796 57.7078 265.5 57.7078H302.274C304.978 57.7078 307.177 59.9065 307.177 62.6093C307.177 65.3122 304.978 67.5109 302.274 67.5109Z" fill="#E6E6E6"/>
<path d="M371.736 67.5109H334.962C332.258 67.5109 330.059 65.3122 330.059 62.6093C330.059 59.9065 332.258 57.7078 334.962 57.7078H371.736C374.44 57.7078 376.639 59.9065 376.639 62.6093C376.639 65.3122 374.44 67.5109 371.736 67.5109Z" fill="#E6E6E6"/>
<path d="M327.339 197.811H165.533C162.829 197.811 160.63 195.612 160.63 192.909C160.63 190.206 162.829 188.008 165.533 188.008H327.339C330.043 188.008 332.242 190.206 332.242 192.909C332.242 195.612 330.043 197.811 327.339 197.811Z" fill="#E6E6E6"/>
<path d="M334.39 305.037H158.483C156.848 305.037 155.518 303.708 155.518 302.074C155.518 300.439 156.848 299.11 158.483 299.11H334.39C336.024 299.11 337.354 300.439 337.354 302.074C337.354 303.708 336.024 305.037 334.39 305.037Z" fill="#E6E6E6"/>
<path d="M336.027 17.4789H160.12C158.485 17.4789 157.155 16.1494 157.155 14.5151C157.155 12.8808 158.485 11.5514 160.12 11.5514H336.027C337.662 11.5514 338.992 12.8808 338.992 14.5151C338.992 16.1494 337.662 17.4789 336.027 17.4789Z" fill="white"/>
</g>
<defs>
<clipPath id="clip0_35_150">
<rect width="588" height="372" fill="white"/>
</clipPath>
</defs>
</svg>
