<svg width="154" height="161" viewBox="0 0 154 161" fill="none" xmlns="http://www.w3.org/2000/svg">
<g clip-path="url(#clip0_95_479)">
<path d="M91.0395 18.1455C91.0253 18.2247 91.0083 18.3095 90.9828 18.4C90.1075 19.1888 89.354 19.7486 89.0735 19.316C87.1104 20.5459 88.0792 21.4987 89.1075 22.4205C89.6826 22.9322 90.2746 23.4383 90.3823 23.9755C90.6429 25.2817 90.3568 26.6388 89.8979 27.8856C88.8582 30.7017 86.9121 33.1756 84.4164 34.8493C85.8583 32.8165 89.4446 29.3954 87.3115 28.1034C86.2804 27.4785 78.7082 27.8178 78.0793 27.1703C74.7423 23.7408 83.1246 19.1916 82.8243 17.6055C82.8158 17.5461 82.8016 17.4924 82.7847 17.4387C81.728 14.0657 84.6345 13.5738 86.8838 10.8426C86.9376 10.7775 86.9914 10.7153 87.048 10.656C87.6911 9.96328 88.507 9.56461 89.4163 9.3667C90.8355 10.8426 90.8497 13.4635 90.2095 14.2551C90.9064 15.5076 91.2548 16.8421 91.0395 18.1455Z" fill="#2F2E41"/>
<path d="M113.997 106.868H112.211V160.77H113.997V106.868Z" fill="#6C63FF"/>
<path d="M119.763 0.371278C118.477 -0.559992 116.245 0.320999 114.779 2.33909C114.137 3.22248 113.748 4.17731 113.622 5.04986L112.793 6.22109L100.925 21.6326C100.925 21.6326 87.8347 31.7723 86.7222 34.0879C85.6097 36.4034 86.9964 38.4639 86.9964 38.4639L89.623 39.6912L107.429 23.6276L116.003 9.56352L117.216 7.65135C118.008 7.26035 118.796 6.59492 119.438 5.7115C120.905 3.69345 121.05 1.30255 119.763 0.371278Z" fill="#A0616A"/>
<path d="M68.7949 54.7231L69.5669 68.7846H91.3657L90.8665 54.7231H68.7949Z" fill="#A0616A"/>
<path d="M62.4844 94.7104L67.4494 126.245L62.6311 149.931H68.3605L76.8565 124.719L76.5732 95.8822L62.4844 94.7104Z" fill="#A0616A"/>
<path d="M94.1905 94.7104L84.5044 156.23H79.5088L79.8209 124.456L80.1016 95.8822L94.1905 94.7104Z" fill="#A0616A"/>
<path d="M91.3965 66.4411C83.2514 69.5454 75.6137 69.6602 69.0892 63.2187C69.3331 56.4309 67.5647 51.5871 65.4202 47.1066L65.2734 33.338L73.6387 28.0649H87.0377L87.065 28.0808C88.6628 29.0127 90.5994 29.1563 92.3022 28.4328C92.4533 28.3686 92.5519 28.3383 92.5706 28.3579C95.0954 31.0036 93.6315 36.5851 93.1623 40.331L92.1303 48.5713C91.0989 51.8034 90.8941 63.0376 91.3965 66.4411Z" fill="#6C63FF"/>
<path d="M69.089 63.2188L67.3279 70.2495C67.3279 70.2495 58.5224 85.1898 62.9252 100.423L77.0627 105.096L78.0413 91.4882L79.6554 105.096C79.6554 105.096 90.6626 103.499 94.4783 99.6908C94.4783 99.6908 97.4135 79.7703 93.3042 71.8607L91.3964 65.5623C91.3964 65.5623 79.2154 68.9312 69.089 63.2188Z" fill="#2F2E41"/>
<path d="M88.1003 33.5655C88.1003 33.5655 90.2532 38.5041 93.1392 37.2161C99.2341 35.9837 107.428 23.6274 107.428 23.6274L99.0273 23.0845L88.4606 31.58C88.0742 32.0252 87.8778 33.0199 88.1003 33.5655Z" fill="#6C63FF"/>
<path d="M96.5964 157.613C96.7547 157.88 96.8383 158.739 96.8383 159.048C96.8383 159.999 96.0656 160.77 95.1125 160.77H79.3655C78.7153 160.77 78.1882 160.244 78.1882 159.595V158.941C78.1882 158.941 77.4092 156.974 79.013 154.551C79.013 154.551 81.0063 156.449 83.9848 153.476L84.8631 151.888L91.2211 156.529L94.7452 156.962C95.5162 157.056 96.1998 156.947 96.5964 157.613Z" fill="#2F2E41"/>
<path d="M77.7377 158.185C77.7783 158.492 77.5164 159.315 77.3943 159.599C77.0192 160.474 76.0047 160.879 75.1285 160.505L60.6527 154.318C60.055 154.063 59.7779 153.372 60.0338 152.776L60.2919 152.174C60.2919 152.174 60.3513 150.06 62.7816 148.462C62.7816 148.462 63.8655 150.99 67.776 149.427L69.2097 148.312L73.2242 155.076L76.2931 156.859C76.9645 157.249 77.6361 157.417 77.7377 158.185Z" fill="#2F2E41"/>
<path d="M63.9167 84.9972C65.5061 85.0008 66.7992 82.983 66.8049 80.4901C66.8073 79.3989 66.5626 78.3976 66.1535 77.6163L66.1387 76.1825L66.7258 56.7536C66.7258 56.7536 71.3947 40.886 70.939 38.3585C70.4834 35.8311 68.1508 34.9702 68.1508 34.9702L65.3013 35.5092L60.2822 58.9347L61.5756 75.3474L61.7134 77.6063C61.3007 78.3857 61.0515 79.3859 61.0491 80.4771C61.0434 82.9699 62.3273 84.9936 63.9167 84.9972Z" fill="#A0616A"/>
<path d="M70.5566 31.8729C70.5566 31.8729 64.9798 31.5799 63.8057 34.5094C62.6316 37.4389 61.6924 52.3546 61.6924 52.3546L69.6761 47.1062C71.3949 42.5886 72.7686 37.9395 71.4372 32.2594L70.5566 31.8729Z" fill="#6C63FF"/>
<path d="M91.0394 18.1458C91.0252 18.225 91.0082 18.3098 90.9827 18.4003C90.9147 18.6773 90.7958 19.0025 90.6428 19.3616C90.1527 20.5151 89.6513 21.5358 89.1074 22.4207C87.9516 24.3065 86.6174 25.576 84.844 26.1895C83.4304 26.6815 81.7364 26.755 79.6316 26.3903L79.2124 26.3168L76.3031 25.8135C75.6685 23.7298 74.1133 21.516 73.0198 17.2948C72.5581 15.5192 73.4419 15.0923 73.6062 13.2659C74.0736 8.05511 76.6628 6.53118 79.7789 8.79303C81.1075 7.46702 84.3681 8.53291 87.0479 10.6562C88.3227 11.6628 89.4643 12.9124 90.2094 14.2554C90.9063 15.5079 91.2547 16.8424 91.0394 18.1458Z" fill="#2F2E41"/>
<path d="M82.4536 25.4305C86.6478 25.4305 90.0479 22.037 90.0479 17.851C90.0479 13.6649 86.6478 10.2715 82.4536 10.2715C78.2594 10.2715 74.8594 13.6649 74.8594 17.851C74.8594 22.037 78.2594 25.4305 82.4536 25.4305Z" fill="#A0616A"/>
<path d="M73.2783 5.42749C75.6011 5.7615 77.2128 7.91161 76.8781 10.2299C76.5435 12.5482 74.3892 14.1568 72.0664 13.8228C69.7436 13.4887 67.61 9.85826 69.8685 9.22194C72.5535 8.46544 70.9555 5.09348 73.2783 5.42749Z" fill="#2F2E41"/>
<path d="M0 160.651C0 160.845 0.155573 161 0.349304 161H153.651C153.844 161 154 160.845 154 160.651C154 160.458 153.844 160.303 153.651 160.303H0.349304C0.155573 160.303 0 160.458 0 160.651Z" fill="#CCCCCC"/>
<path d="M43.5779 106.868H41.792V160.77H43.5779V106.868Z" fill="#6C63FF"/>
<path d="M42.709 106.282C43.1879 106.282 43.5762 106.669 43.5762 107.147V129.651C43.5762 130.129 43.1879 130.516 42.709 130.516C42.2301 130.516 41.8418 130.129 41.8418 129.651V107.147C41.8418 106.669 42.2301 106.282 42.709 106.282ZM47.045 118.399C47.045 117.921 47.4332 117.533 47.9122 117.533H57.9595L54.2358 113.819C53.8967 113.48 53.8967 112.931 54.2358 112.593C54.5749 112.255 55.1246 112.255 55.4637 112.593L60.6669 117.786C61.006 118.124 61.0067 118.672 60.6684 119.01L60.6669 119.012L55.4637 124.205C55.1246 124.543 54.5749 124.543 54.2358 124.205C53.8967 123.866 53.8967 123.318 54.2358 122.979L57.9595 119.264H47.9122C47.4332 119.264 47.045 118.877 47.045 118.399Z" fill="#3F3D56"/>
<path d="M113.947 107.147V129.651C113.947 130.129 113.559 130.516 113.08 130.516C112.601 130.516 112.213 130.129 112.213 129.651V107.147C112.213 106.669 112.601 106.282 113.08 106.282C113.559 106.282 113.947 106.669 113.947 107.147ZM107.877 119.264H97.8293L101.553 122.979C101.892 123.318 101.892 123.866 101.553 124.205C101.214 124.543 100.664 124.543 100.325 124.205L95.122 119.012L95.1204 119.01C94.7822 118.672 94.7829 118.124 95.122 117.786L100.325 112.593C100.664 112.255 101.214 112.255 101.553 112.593C101.892 112.931 101.892 113.48 101.553 113.819L97.8293 117.533H107.877C108.356 117.533 108.744 117.921 108.744 118.399C108.744 118.877 108.356 119.264 107.877 119.264Z" fill="#3F3D56"/>
<path d="M21.3704 92.2785H31.4147C31.668 92.2785 31.8739 92.0728 31.8739 91.8201C31.8739 91.5674 31.668 91.3618 31.4147 91.3618H21.3704C21.1172 91.3618 20.9111 91.5674 20.9111 91.8201C20.9111 92.0728 21.1172 92.2785 21.3704 92.2785Z" fill="#F2F2F2"/>
<path d="M31.4147 101.136H21.3704C21.1172 101.136 20.9111 101.341 20.9111 101.594C20.9111 101.847 21.1172 102.052 21.3704 102.052H31.4147C31.668 102.052 31.8739 101.847 31.8739 101.594C31.8739 101.341 31.668 101.136 31.4147 101.136Z" fill="#F2F2F2"/>
<path d="M26.4255 114.611H16.3811C16.1279 114.611 15.9219 114.817 15.9219 115.07C15.9219 115.322 16.1279 115.528 16.3811 115.528H26.4255C26.6787 115.528 26.8847 115.322 26.8847 115.07C26.8847 114.817 26.6787 114.611 26.4255 114.611Z" fill="#F2F2F2"/>
<path d="M36.8049 96.252H15.9808C15.7275 96.252 15.5215 96.4575 15.5215 96.7102C15.5215 96.963 15.7275 97.1686 15.9808 97.1686H36.8049C37.0582 97.1686 37.2641 96.963 37.2641 96.7102C37.2641 96.4575 37.0582 96.252 36.8049 96.252Z" fill="#F2F2F2"/>
<path d="M128.504 92.2785H138.549C138.802 92.2785 139.008 92.0728 139.008 91.8201C139.008 91.5674 138.802 91.3618 138.549 91.3618H128.504C128.251 91.3618 128.045 91.5674 128.045 91.8201C128.045 92.0728 128.251 92.2785 128.504 92.2785Z" fill="#F2F2F2"/>
<path d="M138.549 101.136H128.504C128.251 101.136 128.045 101.341 128.045 101.594C128.045 101.847 128.251 102.052 128.504 102.052H138.549C138.802 102.052 139.008 101.847 139.008 101.594C139.008 101.341 138.802 101.136 138.549 101.136Z" fill="#F2F2F2"/>
<path d="M133.559 114.611H123.515C123.262 114.611 123.056 114.817 123.056 115.07C123.056 115.322 123.262 115.528 123.515 115.528H133.559C133.813 115.528 134.018 115.322 134.018 115.07C134.018 114.817 133.813 114.611 133.559 114.611Z" fill="#F2F2F2"/>
<path d="M143.939 96.252H123.115C122.861 96.252 122.655 96.4575 122.655 96.7102C122.655 96.963 122.861 97.1686 123.115 97.1686H143.939C144.192 97.1686 144.398 96.963 144.398 96.7102C144.398 96.4575 144.192 96.252 143.939 96.252Z" fill="#F2F2F2"/>
<path d="M90.2097 14.2553C90.1418 14.3429 90.0624 14.4079 89.9775 14.4475C89.1191 14.8349 88.6829 12.8444 88.2778 13.0339C86.663 13.7916 85.0143 16.0789 82.8954 17.5576C82.8699 17.5745 82.8472 17.5915 82.8246 17.6056C81.1306 18.7705 80.3402 18.7224 80.0626 18.6885C79.3912 18.6065 78.7622 19.1972 78.0796 19.8194C77.3888 20.4492 77.1108 22.5082 77.7963 22.9295C78.632 23.4412 78.8445 24.4082 79.2127 26.3166V26.3223C80.1362 31.1089 81.7368 30.026 81.479 30.2805C80.6405 31.1061 79.3969 29.8649 77.2298 30.5632C75.3828 31.157 75.4593 32.3275 73.5471 33.1078C71.516 33.9391 68.754 33.71 68.1647 32.5424C67.5812 31.3831 69.5556 30.142 69.0146 28.3014C68.6237 26.9669 67.397 26.9754 67.0316 25.7568C66.5699 24.2159 68.1733 23.0086 69.2979 20.9504C71.4055 17.0967 68.9976 15.4625 70.7143 11.9029C72.4961 8.21045 72.4287 5.74219 75.9329 6.24829C76.828 6.37834 78.1882 5.50779 78.7753 6.38663C78.9381 6.63038 78.4818 7.26548 80.2429 7.85137C83.178 6.38663 89.0738 9.01057 89.4109 9.35834C89.4137 9.36117 89.4166 9.36398 89.4166 9.36681C90.8358 10.8427 90.85 13.4636 90.2097 14.2553Z" fill="#2F2E41"/>
</g>
<defs>
<clipPath id="clip0_95_479">
<rect width="154" height="161" fill="white"/>
</clipPath>
</defs>
</svg>
