<svg width="474" height="400" viewBox="0 0 474 400" fill="none" xmlns="http://www.w3.org/2000/svg">
<g clip-path="url(#clip0_73_681)">
<path d="M386.036 193.054C386.036 198.675 385.799 204.239 385.327 209.746C384.955 214.044 384.447 218.304 383.804 222.525C383.12 226.995 382.283 231.411 381.291 235.773V235.778C380.642 238.649 379.93 241.496 379.154 244.319C376.903 252.529 374.104 260.577 370.775 268.411C370.051 270.115 369.304 271.808 368.533 273.489C365.617 279.855 362.351 286.055 358.752 292.06C348.657 308.926 336.055 324.157 321.38 337.232C319.791 338.645 318.181 340.034 316.549 341.4C281.899 370.351 238.167 386.179 193.018 386.109C86.4157 386.109 0 299.677 0 193.054C0 86.4319 86.4157 -0.000249169 193.018 -0.000249169C236.612 -0.0690004 278.934 14.69 313.036 41.8534C314.634 43.1203 316.212 44.4157 317.771 45.7396C325.375 52.1897 332.471 59.2154 338.998 66.7544H339.003C369.4 101.801 386.104 146.658 386.036 193.054Z" fill="#F2F2F2"/>
<path d="M56.9788 226.402C38.5916 215.457 24.7137 195.001 26.5154 173.675C43.3258 189.768 65.2853 199.394 88.5088 200.851C97.4671 201.381 107.486 201.037 114.08 207.125C118.184 210.912 120.094 216.615 120.407 222.191C120.72 227.768 119.603 233.314 118.492 238.787L118.875 240.128C97.4774 240.208 75.366 237.348 56.9788 226.402Z" fill="#E6E6E6"/>
<path d="M26.9638 173.653C34.3311 189.762 46.5859 203.139 61.9876 211.886C65.2986 213.739 68.8187 215.332 72.5594 216.07C76.2111 216.762 79.9814 216.463 83.4786 215.205C86.763 214.097 89.9943 212.583 93.4908 212.293C97.1762 211.988 100.588 213.41 103.269 215.901C106.549 218.948 108.538 222.993 110.346 227.016C112.354 231.482 114.368 236.154 118.217 239.366C118.683 239.755 118.052 240.456 117.587 240.067C110.89 234.479 109.797 225.12 104.444 218.538C101.946 215.467 98.5082 213.13 94.4236 213.191C90.8519 213.245 87.5184 214.803 84.2026 215.954C80.7209 217.162 77.2331 217.729 73.5574 217.198C69.7974 216.654 66.2077 215.196 62.8638 213.435C55.3109 209.386 48.4415 204.173 42.5074 197.99C35.6957 190.97 30.1349 182.836 26.0654 173.94C25.8138 173.389 26.7138 173.105 26.9638 173.653Z" fill="white"/>
<path d="M56.8624 209.361C55.0444 211.747 52.4379 213.408 49.5083 214.049C46.5788 214.689 43.5169 214.267 40.8695 212.859C40.3348 212.572 40.7555 211.727 41.2909 212.014C43.7537 213.331 46.6059 213.723 49.3327 213.121C52.0595 212.519 54.4812 210.962 56.1609 208.731C56.5265 208.246 57.2259 208.88 56.8624 209.361Z" fill="white"/>
<path d="M81.887 215.986C81.1219 209.902 78.0924 204.331 73.4027 200.383C72.9378 199.992 73.5687 199.291 74.0331 199.681C78.9056 203.799 82.0464 209.603 82.8287 215.935C82.9028 216.539 81.9607 216.586 81.887 215.986Z" fill="white"/>
<path d="M36.865 190.527C37.7606 189.751 38.4495 188.764 38.8697 187.655C39.2899 186.547 39.4283 185.352 39.2724 184.176C39.1907 183.574 40.1329 183.528 40.2141 184.126C40.3803 185.425 40.2259 186.745 39.7643 187.971C39.3028 189.197 38.5482 190.291 37.5664 191.157C37.4807 191.247 37.3642 191.3 37.2405 191.307C37.1168 191.314 36.9952 191.273 36.9005 191.193C36.8081 191.109 36.7525 190.992 36.7458 190.867C36.7391 190.743 36.782 190.62 36.865 190.527Z" fill="white"/>
<path d="M86.0331 132.361C86.0949 132.736 86.1566 133.11 86.2255 133.488C87.0817 138.521 88.3453 143.476 90.0039 148.305C90.1262 148.68 90.2557 149.059 90.3886 149.43C94.5083 161.019 100.744 171.743 108.777 181.056C111.978 184.759 115.455 188.213 119.179 191.389C124.323 195.774 130.248 200.119 133.546 205.78C133.897 206.367 134.211 206.975 134.486 207.601L120.48 239.558C120.412 239.614 120.351 239.674 120.282 239.731L119.781 241.033C119.578 240.883 119.37 240.722 119.166 240.572C119.048 240.485 118.933 240.391 118.814 240.305C118.736 240.245 118.659 240.184 118.585 240.134C118.559 240.114 118.533 240.094 118.514 240.077C118.44 240.028 118.377 239.974 118.311 239.927C117.146 239.034 115.986 238.132 114.831 237.219C114.823 237.216 114.823 237.216 114.819 237.206C106.031 230.232 97.7471 222.463 90.9059 213.683C90.7001 213.419 90.487 213.151 90.2876 212.873C87.2259 208.898 84.494 204.68 82.1194 200.26C80.8269 197.836 79.6579 195.347 78.617 192.805C75.9399 186.23 74.3135 179.275 73.7973 172.195C72.7704 158.081 76.2681 143.795 85.3326 133.166C85.5647 132.894 85.7937 132.629 86.0331 132.361Z" fill="#E6E6E6"/>
<path d="M86.407 132.61C82.5924 149.909 84.3244 167.97 91.3569 184.228C92.8848 187.702 94.7369 191.093 97.2791 193.935C99.7783 196.687 102.969 198.719 106.518 199.82C109.808 200.913 113.299 201.651 116.265 203.524C119.392 205.5 121.26 208.69 121.901 212.293C122.685 216.701 121.839 221.129 120.861 225.429C119.775 230.205 118.572 235.148 119.711 240.03C119.849 240.622 118.923 240.801 118.786 240.211C116.803 231.716 121.564 223.585 121.252 215.106C121.106 211.15 119.768 207.214 116.469 204.803C113.585 202.695 109.986 201.932 106.646 200.854C103.138 199.722 100.012 198.075 97.3972 195.437C94.7223 192.739 92.7337 189.413 91.1237 185.993C87.5308 178.212 85.1836 169.913 84.1679 161.402C82.9549 151.695 83.4111 141.852 85.5166 132.299C85.6472 131.708 86.5367 132.023 86.407 132.61Z" fill="white"/>
<path d="M88.7846 179.127C85.8972 179.936 82.816 179.693 80.0912 178.441C77.3665 177.188 75.1757 175.007 73.91 172.288C73.6557 171.737 74.5 171.316 74.7545 171.868C75.9285 174.402 77.9694 176.433 80.5091 177.595C83.0487 178.756 85.9198 178.971 88.604 178.201C89.1875 178.034 89.3648 178.961 88.7846 179.127Z" fill="white"/>
<path d="M104.778 199.485C107.829 194.167 108.764 187.894 107.396 181.918C107.26 181.326 108.186 181.146 108.322 181.737C109.733 187.959 108.747 194.485 105.56 200.012C105.256 200.539 104.475 200.009 104.778 199.485Z" fill="white"/>
<path d="M84.1553 152.046C85.3377 151.966 86.4817 151.593 87.4844 150.961C88.4872 150.329 89.3173 149.457 89.9002 148.425C90.1975 147.895 90.9778 148.425 90.6824 148.952C90.0331 150.09 89.1151 151.051 88.0088 151.751C86.9025 152.452 85.6414 152.871 84.3358 152.972C84.2136 152.992 84.0883 152.964 83.9856 152.895C83.8829 152.826 83.8103 152.72 83.7827 152.599C83.7594 152.477 83.7855 152.35 83.8553 152.246C83.925 152.142 84.0328 152.071 84.1553 152.046Z" fill="white"/>
<path d="M133.705 44.7444L157.33 321.352L110.081 324.905V48.2636C115.711 44.5374 123.793 43.9545 133.705 44.7444Z" fill="#CCCCCC"/>
<path d="M250.32 44.7444L226.695 321.352L273.944 324.905V48.2636C268.314 44.5374 260.232 43.9545 250.32 44.7444Z" fill="#CCCCCC"/>
<path d="M266.87 336.338H116.653C114.244 336.335 111.935 335.376 110.231 333.673C108.528 331.969 107.57 329.66 107.567 327.25V52.3233C107.57 49.9141 108.528 47.6044 110.231 45.9009C111.935 44.1973 114.244 43.2391 116.653 43.2363H266.87C269.279 43.2391 271.588 44.1973 273.291 45.9009C274.994 47.6044 275.953 49.9141 275.955 52.3233V327.25C275.953 329.66 274.995 331.969 273.291 333.673C271.588 335.376 269.279 336.335 266.87 336.338ZM116.653 46.2528C115.043 46.2546 113.501 46.8947 112.363 48.0328C111.225 49.1708 110.585 50.7139 110.583 52.3233V327.25C110.585 328.86 111.225 330.403 112.363 331.541C113.501 332.679 115.043 333.319 116.653 333.321H266.87C268.479 333.319 270.022 332.679 271.16 331.541C272.298 330.403 272.938 328.86 272.939 327.25V52.3233C272.938 50.7139 272.298 49.1709 271.16 48.0328C270.022 46.8947 268.479 46.2546 266.87 46.2528L116.653 46.2528Z" fill="#CCCCCC"/>
<path d="M274.447 88.9863H109.075V92.0028H274.447V88.9863Z" fill="#CCCCCC"/>
<path d="M274.447 139.261H109.075V142.277H274.447V139.261Z" fill="#CCCCCC"/>
<path d="M162.74 44.7446H159.724V181.994H162.74V44.7446Z" fill="#CCCCCC"/>
<path d="M223.798 44.7446H220.782V181.994H223.798V44.7446Z" fill="#CCCCCC"/>
<path d="M293.297 344.633H95.2522C91.6528 344.633 88.2008 343.203 85.6557 340.657C83.1105 338.111 81.6807 334.659 81.6807 331.059C81.6807 327.458 83.1105 324.006 85.6557 321.46C88.2008 318.915 91.6528 317.484 95.2522 317.484H293.297C296.896 317.484 300.348 318.915 302.893 321.46C305.438 324.006 306.868 327.458 306.868 331.059C306.868 334.659 305.438 338.111 302.893 340.657C300.348 343.203 296.896 344.633 293.297 344.633Z" fill="#CCCCCC"/>
<path d="M274.447 174.956H110.081V185.011H274.447V174.956Z" fill="#CCCCCC"/>
<path d="M163.208 206.956L163 206.855C151.795 201.441 137.122 201.446 115.422 206.873L115.19 206.931L115.121 206.702C112.825 199.174 110.225 190.647 115.11 186.452C115.179 174.142 125.975 164.146 139.235 164.146C152.493 164.146 163.288 174.137 163.36 186.444C170.627 192.001 167.164 200.213 163.326 206.756L163.208 206.956Z" fill="#2F2E41"/>
<path d="M232.077 180.597C231.876 181.594 231.459 182.536 230.855 183.355C230.251 184.173 229.475 184.85 228.581 185.336C227.688 185.823 226.698 186.107 225.683 186.17C224.667 186.232 223.651 186.071 222.704 185.698L183.107 225.498L179.574 213.14L218.901 176.181C219.633 174.632 220.908 173.405 222.483 172.733C224.059 172.062 225.826 171.991 227.45 172.536C229.074 173.08 230.442 174.201 231.295 175.687C232.148 177.173 232.426 178.92 232.077 180.597Z" fill="#FFB6B6"/>
<path d="M134.212 218.912C134.212 218.912 130.619 227.055 139.484 232.077C148.348 237.098 179.33 230.16 184.357 229.192C189.384 228.223 208.16 200.119 208.16 200.119L205.505 186.336L180.604 207.957L134.212 218.912Z" fill="#6C63FF"/>
<path d="M127.673 263.942L128.176 273.494C128.176 273.494 126.693 281.956 127.913 283.782C129.124 285.599 162.169 285.828 162.169 285.828C162.169 285.828 164.352 274.055 166.233 263.751L127.673 263.942Z" fill="#FFB6B6"/>
<path d="M222.681 390.243L229.59 388.847L227.612 360.938L217.417 362.997L222.681 390.243Z" fill="#FFB6B6"/>
<path d="M232.577 353.923L238.999 351.034L230.668 324.331L221.189 328.594L232.577 353.923Z" fill="#FFB6B6"/>
<path d="M238.171 338.876L226.078 345.725L196.255 297.792C175.319 311.899 154.846 318.655 134.207 322.261C127.23 323.503 120.115 322.874 118.776 315.77C118.713 315.438 118.663 315.104 118.626 314.768C117.802 307.009 127.452 297.064 128.678 287.571L155.088 285.985L158.344 290.162L188.886 271.381C195.028 267.604 203.107 269.647 206.93 275.944C207.131 276.276 207.319 276.617 207.492 276.966L238.171 338.876Z" fill="#2F2E41"/>
<path d="M230.77 371.121L216.933 372.407L191.844 321.086C166.965 325.366 143.494 326.737 123.193 321.56C116.319 319.831 112.117 312.732 113.808 305.704C113.887 305.376 113.978 305.051 114.082 304.729C116.512 297.315 122.872 292.069 127.883 283.914L164.484 284.47L160.396 298.578L195.952 293.976C203.102 293.051 209.632 298.227 210.538 305.538C210.585 305.924 210.617 306.312 210.631 306.701L230.77 371.121Z" fill="#2F2E41"/>
<path d="M141.965 199.659C150.173 199.659 156.827 193.004 156.827 184.794C156.827 176.585 150.173 169.929 141.965 169.929C133.757 169.929 127.103 176.585 127.103 184.794C127.103 193.004 133.757 199.659 141.965 199.659Z" fill="#FFB6B6"/>
<path d="M133.252 205.026L146.879 206.629C147.454 206.697 147.993 206.942 148.422 207.331C148.851 207.72 149.147 208.232 149.271 208.798L151.438 218.717L164.948 234.629C164.948 234.629 169.799 243.726 167.98 254.037C166.161 264.348 165.361 272.009 165.361 272.009C165.361 272.009 129.122 285.599 127.909 283.78C126.696 281.96 126.303 273.695 126.303 273.695L121.452 219.716C121.452 219.716 126.909 210.618 129.941 210.618C131.898 210.552 131.647 206.147 133.252 205.026Z" fill="#6C63FF"/>
<path d="M165.729 275.328C167.64 275.328 169.189 273.469 169.189 271.175C169.189 268.881 167.64 267.022 165.729 267.022C163.818 267.022 162.269 268.881 162.269 271.175C162.269 273.469 163.818 275.328 165.729 275.328Z" fill="#6C63FF"/>
<path d="M219.253 383.057L229.785 377.777L231.77 382.409L245.089 385.102C245.747 385.235 246.345 385.575 246.796 386.072C247.247 386.569 247.527 387.197 247.596 387.864C247.665 388.532 247.519 389.204 247.179 389.783C246.838 390.362 246.322 390.816 245.705 391.081L232.837 396.598L228.655 392.967L229.753 397.92L224.901 400L219.253 383.057Z" fill="#2F2E41"/>
<path d="M229.562 351.701L240 346.237L242.067 350.833L255.43 353.291C256.09 353.412 256.694 353.742 257.154 354.231C257.614 354.72 257.905 355.343 257.986 356.009C258.067 356.676 257.932 357.35 257.602 357.935C257.272 358.519 256.764 358.983 256.152 359.258L243.383 365.001L239.138 361.444L240.322 366.377L235.508 368.542L229.562 351.701Z" fill="#2F2E41"/>
<path d="M133.473 180.132C129.547 180.138 125.715 178.929 122.503 176.67L122.396 176.595V176.464C122.4 172.665 123.91 169.023 126.596 166.337C129.282 163.651 132.923 162.14 136.721 162.136H142.753C146.551 162.14 150.192 163.651 152.878 166.337C155.563 169.023 157.074 172.665 157.078 176.464C157.074 177.333 156.731 178.167 156.122 178.787C155.512 179.407 154.685 179.765 153.816 179.784L133.812 180.129C133.7 180.131 133.586 180.132 133.473 180.132Z" fill="#2F2E41"/>
<path d="M158.083 173.712C160.007 172.602 160.328 169.557 158.801 166.912C157.274 164.267 154.478 163.023 152.554 164.134C150.631 165.244 150.31 168.289 151.836 170.934C153.363 173.579 156.16 174.823 158.083 173.712Z" fill="#2F2E41"/>
<path d="M128.003 170.761C130.163 168.602 130.64 165.578 129.07 164.007C127.499 162.436 124.476 162.914 122.316 165.073C120.157 167.233 119.68 170.257 121.25 171.828C122.821 173.399 125.844 172.921 128.003 170.761Z" fill="#2F2E41"/>
<path d="M259.538 306.675H244.703C244.368 306.675 244.038 306.747 243.734 306.887C243.43 307.028 243.161 307.233 242.944 307.488C242.397 307.388 241.834 307.418 241.301 307.578C240.768 307.737 240.28 308.021 239.878 308.405C239.476 308.789 239.171 309.264 238.987 309.789C238.804 310.314 238.748 310.876 238.823 311.427C238.899 311.978 239.104 312.504 239.422 312.96C239.74 313.417 240.162 313.792 240.652 314.054C241.143 314.316 241.689 314.457 242.245 314.467C242.802 314.477 243.352 314.355 243.852 314.111L245.082 318.11C245.228 318.584 245.522 318.999 245.921 319.293C246.32 319.588 246.802 319.747 247.298 319.747H256.943C257.439 319.747 257.921 319.588 258.32 319.293C258.719 318.999 259.012 318.584 259.158 318.11L261.753 309.676C261.86 309.329 261.884 308.962 261.823 308.604C261.762 308.247 261.618 307.908 261.402 307.616C261.187 307.325 260.906 307.087 260.582 306.924C260.258 306.76 259.9 306.675 259.538 306.675ZM242.319 313.462C241.652 313.462 241.013 313.198 240.541 312.726C240.07 312.255 239.805 311.615 239.805 310.949C239.805 310.282 240.07 309.643 240.541 309.171C241.013 308.7 241.652 308.435 242.319 308.435C242.364 308.435 242.407 308.446 242.453 308.448C242.353 308.853 242.365 309.277 242.488 309.676L243.549 313.127C243.175 313.344 242.751 313.46 242.319 313.462Z" fill="#3F3D56"/>
<path d="M193.296 295.762C192.283 295.856 191.261 295.726 190.304 295.383C189.346 295.039 188.476 294.489 187.754 293.773C187.031 293.056 186.475 292.19 186.124 291.235C185.773 290.28 185.635 289.259 185.721 288.245L136.24 261.725L147.063 254.794L193.745 281.871C195.439 282.128 196.979 282.997 198.075 284.314C199.17 285.631 199.745 287.304 199.689 289.016C199.634 290.729 198.952 292.361 197.774 293.604C196.596 294.848 195.002 295.615 193.296 295.762Z" fill="#FFB6B6"/>
<path d="M128.519 212.987C128.519 212.987 119.689 211.881 117.423 221.815C115.157 231.75 130.691 259.444 133.061 263.983C135.431 268.521 167.735 278.448 167.735 278.448L180.174 271.95L152.322 254.294L128.519 212.987Z" fill="#6C63FF"/>
<path d="M190.756 171.939H193.772C195.238 171.939 196.644 172.522 197.681 173.559C198.718 174.596 199.301 176.003 199.301 177.47H185.227C185.227 176.003 185.809 174.596 186.846 173.559C187.883 172.522 189.289 171.939 190.756 171.939Z" fill="#CCCCCC"/>
<path d="M95.1226 68.7586C111.624 68.7586 125.001 55.379 125.001 38.8744C125.001 22.3698 111.624 8.99023 95.1226 8.99023C78.6212 8.99023 65.2441 22.3698 65.2441 38.8744C65.2441 55.379 78.6212 68.7586 95.1226 68.7586Z" fill="#FF6584"/>
<path d="M186.603 37.3166C178.696 29.0201 169.512 21.4514 158.641 17.4519C155.612 16.333 152.472 15.5438 149.275 15.0978C149.249 15.0943 149.225 15.0995 149.199 15.0975C149.147 15.0841 149.095 15.0737 149.042 15.0664C144.57 14.4966 140.031 14.7707 135.66 15.8745C133.522 16.4109 131.437 17.1375 129.429 18.0454C127.414 19.0287 125.462 20.1355 123.583 21.3594C119.606 23.7403 115.228 25.374 110.663 26.18C108.372 26.5925 106.052 26.8203 103.724 26.8612C101.705 26.9017 99.8004 26.9719 97.887 27.7016C95.8431 28.4703 94.0072 29.7062 92.5256 31.3107C91.0441 32.9151 89.9581 34.8437 89.3541 36.9426C89.3075 37.1295 89.3216 37.3264 89.3942 37.5048C89.4667 37.6832 89.5941 37.8339 89.7579 37.9352C90.2755 38.306 90.7801 38.7266 91.3239 39.0569C91.8077 39.2784 92.3243 39.4194 92.8535 39.4742C93.7181 39.6567 94.5838 39.8338 95.4506 40.0056C98.6438 40.6384 101.85 41.1986 105.07 41.6861C111.585 42.6726 118.135 43.3674 124.721 43.7707C137.913 44.57 151.151 44.172 164.272 42.5818C171.646 41.6885 178.97 40.4215 186.215 38.7857C186.362 38.7428 186.495 38.6627 186.602 38.5532C186.708 38.4437 186.785 38.3085 186.824 38.1607C186.863 38.0129 186.863 37.8575 186.824 37.7096C186.786 37.5617 186.71 37.4263 186.603 37.3166Z" fill="#E6E6E6"/>
<path d="M96.5406 57.2976C93.5124 56.1787 90.3723 55.3895 87.175 54.9436C87.1493 54.94 87.1249 54.9452 87.0994 54.9432C87.0474 54.9298 86.9946 54.9194 86.9414 54.9121C82.4696 54.3423 77.9306 54.6164 73.5597 55.7202C71.4223 56.2567 69.3371 56.9832 67.3291 57.8911C65.3139 58.8744 63.3614 59.9812 61.4826 61.2051C57.5059 63.586 53.1274 65.2197 48.5632 66.0257C46.2722 66.4382 43.9518 66.666 41.6243 66.7069C39.6048 66.7474 37.7003 66.8176 35.7869 67.5473C33.743 68.316 31.9071 69.5519 30.4256 71.1564C28.944 72.7608 27.858 74.6894 27.254 76.7882C27.2074 76.9751 27.2215 77.172 27.2941 77.3504C27.3666 77.5288 27.494 77.6796 27.6578 77.7808C28.1754 78.1516 28.68 78.5723 29.2238 78.9026C29.7076 79.1241 30.2243 79.265 30.7534 79.3199C31.618 79.5023 32.4837 79.6795 33.3505 79.8513C36.5437 80.4841 39.7502 81.0443 42.97 81.5318C49.485 82.5182 56.0353 83.2131 62.6207 83.6164C75.8133 84.4156 89.0511 84.0177 102.172 82.4275C109.546 81.5342 116.87 80.2672 124.115 78.6314C124.262 78.5885 124.395 78.5084 124.502 78.3989C124.608 78.2894 124.685 78.1542 124.724 78.0064C124.763 77.8585 124.763 77.7032 124.724 77.5553C124.686 77.4074 124.609 77.272 124.503 77.1623C116.596 68.8658 107.412 61.2971 96.5406 57.2976Z" fill="#E6E6E6"/>
<path d="M312.007 280.08L289.029 249.889L270.9 260.142L309.318 305.772L312.007 280.08Z" fill="#3F3D56"/>
<path d="M364.935 231.002C365.445 243.654 367.405 256.206 370.775 268.411C370.052 270.116 369.304 271.808 368.534 273.489C365.617 279.855 362.352 286.055 358.752 292.061C348.657 308.926 336.055 324.158 321.38 337.232C319.792 338.645 318.181 340.034 316.549 341.4C307.245 328.57 302.224 314.413 300.238 299.843C299.987 297.993 299.781 296.123 299.625 294.263V294.253C299.244 289.732 299.121 285.193 299.258 280.658C299.263 280.296 299.273 279.929 299.288 279.562C299.464 274.716 299.902 269.859 300.56 265.048V265.043C300.635 264.49 300.711 263.937 300.796 263.384C301.038 261.725 301.309 260.066 301.606 258.417C303.332 248.906 305.74 239.533 308.814 230.369V230.364C308.899 230.097 308.985 229.836 309.08 229.574C309.412 228.579 309.749 227.593 310.095 226.608C310.117 226.531 310.144 226.455 310.176 226.382C310.623 225.095 311.081 223.818 311.548 222.551C311.674 222.199 311.804 221.847 311.94 221.495C312.468 220.082 313.006 218.68 313.554 217.297C313.725 216.855 313.9 216.412 314.076 215.975C314.212 215.638 314.343 215.301 314.484 214.97V214.965C315.283 212.989 316.092 211.051 316.911 209.153C319.208 203.814 321.571 198.791 323.873 194.161L323.878 194.156C333.433 174.986 342.119 162.538 342.119 162.538L374.736 173.096C370.846 179.998 367.835 190.179 366.186 202.19C364.916 211.736 364.497 221.377 364.935 230.997L364.935 231.002Z" fill="#3F3D56"/>
<path d="M310.724 227.93C310.533 227.483 310.316 227.046 310.095 226.608C308.949 224.388 307.473 222.354 305.717 220.575C305.456 220.309 305.184 220.042 304.903 219.791C301.875 217.002 298.193 215.021 294.198 214.031C290.202 213.042 286.021 213.076 282.042 214.13L282.022 214.14L281.871 214.18L281.907 214.351C282.057 215.148 282.276 215.93 282.56 216.689C282.635 216.895 282.721 217.091 282.806 217.287C282.842 217.378 282.887 217.458 282.927 217.549C282.927 217.549 282.922 217.554 282.932 217.554C282.932 217.559 282.937 217.564 282.937 217.569C283.033 217.755 283.123 217.946 283.224 218.127C283.017 217.931 282.821 217.73 282.63 217.524C282.444 217.332 282.274 217.131 282.103 216.93C281.517 216.247 280.987 215.517 280.519 214.748L280.439 214.613L280.298 214.668C278.401 215.325 276.592 216.212 274.91 217.307L274.729 217.428C273.444 218.271 271.997 218.835 270.481 219.083C268.965 219.331 267.413 219.257 265.927 218.866C263.585 218.262 261.142 218.151 258.755 218.542C256.368 218.932 254.087 219.815 252.059 221.133C250.716 222.009 249.501 223.069 248.45 224.28C248.36 224.386 248.269 224.497 248.179 224.602C247.988 224.833 247.807 225.07 247.631 225.311C245.741 227.837 244.582 230.833 244.278 233.973L244.268 234.089L244.364 234.154C246.064 235.32 247.988 236.121 250.013 236.507C248.741 236.685 247.453 236.717 246.173 236.603H246.168C245.588 236.555 245.01 236.474 244.439 236.362L244.333 236.341H244.328L244.198 236.316L244.218 236.558C244.368 239.629 245.334 242.606 247.018 245.18L247.068 245.25C247.086 245.276 247.103 245.303 247.118 245.33C247.831 246.421 248.425 247.586 248.887 248.804C250.063 251.832 250.321 255.138 249.631 258.311C248.851 261.706 249.11 265.256 250.376 268.501C251.642 271.745 253.856 274.533 256.729 276.501C259.253 278.237 262.194 279.27 265.249 279.492C265.666 279.527 266.088 279.547 266.51 279.547C268.927 279.555 271.319 279.057 273.532 278.084L273.613 278.054L273.633 277.964C274.058 276.59 274.656 275.276 275.412 274.052C275.165 275.017 275.04 276.008 275.04 277.004V277.335L275.327 277.169C275.573 277.024 275.825 276.868 276.051 276.722C277.409 275.835 278.638 274.766 279.705 273.545C280.122 273.062 280.544 272.594 280.987 272.127L280.992 272.122C281.851 271.207 282.761 270.312 283.706 269.457C285.717 267.651 287.868 266.009 290.14 264.545C292.41 263.087 294.784 261.797 297.242 260.684H297.247C297.524 260.554 297.805 260.428 298.082 260.307C299.306 259.774 300.484 259.142 301.605 258.417C301.646 258.392 301.681 258.372 301.716 258.347C306.575 255.164 310.147 250.361 311.797 244.791C313.446 239.221 313.066 233.246 310.724 227.93Z" fill="#6C63FF"/>
<path opacity="0.15" d="M250.459 265.449C250.322 266.061 250.218 266.679 250.148 267.301C249.212 264.343 249.077 261.19 249.755 258.163C249.86 257.7 249.938 257.231 250 256.76C250.928 259.563 251.087 262.564 250.459 265.449Z" fill="black"/>
<path opacity="0.15" d="M250.84 243.641C249.351 243.848 247.841 243.855 246.35 243.663C245.959 242.926 245.622 242.163 245.341 241.378C247.001 242.498 248.872 243.269 250.84 243.641Z" fill="black"/>
<path opacity="0.15" d="M246.231 236.441C245.681 237.847 245.316 239.318 245.144 240.818C244.686 239.39 244.415 237.908 244.339 236.409L244.327 236.168L244.564 236.214C245.115 236.318 245.672 236.393 246.231 236.441Z" fill="black"/>
<path opacity="0.15" d="M252.189 220.984C254.215 219.663 256.494 218.779 258.88 218.389C261.266 217.998 263.708 218.108 266.049 218.714C267.535 219.107 269.088 219.182 270.605 218.934C272.123 218.687 273.571 218.123 274.855 217.278L275.037 217.158C276.717 216.06 278.526 215.172 280.422 214.513L280.567 214.463L280.646 214.594C281.396 215.833 282.305 216.97 283.349 217.975C282.714 216.793 282.27 215.519 282.033 214.199L281.998 214.025L282.17 213.979C285.902 212.991 289.815 212.9 293.589 213.712C297.363 214.525 300.891 216.218 303.886 218.655C306.882 221.091 309.259 224.201 310.823 227.73C312.388 231.26 313.096 235.11 312.89 238.966C312.098 235.822 310.691 232.867 308.749 230.272C306.807 227.676 304.37 225.492 301.578 223.846C298.786 222.199 295.695 221.124 292.485 220.681C289.274 220.238 286.008 220.437 282.874 221.266L282.703 221.311L282.737 221.485C282.975 222.805 283.419 224.079 284.053 225.261C283.009 224.256 282.1 223.12 281.351 221.88L281.271 221.749L281.127 221.799C279.23 222.458 277.422 223.346 275.741 224.445L275.56 224.564C274.275 225.409 272.827 225.973 271.31 226.221C269.792 226.468 268.24 226.393 266.754 226C262.862 224.99 258.741 225.361 255.093 227.051C251.445 228.74 248.496 231.643 246.748 235.264C245.97 234.89 245.216 234.468 244.49 234.002L244.391 233.939L244.403 233.823C244.653 231.236 245.483 228.738 246.831 226.515C248.179 224.292 250.01 222.401 252.189 220.984Z" fill="black"/>
<path d="M439.055 92.5254L438.578 92.2086L438.231 92.6611C435.547 96.0413 433.411 99.823 431.903 103.867C432.111 99.2082 432.925 94.596 434.325 90.1474L434.476 89.6798L434.044 89.4335C428.42 86.2482 422.427 83.763 416.2 82.033L415.521 81.8521C410.748 80.5422 406.305 78.2408 402.481 75.0981C398.658 71.9553 395.539 68.0417 393.329 63.6124C388.194 53.4472 380.081 45.0901 370.073 39.6564C360.066 34.2227 348.639 31.9709 337.319 33.2013H337.314C337.193 33.2113 337.067 33.2264 336.947 33.2415C336.741 33.2616 336.54 33.2867 336.339 33.3119C335.926 33.3672 335.524 33.4225 335.122 33.4828C334.78 33.5331 334.434 33.5884 334.092 33.6487C333.911 33.6739 333.735 33.704 333.559 33.7392C333.383 33.7694 333.202 33.7995 333.026 33.8347H333.021C329.646 34.4732 326.338 35.4242 323.139 36.6752H323.134V36.6802L322.325 36.997C321.49 37.3388 320.663 37.7008 319.842 38.0829C319.656 38.1684 319.475 38.2589 319.289 38.3443C319.238 38.3695 319.183 38.3946 319.133 38.4248C318.605 38.6762 318.082 38.9376 317.565 39.2141C317.489 39.2493 317.414 39.2895 317.338 39.3297L316.856 39.5861C315.795 40.1593 314.753 40.7676 313.729 41.4111C313.644 41.4614 313.564 41.5116 313.478 41.5669C313.388 41.6273 313.292 41.6876 313.202 41.7479C313.146 41.7781 313.091 41.8183 313.036 41.8535C312.88 41.949 312.729 42.0496 312.578 42.1552C312.277 42.3512 311.975 42.5523 311.679 42.7585C311.372 42.9646 311.07 43.1808 310.769 43.3969L310.467 43.6131L310.522 43.9852C310.573 44.2918 310.618 44.5985 310.673 44.9002C310.724 45.2018 310.774 45.4984 310.829 45.795C310.915 46.2928 311.01 46.7855 311.106 47.2631C311.171 47.5798 311.231 47.8915 311.302 48.1982C311.367 48.5149 311.437 48.8316 311.513 49.1484C311.658 49.8019 311.814 50.4354 311.98 51.0588C312.061 51.3705 312.146 51.6822 312.237 51.9889C312.287 52.1749 312.337 52.3609 312.392 52.5419C312.433 52.6676 312.473 52.7933 312.513 52.919C312.523 52.9592 312.533 53.0044 312.548 53.0497C312.559 53.0923 312.573 53.1342 312.588 53.1754C312.644 53.3614 312.699 53.5424 312.754 53.7183C312.784 53.8139 312.815 53.9094 312.85 53.9999C312.92 54.216 312.996 54.4373 313.071 54.6484C313.151 54.8897 313.237 55.131 313.322 55.3673C313.342 55.4277 313.362 55.483 313.383 55.5433C313.398 55.5886 313.413 55.6338 313.433 55.679C313.453 55.7293 313.473 55.7846 313.493 55.8349C313.579 56.0611 313.664 56.2924 313.755 56.5186C313.785 56.5991 313.815 56.6845 313.85 56.765C314.665 58.8131 315.666 60.7821 316.841 62.6471C315.539 61.531 314.286 60.3479 313.081 59.0977C311.221 57.1647 309.507 55.0961 307.954 52.9089C307.828 52.738 307.703 52.562 307.587 52.3861C307.351 52.0492 307.12 51.7124 306.893 51.3705C306.652 51.0186 306.421 50.6516 306.195 50.2896C306.044 50.0483 305.893 49.8019 305.747 49.5606C305.602 49.3294 305.466 49.1031 305.335 48.8719L304.943 48.1982H304.938V48.2032L304.385 48.7461C304.164 48.9624 303.943 49.1785 303.727 49.3947C296.971 56.1934 292.077 64.6162 289.517 73.8533L289.441 74.1298L289.366 74.4164C289.22 74.9292 289.074 75.4269 288.919 75.9347V75.9397C288.768 76.4424 288.607 76.9452 288.436 77.4379C288.28 77.9054 288.119 78.368 287.948 78.8305C287.893 78.9863 287.833 79.1422 287.768 79.2981C287.662 79.5997 287.546 79.8963 287.431 80.198C287.375 80.3337 287.32 80.4745 287.265 80.6102C287.129 80.942 286.993 81.2738 286.858 81.6006C286.838 81.6509 286.812 81.7062 286.787 81.7565C286.747 81.857 286.702 81.9576 286.662 82.0531C286.556 82.2944 286.446 82.5408 286.34 82.7821C286.265 82.9379 286.194 83.0988 286.124 83.2547C286.094 83.3251 286.059 83.3954 286.028 83.4658C285.842 83.868 285.651 84.2652 285.45 84.6574C285.224 85.1199 284.993 85.5824 284.747 86.0349C284.53 86.4572 284.304 86.8694 284.068 87.2817C283.661 88.0107 283.234 88.7346 282.791 89.4385C282.62 89.71 282.45 89.9814 282.274 90.2529C282.233 90.3183 282.193 90.3836 282.153 90.444C282.007 90.6803 281.856 90.9065 281.701 91.1378C281.595 91.2936 281.489 91.4495 281.384 91.6003C281.208 91.8718 281.022 92.1332 280.831 92.3896C280.781 92.47 280.725 92.5455 280.67 92.6209C280.389 93.013 280.107 93.3951 279.821 93.7772C279.811 93.7822 279.811 93.7872 279.806 93.7923C279.795 93.7923 279.796 93.7973 279.79 93.8023C279.665 93.9682 279.539 94.1341 279.408 94.295C279.238 94.5313 279.052 94.7626 278.866 94.9888C278.564 95.3709 278.247 95.758 277.926 96.1351C277.916 96.1451 277.911 96.1552 277.901 96.1602C276.235 98.1174 274.431 99.9521 272.502 101.65C272.467 101.68 272.442 101.711 272.407 101.736C272.135 101.972 271.864 102.208 271.582 102.44C271.467 102.535 271.351 102.631 271.235 102.726C271.044 102.887 270.848 103.048 270.657 103.194C270.635 103.217 270.609 103.237 270.582 103.254C270.411 103.395 270.245 103.525 270.074 103.656C269.868 103.822 269.662 103.978 269.451 104.134C268.456 104.888 267.434 105.6 266.385 106.27C266.229 106.376 266.063 106.482 265.902 106.582C265.807 106.642 265.711 106.703 265.621 106.753C265.239 106.989 264.857 107.221 264.475 107.442C264.093 107.668 263.701 107.884 263.314 108.095C262.484 108.548 261.665 109.02 260.866 109.513C260.464 109.765 260.061 110.016 259.664 110.272C258.086 111.298 256.566 112.396 255.105 113.565C253.645 114.736 252.244 115.979 250.908 117.291C250.742 117.452 250.576 117.617 250.411 117.788C250.079 118.115 249.757 118.447 249.45 118.779C248.958 119.287 248.485 119.809 248.018 120.337C245.553 123.135 243.371 126.169 241.504 129.397C240.566 131.008 239.714 132.668 238.95 134.369C238.372 135.641 237.844 136.943 237.367 138.26C237.05 139.14 236.754 140.028 236.477 140.925C236.341 141.372 236.211 141.825 236.085 142.277C235.658 143.811 235.301 145.359 235.009 146.912C234.773 148.159 234.582 149.408 234.436 150.658C234.361 151.286 234.301 151.915 234.245 152.538C234.116 154.07 234.05 155.604 234.047 157.139C234.038 161.745 234.598 166.334 235.713 170.803C235.959 171.788 236.232 172.769 236.532 173.744C236.683 174.232 236.844 174.714 237.005 175.197C237.412 176.404 237.863 177.598 238.357 178.782C238.654 179.49 238.965 180.194 239.292 180.893C241.368 185.336 244.018 189.487 247.173 193.241C247.691 193.859 248.226 194.467 248.777 195.066C248.782 195.066 248.777 195.071 248.777 195.071C250.145 196.563 251.593 197.979 253.115 199.314H253.12C253.728 199.852 254.346 200.373 254.975 200.877C254.98 200.872 254.98 200.877 254.98 200.877C255.613 201.39 256.251 201.883 256.905 202.36C257.231 202.597 257.563 202.833 257.9 203.069C258.558 203.537 259.23 203.988 259.916 204.422H259.921C260.604 204.864 261.298 205.286 262.002 205.689C263.414 206.498 264.862 207.257 266.35 207.946L266.601 208.062L266.857 207.946C269.243 206.872 271.702 205.97 274.216 205.246C274.769 205.085 275.327 204.939 275.88 204.799C277.277 204.452 278.685 204.16 280.102 203.924C278.721 204.617 277.388 205.401 276.111 206.272C275.121 206.94 274.146 207.669 273.166 208.474C272.839 208.74 272.512 209.017 272.185 209.298L271.371 210.002L272.391 210.339C272.763 210.46 273.135 210.58 273.507 210.691C274.015 210.852 274.518 210.998 275.01 211.133C276.086 211.435 277.168 211.701 278.257 211.933C278.524 211.988 278.785 212.043 279.052 212.099C279.569 212.199 280.092 212.3 280.615 212.39C280.636 212.396 280.658 212.399 280.68 212.4C281.223 212.491 281.771 212.576 282.314 212.652C283.324 212.797 284.334 212.913 285.345 212.998C285.455 213.014 285.566 213.019 285.682 213.024C285.928 213.044 286.169 213.064 286.415 213.079C286.958 213.114 287.506 213.139 288.054 213.159C288.094 213.159 288.129 213.164 288.17 213.164C288.446 213.174 288.723 213.185 288.999 213.19C288.999 213.19 288.999 213.195 289.004 213.19C289.281 213.195 289.557 213.2 289.833 213.2H291.362C291.648 213.2 291.935 213.205 292.226 213.205C292.628 213.205 293.035 213.21 293.437 213.215C293.543 213.215 293.654 213.22 293.764 213.22C294.408 213.23 295.051 213.245 295.694 213.26C295.735 213.26 295.775 213.265 295.815 213.265C296.458 213.285 297.102 213.305 297.745 213.335C297.886 213.34 298.027 213.345 298.172 213.355C298.791 213.381 299.409 213.411 300.027 213.446C300.203 213.456 300.384 213.471 300.565 213.481C301.033 213.506 301.505 213.536 301.972 213.572C302.249 213.587 302.52 213.607 302.797 213.632C303.913 213.717 305.024 213.813 306.139 213.924C306.511 213.954 306.883 213.994 307.255 214.034C308.251 214.14 309.249 214.255 310.251 214.381C310.698 214.431 311.146 214.492 311.593 214.552C311.643 214.557 311.694 214.562 311.744 214.572C312.297 214.647 312.845 214.723 313.398 214.803C313.76 214.854 314.122 214.909 314.483 214.964C314.855 215.02 315.227 215.075 315.599 215.14C315.8 215.17 316.001 215.206 316.208 215.241C316.69 215.316 317.178 215.397 317.665 215.487C317.709 215.491 317.753 215.498 317.796 215.507C318.831 215.688 319.872 215.879 320.907 216.085C321.516 216.201 322.119 216.322 322.722 216.447C323.194 216.543 323.667 216.643 324.139 216.744C324.22 216.759 324.3 216.779 324.381 216.799C324.399 216.805 324.417 216.808 324.436 216.809C325.15 216.965 325.868 217.126 326.582 217.297C329.06 217.87 331.535 218.507 334.006 219.207C334.574 219.363 335.142 219.529 335.71 219.695C335.952 219.765 336.188 219.836 336.424 219.906C336.917 220.052 337.404 220.198 337.897 220.354C338.329 220.484 338.766 220.62 339.199 220.761C339.47 220.846 339.742 220.932 340.013 221.022C340.435 221.153 340.858 221.289 341.275 221.435C341.632 221.545 341.983 221.661 342.335 221.786C342.838 221.952 343.346 222.123 343.848 222.304C343.994 222.355 344.145 222.405 344.291 222.46C344.904 222.671 345.517 222.888 346.13 223.114C346.728 223.33 347.327 223.551 347.92 223.772C348.332 223.928 348.744 224.079 349.151 224.24C349.609 224.416 350.066 224.592 350.518 224.773C351.172 225.029 351.83 225.291 352.484 225.557C353.087 225.798 353.685 226.045 354.288 226.301C354.399 226.346 354.515 226.392 354.625 226.442C355.148 226.658 355.671 226.884 356.188 227.111C356.525 227.251 356.857 227.397 357.189 227.543C358.636 228.176 360.082 228.832 361.526 229.509H361.532C362.436 229.936 363.356 230.343 364.281 230.73C364.497 230.821 364.713 230.911 364.934 230.997C365.301 231.153 365.673 231.298 366.045 231.449C366.287 231.545 366.528 231.64 366.774 231.731C367.131 231.872 367.493 232.007 367.855 232.138C368.237 232.279 368.614 232.42 369.001 232.55C369.137 232.601 369.272 232.646 369.413 232.696C369.86 232.847 370.308 232.998 370.76 233.144C370.805 233.159 370.851 233.174 370.901 233.189C371.373 233.34 371.846 233.49 372.323 233.631C372.361 233.645 372.4 233.657 372.439 233.666C372.952 233.822 373.475 233.973 373.992 234.119C374.756 234.33 375.525 234.531 376.294 234.717C376.435 234.752 376.576 234.788 376.717 234.818C377.129 234.918 377.536 235.014 377.948 235.104C378.385 235.205 378.828 235.295 379.265 235.386C379.707 235.476 380.15 235.567 380.587 235.647C380.823 235.692 381.06 235.738 381.291 235.778L381.909 235.884C382.336 235.959 382.763 236.024 383.196 236.095C383.208 236.094 383.22 236.096 383.231 236.1C383.719 236.175 384.201 236.246 384.689 236.306C385.156 236.371 385.624 236.427 386.091 236.482C386.187 236.492 386.287 236.502 386.388 236.512C386.775 236.557 387.162 236.602 387.549 236.638C387.659 236.648 387.77 236.658 387.88 236.668C388.262 236.703 388.645 236.738 389.027 236.763C389.103 236.773 389.18 236.778 389.258 236.778C389.6 236.809 389.941 236.834 390.283 236.849C390.524 236.869 390.761 236.879 391.002 236.894C391.128 236.899 391.248 236.904 391.374 236.909C391.706 236.929 392.037 236.939 392.374 236.949C392.781 236.964 393.188 236.975 393.591 236.985C394.078 236.995 394.571 237 395.058 237H395.068C395.546 237 396.028 236.995 396.506 236.985H396.687L397.215 236.969C397.486 236.964 397.758 236.954 398.024 236.944C398.537 236.924 399.044 236.899 399.552 236.869C399.753 236.859 399.959 236.844 400.16 236.834C400.251 236.829 400.346 236.819 400.437 236.814C400.753 236.794 401.065 236.773 401.382 236.748C401.708 236.723 402.04 236.693 402.367 236.658C402.789 236.618 403.211 236.572 403.634 236.527C403.965 236.492 404.297 236.452 404.624 236.411C404.668 236.408 404.711 236.401 404.755 236.391C405.071 236.356 405.388 236.316 405.7 236.271C406.071 236.22 406.438 236.165 406.805 236.11C406.846 236.105 406.881 236.1 406.921 236.095C407.554 235.994 408.193 235.894 408.831 235.778C409.5 235.657 410.168 235.527 410.832 235.391C411.078 235.341 411.319 235.285 411.565 235.235C411.701 235.205 411.842 235.18 411.973 235.15C412.179 235.104 412.38 235.059 412.581 235.009C412.616 235.004 412.656 234.994 412.691 234.989C412.973 234.928 413.249 234.858 413.531 234.788C414.094 234.652 414.647 234.511 415.2 234.36C415.446 234.3 415.692 234.235 415.928 234.169C415.999 234.149 416.069 234.129 416.135 234.109C417.155 233.822 418.167 233.519 419.171 233.199C419.613 233.058 420.05 232.912 420.488 232.756C421.427 232.435 422.359 232.096 423.282 231.741C423.529 231.65 423.775 231.55 424.021 231.454C424.383 231.309 424.745 231.163 425.102 231.017C425.424 230.881 425.745 230.745 426.072 230.605C426.233 230.539 426.394 230.469 426.555 230.399C427.037 230.187 427.52 229.971 427.997 229.755C428.319 229.604 428.635 229.458 428.952 229.308C429.455 229.066 429.952 228.82 430.45 228.574C430.576 228.508 430.696 228.443 430.817 228.383C431.134 228.222 431.45 228.056 431.772 227.895C432.28 227.623 432.787 227.352 433.29 227.07C433.461 226.98 433.627 226.884 433.798 226.789C434.351 226.477 434.899 226.16 435.441 225.839C436.643 225.12 437.827 224.369 438.995 223.586C439.287 223.395 439.578 223.194 439.865 222.998C440.408 222.626 440.94 222.244 441.473 221.862C441.528 221.822 441.579 221.782 441.634 221.746C441.9 221.55 442.167 221.354 442.433 221.153C442.986 220.736 443.534 220.313 444.082 219.881C444.092 219.876 444.107 219.861 444.122 219.851C444.368 219.655 444.615 219.459 444.856 219.263C445.605 218.654 446.344 218.036 447.068 217.398C447.425 217.091 447.776 216.774 448.123 216.457C448.385 216.221 448.646 215.985 448.902 215.744C449.42 215.256 449.928 214.773 450.43 214.281C450.682 214.039 450.928 213.788 451.179 213.536C451.426 213.285 451.677 213.034 451.923 212.777C452.009 212.692 452.094 212.601 452.18 212.511C452.431 212.244 452.682 211.973 452.934 211.706C453.15 211.475 453.361 211.234 453.577 210.993C453.939 210.59 454.306 210.188 454.663 209.781C454.682 209.758 454.702 209.736 454.723 209.716C454.743 209.691 454.763 209.67 454.778 209.65H454.773C462.08 201.2 467.508 191.294 470.7 180.588C473.892 169.882 474.774 158.62 473.288 147.547C471.802 136.475 467.982 125.844 462.081 116.359C456.179 106.873 448.331 98.7497 439.055 92.5254Z" fill="#6C63FF"/>
<g opacity="0.15">
<path d="M337.315 33.1973C338.317 36.7971 339.824 40.2366 341.792 43.413C338.498 40.5824 335.554 37.3671 333.024 33.8361C334.445 33.5673 335.875 33.3543 337.315 33.1973Z" fill="black"/>
<path d="M288.268 88.87C284.547 90.9008 281.069 93.3464 277.899 96.16C283.252 89.8293 287.164 82.41 289.364 74.4165C289.39 74.3205 289.417 74.2238 289.443 74.1276L289.518 73.8555C292.162 64.3152 297.292 55.6484 304.383 48.7416L304.941 48.1982L305.334 48.8697C307.508 52.5668 310.109 55.9951 313.085 59.0838C308.526 71.951 299.654 82.6602 288.268 88.87Z" fill="black"/>
<path d="M314.47 54.6253L314.395 54.8974C314.369 54.9935 314.342 55.0902 314.316 55.1862C314.169 55.7153 314.013 56.2403 313.852 56.7631C312.262 52.6438 311.145 48.3569 310.523 43.9852L310.465 43.6143L310.77 43.3963C314.595 40.6473 318.749 38.3886 323.136 36.6729C319.197 42.0907 316.262 48.1711 314.47 54.6253Z" fill="black"/>
<path d="M263.315 108.1C266.608 106.298 269.689 104.134 272.503 101.649C266.882 108.194 262.854 115.952 260.732 124.315C258.611 132.678 258.454 141.419 260.275 149.852C262.096 158.286 265.844 166.183 271.227 172.925C276.609 179.667 283.48 185.071 291.3 188.714L291.554 188.831L291.807 188.716C296.031 186.808 300.484 185.455 305.056 184.692C302.203 186.146 299.543 187.952 297.139 190.068L296.326 190.772L297.346 191.109C298.226 191.4 299.107 191.668 299.963 191.906C304.994 193.307 310.195 194.003 315.417 193.974C339.142 193.822 363.053 199.308 386.482 210.28C390.5 212.158 394.668 213.699 398.942 214.885C417.568 220.072 437.452 218.207 454.788 209.645C445.014 220.951 432.234 229.252 417.932 233.583C403.63 237.915 388.392 238.099 373.99 234.116C369.716 232.929 365.548 231.389 361.53 229.51C338.1 218.538 314.19 213.052 290.464 213.204C285.242 213.233 280.042 212.537 275.011 211.136C274.155 210.898 273.274 210.63 272.394 210.339L271.373 210.002L272.187 209.299C274.591 207.182 277.25 205.376 280.104 203.923C275.532 204.685 271.079 206.038 266.855 207.947L266.601 208.061L266.347 207.944C256.957 203.572 248.965 196.676 243.265 188.026C237.564 179.376 234.379 169.312 234.065 158.956C233.75 148.601 236.319 138.362 241.484 129.382C246.649 120.402 254.207 113.034 263.315 108.1Z" fill="black"/>
</g>
</g>
<defs>
<clipPath id="clip0_73_681">
<rect width="474" height="400" fill="white"/>
</clipPath>
</defs>
</svg>
