<svg width="500" height="500" viewBox="0 0 500 500" fill="none" xmlns="http://www.w3.org/2000/svg">
<path d="M249.05 486.05C379.174 486.05 484.66 425.148 484.66 350.02C484.66 274.893 379.174 213.99 249.05 213.99C118.926 213.99 13.4399 274.893 13.4399 350.02C13.4399 425.148 118.926 486.05 249.05 486.05Z" fill="#F0F0F0"/>
<path d="M384.36 397.22C368.91 388.3 368.91 373.84 384.36 364.92C399.81 356 424.86 356 440.31 364.92C455.76 373.84 455.76 388.3 440.31 397.22C424.86 406.14 399.81 406.14 384.36 397.22Z" fill="#E0E0E0"/>
<path d="M70.1202 398.46L29.4802 375C27.1902 373.68 27.1902 371.53 29.4802 370.21L265.87 233.73C267.155 233.079 268.575 232.74 270.015 232.74C271.455 232.74 272.875 233.079 274.16 233.73L314.81 257.19C317.1 258.51 317.1 260.66 314.81 261.98L78.4202 398.46C77.1337 399.111 75.7121 399.45 74.2702 399.45C72.8283 399.45 71.4067 399.111 70.1202 398.46Z" fill="#E0E0E0"/>
<path d="M216.2 356.64L251.14 336.44C254.74 334.36 256.54 331.64 256.54 328.91C256.54 326.18 256.54 324.05 256.54 324.05L220.3 303.61C219.288 302.955 218.445 302.071 217.84 301.028C217.235 299.985 216.885 298.814 216.82 297.61V254.52L155.82 289.78V332.85C155.89 334.053 156.242 335.222 156.846 336.264C157.45 337.306 158.291 338.192 159.3 338.85L190.14 356.61C197.32 360.8 209 360.8 216.2 356.64Z" fill="#407BFF"/>
<g opacity="0.6">
<path d="M216.2 356.64L251.14 336.44C254.74 334.36 256.54 331.64 256.54 328.91C256.54 326.18 256.54 324.05 256.54 324.05L220.3 303.61C219.288 302.955 218.445 302.071 217.84 301.028C217.235 299.985 216.885 298.814 216.82 297.61V254.52L155.82 289.78V332.85C155.89 334.053 156.242 335.222 156.846 336.264C157.45 337.306 158.291 338.192 159.3 338.85L190.14 356.61C197.32 360.8 209 360.8 216.2 356.64Z" fill="black"/>
</g>
<path opacity="0.3" d="M170.45 340.48V345.32L159.27 338.87C158.261 338.213 157.421 337.327 156.818 336.285C156.216 335.242 155.867 334.073 155.8 332.87V289.78L167.42 283.07C167.66 286.02 167.92 289.07 168.17 292.07L160 296.77V330.42C160.065 331.624 160.414 332.796 161.019 333.839C161.624 334.882 162.467 335.766 163.48 336.42L170.45 340.48Z" fill="black"/>
<path d="M160 330.43C160.069 331.633 160.42 332.803 161.024 333.845C161.629 334.888 162.47 335.773 163.48 336.43L190.1 351.77C197.3 355.92 208.98 355.93 216.19 351.77L251.19 331.57C258.4 327.41 258.4 320.67 251.19 316.51L224.55 301.17C223.542 300.512 222.703 299.625 222.101 298.583C221.498 297.541 221.148 296.372 221.08 295.17V261.51L160.08 296.77L160 330.43Z" fill="#407BFF"/>
<path opacity="0.3" d="M160 330.43C160.069 331.633 160.42 332.803 161.024 333.845C161.629 334.888 162.47 335.773 163.48 336.43L190.1 351.77C197.3 355.92 208.98 355.93 216.19 351.77L251.19 331.57C258.4 327.41 258.4 320.67 251.19 316.51L224.55 301.17C223.542 300.512 222.703 299.625 222.101 298.583C221.498 297.541 221.148 296.372 221.08 295.17V261.51L160.08 296.77L160 330.43Z" fill="black"/>
<path opacity="0.5" d="M231.6 305.28L224.51 301.19C223.502 300.532 222.663 299.645 222.061 298.603C221.458 297.561 221.108 296.392 221.04 295.19V261.51L160.04 296.77V330.43C160.109 331.633 160.46 332.803 161.064 333.845C161.669 334.888 162.51 335.773 163.52 336.43L170.52 340.43L231.6 305.28Z" fill="black"/>
<path d="M256.55 324.06V328.92C256.55 331.65 254.74 334.36 251.15 336.45L216.15 356.64C212.32 358.685 208.042 359.746 203.7 359.73V354.89C208.042 354.906 212.32 353.845 216.15 351.8L251.15 331.59C254.74 329.52 256.55 326.79 256.55 324.06Z" fill="#407BFF"/>
<path opacity="0.5" d="M256.55 324.06V328.92C256.55 331.65 254.74 334.36 251.15 336.45L216.15 356.64C212.32 358.685 208.042 359.746 203.7 359.73V354.89C208.042 354.906 212.32 353.845 216.15 351.8L251.15 331.59C254.74 329.52 256.55 326.79 256.55 324.06Z" fill="black"/>
<path d="M62 372.26C63.3187 372.897 64.7686 373.215 66.2329 373.189C67.6971 373.163 69.1348 372.794 70.43 372.11L306.43 235.86C307.695 235.035 308.749 233.923 309.504 232.615C310.26 231.307 310.697 229.839 310.78 228.33V37.4102C310.735 35.9425 310.344 34.5063 309.638 33.2186C308.932 31.9309 307.933 30.8282 306.72 30.0002C305.403 29.3625 303.954 29.0447 302.491 29.0725C301.028 29.1003 299.592 29.4729 298.3 30.1602L62.3 166.45C61.039 167.281 59.9921 168.398 59.2449 169.71C58.4976 171.022 58.071 172.492 58 174V364.89C58.0446 366.346 58.4297 367.771 59.1243 369.05C59.819 370.33 60.8038 371.43 62 372.26Z" fill="#407BFF"/>
<path d="M70.4599 372.1L306.46 235.85C307.727 235.027 308.781 233.915 309.537 232.607C310.293 231.298 310.729 229.829 310.81 228.32V37.4101C310.81 34.6401 308.86 33.5101 306.46 34.9001L70.4599 171.15C69.1939 171.975 68.1402 173.087 67.3844 174.395C66.6286 175.703 66.1919 177.171 66.1099 178.68V369.59C66.1099 372.36 68.0599 373.49 70.4599 372.1Z" fill="#407BFF"/>
<path opacity="0.5" d="M70.4599 372.1L306.46 235.85C307.727 235.027 308.781 233.915 309.537 232.607C310.293 231.298 310.729 229.829 310.81 228.32V37.4101C310.81 34.6401 308.86 33.5101 306.46 34.9001L70.4599 171.15C69.1939 171.975 68.1402 173.087 67.3844 174.395C66.6286 175.703 66.1919 177.171 66.1099 178.68V369.59C66.1099 372.36 68.0599 373.49 70.4599 372.1Z" fill="black"/>
<path d="M69.82 377.06C68.5824 377.601 67.2425 377.866 65.8924 377.838C64.5424 377.811 63.2144 377.491 62 376.9C60.8012 376.068 59.8146 374.965 59.1199 373.682C58.4251 372.398 58.0415 370.969 58 369.51V352.13L66.15 356.85V374.23C66.1 376.76 67.71 377.91 69.82 377.06Z" fill="#407BFF"/>
<path opacity="0.5" d="M69.82 377.06C68.5824 377.601 67.2425 377.866 65.8924 377.838C64.5424 377.811 63.2144 377.491 62 376.9C60.8012 376.068 59.8146 374.965 59.1199 373.682C58.4251 372.398 58.0415 370.969 58 369.51V352.13L66.15 356.85V374.23C66.1 376.76 67.71 377.91 69.82 377.06Z" fill="black"/>
<path d="M66.1001 356.85V374.23C66.1001 377 68.1001 378.12 70.4501 376.74L306.45 240.49C307.71 239.669 308.76 238.563 309.516 237.262C310.271 235.962 310.711 234.502 310.8 233V215.54L66.1001 356.85Z" fill="#407BFF"/>
<path opacity="0.3" d="M66.1099 356.81V374.23C66.1099 377 68.1099 378.12 70.4599 376.74L306.46 240.49C307.718 239.668 308.766 238.562 309.52 237.261C310.274 235.96 310.712 234.501 310.8 233V215.54L66.1099 356.81Z" fill="black"/>
<path d="M74.2598 335V181.39C74.3063 180.485 74.5661 179.604 75.0179 178.818C75.4698 178.033 76.1009 177.365 76.8598 176.87L300 48.0001C301.44 47.1701 302.61 47.8401 302.61 49.5001V203.19C302.561 204.096 302.3 204.977 301.846 205.763C301.393 206.548 300.76 207.215 300 207.71L76.8698 336.55C75.4298 337.38 74.2598 336.7 74.2598 335Z" fill="#407BFF"/>
<path d="M74.2598 335V181.39C74.3063 180.485 74.5661 179.604 75.0179 178.818C75.4698 178.033 76.1009 177.365 76.8598 176.87L300 48.0001C301.44 47.1701 302.61 47.8401 302.61 49.5001V203.19C302.561 204.096 302.3 204.977 301.846 205.763C301.393 206.548 300.76 207.215 300 207.71L76.8698 336.55C75.4298 337.38 74.2598 336.7 74.2598 335Z" fill="#263238"/>
<path d="M188.45 291.73C187.262 292.503 186.274 293.545 185.565 294.771C184.856 295.998 184.446 297.375 184.37 298.79C184.37 301.39 186.2 302.45 188.45 301.15C189.639 300.376 190.629 299.333 191.338 298.104C192.047 296.875 192.455 295.497 192.53 294.08C192.53 291.48 190.7 290.43 188.45 291.73Z" fill="#407BFF"/>
<path opacity="0.7" d="M67.39 174.38C66.615 175.683 66.172 177.156 66.1 178.67V356.85L58 352.13V174C58.0525 172.481 58.4931 171.001 59.28 169.7L67.39 174.38Z" fill="black"/>
<path opacity="0.3" d="M310.76 36.6903C310.45 34.4503 308.64 33.6903 306.45 34.9003L70.4502 171.15C69.1706 171.951 68.1145 173.062 67.3802 174.38L59.2202 169.67C59.9594 168.352 61.0186 167.241 62.3002 166.44L298.3 30.2003C299.594 29.513 301.031 29.1403 302.496 29.1125C303.961 29.0847 305.411 29.4026 306.73 30.0403C307.839 30.7957 308.772 31.7803 309.468 32.9275C310.163 34.0748 310.604 35.358 310.76 36.6903Z" fill="black"/>
<path d="M323.49 60.1898C323.139 60.0139 322.747 59.9368 322.356 59.9668C321.965 59.9967 321.59 60.1326 321.27 60.3598L98.59 189C97.7113 189.581 96.9819 190.361 96.4607 191.277C95.9395 192.192 95.6412 193.218 95.59 194.27V346.94C95.5588 347.455 95.6611 347.97 95.8871 348.434C96.1131 348.898 96.4551 349.296 96.88 349.59C97.37 349.86 99.99 351.38 100.77 351.8C101.046 351.94 101.354 352.005 101.663 351.988C101.973 351.97 102.272 351.871 102.53 351.7L325.16 223.06C326.039 222.479 326.768 221.699 327.289 220.783C327.81 219.868 328.109 218.842 328.16 217.79V64.3298C328.205 63.942 328.14 63.5495 327.974 63.1962C327.808 62.8429 327.547 62.5429 327.22 62.3298C326.72 61.9998 324.05 60.5198 323.49 60.1898Z" fill="#407BFF"/>
<path d="M102.48 191.16L325.17 62.57C326.85 61.57 328.17 62.39 328.17 64.33V217.79C328.119 218.842 327.82 219.868 327.299 220.783C326.778 221.699 326.049 222.479 325.17 223.06L102.48 351.7C100.8 352.7 99.48 351.09 99.48 349.15V196.43C99.5328 195.378 99.8317 194.353 100.353 193.438C100.874 192.523 101.602 191.742 102.48 191.16Z" fill="#FAFAFA"/>
<path d="M326.53 63.1499C327.12 63.1499 327.21 63.8899 327.21 64.3299V217.79C327.156 218.671 326.898 219.527 326.455 220.291C326.012 221.055 325.398 221.705 324.66 222.19L102 350.83C101.851 350.927 101.678 350.982 101.5 350.99C100.94 350.99 100.5 350.13 100.5 349.15V196.43C100.548 195.549 100.799 194.691 101.232 193.923C101.666 193.155 102.271 192.497 103 192L325.67 63.4299C325.928 63.2637 326.224 63.1672 326.53 63.1499ZM326.53 62.1499C326.048 62.1704 325.58 62.3151 325.17 62.5699L102.48 191.16C101.602 191.742 100.874 192.523 100.353 193.438C99.8317 194.353 99.5328 195.378 99.48 196.43V349.15C99.48 350.69 100.34 351.99 101.48 351.99C101.833 351.983 102.178 351.883 102.48 351.7L325.16 223.06C326.039 222.479 326.768 221.699 327.289 220.783C327.81 219.868 328.109 218.842 328.16 217.79V64.3299C328.16 62.9499 327.48 62.1499 326.48 62.1499H326.53Z" fill="#E0E0E0"/>
<path d="M96.8201 349.59C97.1501 349.76 99.5201 351.11 100.56 351.71C100.187 351.4 99.8908 351.007 99.6964 350.562C99.5019 350.118 99.4141 349.634 99.4401 349.15V206.4L95.5401 204.12V346.94C95.5078 347.454 95.6086 347.968 95.8328 348.432C96.057 348.897 96.397 349.295 96.8201 349.59Z" fill="#F0F0F0"/>
<path d="M328.21 64.2996C328.21 62.3796 326.84 61.5996 325.21 62.5696L102.48 191.16C101.602 191.742 100.874 192.522 100.353 193.438C99.8317 194.353 99.5328 195.378 99.48 196.43V206.43L328.21 74.2996V64.2996Z" fill="#407BFF"/>
<g opacity="0.4">
<path d="M325.17 62.5699L102.48 191.15C101.586 191.713 100.85 192.494 100.34 193.42L96.4702 191.17C96.9793 190.277 97.7093 189.53 98.5902 189L321.27 60.3599C321.589 60.131 321.964 59.9934 322.355 59.9617C322.746 59.9299 323.139 60.0054 323.49 60.1799C324.03 60.5199 326.56 61.9499 327.21 62.2999C326.874 62.1752 326.512 62.1346 326.157 62.1816C325.801 62.2287 325.462 62.362 325.17 62.5699Z" fill="white"/>
</g>
<path opacity="0.15" d="M95.54 204.13V194.22C95.5811 193.14 95.9015 192.089 96.47 191.17L100.35 193.41C99.7897 194.313 99.4759 195.348 99.44 196.41V206.41L95.54 204.13Z" fill="black"/>
<path d="M281.25 179.42L147.88 256.42C147.231 256.841 146.691 257.409 146.304 258.078C145.916 258.747 145.692 259.498 145.65 260.27V298.51C145.692 299.282 145.916 300.033 146.304 300.702C146.691 301.371 147.231 301.939 147.88 302.36L151.77 304.6C152.461 304.95 153.225 305.132 154 305.132C154.775 305.132 155.539 304.95 156.23 304.6L289.58 227.6C290.229 227.177 290.769 226.607 291.156 225.936C291.544 225.266 291.768 224.513 291.81 223.74V185.49C291.768 184.718 291.544 183.967 291.156 183.298C290.768 182.629 290.228 182.061 289.58 181.64L285.68 179.4C284.992 179.056 284.232 178.878 283.463 178.882C282.693 178.885 281.935 179.07 281.25 179.42Z" fill="#407BFF"/>
<path opacity="0.5" d="M291.81 185.15C291.65 184 290.72 183.58 289.6 184.23L156.23 261.23C155.572 261.639 155.031 262.211 154.66 262.89L146.31 258.07C146.684 257.401 147.221 256.837 147.87 256.43L281.25 179.43C281.939 179.08 282.702 178.897 283.475 178.897C284.248 178.897 285.011 179.08 285.7 179.43L289.6 181.67C290.195 182.06 290.699 182.572 291.08 183.172C291.462 183.772 291.71 184.446 291.81 185.15Z" fill="white"/>
<path d="M155.85 304.79C155.197 305.047 154.497 305.164 153.796 305.133C153.095 305.102 152.408 304.924 151.78 304.61L147.88 302.37C147.232 301.948 146.693 301.379 146.306 300.711C145.919 300.042 145.694 299.291 145.65 298.52V260.28C145.68 259.499 145.907 258.739 146.31 258.07L154.66 262.89C154.254 263.55 154.027 264.305 154 265.08V303.33C154 304.6 154.8 305.19 155.85 304.79Z" fill="#263238"/>
<path d="M156.23 261.23L289.6 184.23C290.83 183.52 291.83 184.09 291.83 185.51V223.76C291.788 224.533 291.564 225.286 291.176 225.957C290.789 226.627 290.249 227.197 289.6 227.62L156.25 304.62C155.02 305.33 154.02 304.75 154.02 303.33V265.09C154.06 264.318 154.281 263.567 154.665 262.897C155.049 262.226 155.585 261.655 156.23 261.23Z" fill="#407BFF"/>
<path d="M245.89 199.84L147.89 256.43C147.241 256.837 146.704 257.401 146.33 258.07L154.68 262.89C155.052 262.21 155.592 261.639 156.25 261.23L254.25 204.65L245.89 199.84Z" fill="#455A64"/>
<path d="M254.23 204.65L156.23 261.23C155.581 261.653 155.041 262.223 154.654 262.893C154.266 263.564 154.042 264.317 154 265.09V303.32C154 304.74 155 305.32 156.23 304.61L254.23 248.03V204.65Z" fill="#37474F"/>
<path d="M178.83 256.57L229.4 227.38C231.49 226.17 233.19 227.03 233.19 229.3C233.097 230.575 232.704 231.81 232.044 232.904C231.383 233.999 230.474 234.922 229.39 235.6L178.83 264.8C176.74 266.01 175.03 265.15 175.03 262.88C175.125 261.604 175.518 260.368 176.178 259.272C176.838 258.175 177.747 257.25 178.83 256.57Z" fill="#407BFF"/>
<path d="M189.19 266.24C189.199 266.229 189.211 266.221 189.224 266.215C189.237 266.209 189.251 266.206 189.265 266.206C189.279 266.206 189.293 266.209 189.306 266.215C189.319 266.221 189.331 266.229 189.34 266.24C189.385 266.308 189.406 266.389 189.4 266.47V272.16C189.401 272.71 189.354 273.258 189.26 273.8C189.177 274.295 189.036 274.778 188.84 275.24C188.661 275.663 188.425 276.06 188.14 276.42C187.859 276.754 187.52 277.035 187.14 277.25C186.842 277.444 186.495 277.548 186.14 277.55C186.004 277.539 185.872 277.501 185.752 277.437C185.631 277.374 185.525 277.286 185.44 277.18C185.22 276.886 185.076 276.542 185.02 276.18C184.924 275.696 184.881 275.203 184.89 274.71V269.01C184.89 268.91 184.91 268.811 184.95 268.72C184.974 268.637 185.028 268.567 185.1 268.52L185.73 268.15C185.75 268.131 185.777 268.12 185.805 268.12C185.833 268.12 185.86 268.131 185.88 268.15C185.926 268.217 185.947 268.299 185.94 268.38V274C185.932 274.309 185.962 274.618 186.03 274.92C186.057 275.113 186.141 275.294 186.27 275.44C186.315 275.494 186.372 275.536 186.436 275.564C186.5 275.591 186.57 275.604 186.64 275.6C186.811 275.589 186.976 275.534 187.12 275.44C187.298 275.334 187.459 275.202 187.6 275.05C187.756 274.87 187.884 274.668 187.98 274.45C188.093 274.193 188.177 273.925 188.23 273.65C188.288 273.32 188.315 272.985 188.31 272.65V267.02C188.313 266.919 188.337 266.821 188.38 266.73C188.404 266.647 188.458 266.577 188.53 266.53L189.19 266.24Z" fill="#FAFAFA"/>
<path d="M193.11 271.62C193.115 271.546 193.098 271.473 193.06 271.41C193.036 271.384 193.006 271.364 192.973 271.352C192.94 271.339 192.905 271.335 192.87 271.34C192.747 271.323 192.623 271.323 192.5 271.34L191.92 271.45C191.733 271.496 191.537 271.496 191.35 271.45C191.203 271.403 191.076 271.308 190.99 271.18C190.892 271.018 190.827 270.837 190.8 270.65C190.702 270.114 190.702 269.565 190.8 269.03C190.875 268.723 190.982 268.424 191.12 268.14C191.257 267.856 191.424 267.587 191.62 267.34C191.809 267.104 192.039 266.904 192.3 266.75C192.51 266.622 192.745 266.54 192.99 266.51C193.167 266.491 193.346 266.53 193.5 266.62C193.647 266.709 193.762 266.842 193.83 267C193.91 267.186 193.955 267.387 193.96 267.59C193.97 267.69 193.949 267.792 193.9 267.88C193.875 267.962 193.822 268.033 193.75 268.08L193.15 268.43C193.122 268.446 193.091 268.454 193.06 268.454C193.028 268.454 192.997 268.446 192.97 268.43L192.84 268.33C192.788 268.289 192.725 268.265 192.66 268.26C192.531 268.274 192.408 268.319 192.3 268.39C192.143 268.484 192.004 268.606 191.89 268.75C191.769 268.907 191.705 269.101 191.71 269.3C191.696 269.376 191.696 269.454 191.71 269.53C191.729 269.558 191.754 269.582 191.784 269.599C191.813 269.616 191.846 269.627 191.88 269.63C191.989 269.648 192.101 269.648 192.21 269.63L192.77 269.53C193.24 269.44 193.56 269.53 193.77 269.79C193.99 270.16 194.092 270.59 194.06 271.02C194.057 271.317 194.017 271.613 193.94 271.9C193.861 272.212 193.747 272.514 193.6 272.8C193.453 273.096 193.268 273.372 193.05 273.62C192.843 273.863 192.596 274.069 192.32 274.23C192.1 274.37 191.85 274.456 191.59 274.48C191.402 274.486 191.216 274.434 191.06 274.33C190.905 274.224 190.787 274.074 190.72 273.9C190.639 273.71 190.598 273.506 190.6 273.3C190.59 273.196 190.611 273.092 190.66 273C190.684 272.917 190.738 272.846 190.81 272.8L191.41 272.45C191.49 272.45 191.55 272.4 191.59 272.45L191.72 272.59C191.746 272.62 191.779 272.644 191.815 272.661C191.851 272.678 191.89 272.688 191.93 272.69C192.071 272.691 192.208 272.645 192.32 272.56C192.5 272.457 192.663 272.326 192.8 272.17C192.868 272.088 192.925 271.997 192.97 271.9C193.04 271.821 193.089 271.724 193.11 271.62Z" fill="#FAFAFA"/>
<path d="M195.15 268.91C195.148 268.391 195.192 267.872 195.28 267.36C195.364 266.878 195.494 266.406 195.67 265.95C195.817 265.541 196.019 265.154 196.27 264.8C196.48 264.495 196.753 264.24 197.07 264.05C197.302 263.894 197.585 263.833 197.86 263.88C198.105 263.937 198.319 264.083 198.46 264.29C198.648 264.561 198.781 264.867 198.85 265.19C198.946 265.61 198.993 266.039 198.99 266.47V267.09C198.993 267.194 198.969 267.298 198.92 267.39C198.896 267.473 198.843 267.543 198.77 267.59L196.17 269.1C196.164 269.276 196.188 269.452 196.24 269.62C196.279 269.733 196.348 269.834 196.44 269.91C196.522 269.975 196.626 270.007 196.73 270C196.851 269.986 196.967 269.945 197.07 269.88C197.221 269.798 197.357 269.69 197.47 269.56C197.573 269.445 197.66 269.317 197.73 269.18C197.773 269.101 197.82 269.024 197.87 268.95C197.913 268.899 197.964 268.855 198.02 268.82L198.64 268.46C198.662 268.443 198.688 268.434 198.715 268.434C198.742 268.434 198.769 268.443 198.79 268.46C198.816 268.492 198.835 268.529 198.846 268.568C198.856 268.608 198.858 268.65 198.85 268.69C198.839 268.885 198.799 269.077 198.73 269.26C198.644 269.537 198.53 269.805 198.39 270.06C198.234 270.353 198.046 270.628 197.83 270.88C197.615 271.138 197.358 271.357 197.07 271.53C196.834 271.685 196.551 271.752 196.27 271.72C196.024 271.661 195.81 271.511 195.67 271.3C195.473 270.997 195.341 270.656 195.28 270.3C195.189 269.842 195.146 269.377 195.15 268.91ZM197.07 265.72C196.916 265.803 196.783 265.919 196.68 266.06C196.569 266.2 196.478 266.355 196.41 266.52C196.34 266.685 196.283 266.856 196.24 267.03C196.205 267.188 196.182 267.349 196.17 267.51L197.93 266.51C197.92 266.372 197.9 266.235 197.87 266.1C197.855 265.979 197.806 265.865 197.73 265.77C197.7 265.727 197.662 265.69 197.617 265.663C197.572 265.635 197.522 265.617 197.47 265.61C197.328 265.598 197.186 265.637 197.07 265.72Z" fill="#FAFAFA"/>
<path d="M202.13 262.93C201.827 263.103 201.588 263.369 201.45 263.69C201.294 264.112 201.223 264.56 201.24 265.01V268.62C201.241 268.723 201.221 268.825 201.18 268.92C201.155 269.002 201.102 269.073 201.03 269.12L200.44 269.46C200.431 269.47 200.419 269.479 200.406 269.485C200.393 269.491 200.379 269.494 200.365 269.494C200.351 269.494 200.337 269.491 200.324 269.485C200.311 269.479 200.299 269.47 200.29 269.46C200.245 269.392 200.224 269.311 200.23 269.23V262.76C200.23 262.657 200.251 262.555 200.29 262.46C200.318 262.379 200.37 262.309 200.44 262.26L201.03 261.92C201.05 261.901 201.077 261.89 201.105 261.89C201.133 261.89 201.16 261.901 201.18 261.92C201.226 261.983 201.248 262.062 201.24 262.14V262.46C201.359 262.191 201.507 261.937 201.68 261.7C201.838 261.481 202.043 261.3 202.28 261.17L202.64 260.96C202.659 260.941 202.684 260.931 202.71 260.931C202.736 260.931 202.761 260.941 202.78 260.96C202.828 261.026 202.853 261.107 202.85 261.19V262.1C202.848 262.204 202.824 262.306 202.78 262.4C202.755 262.479 202.706 262.549 202.64 262.6L202.13 262.93Z" fill="#FAFAFA"/>
<path d="M209.59 262.45C209.599 262.439 209.611 262.431 209.624 262.425C209.637 262.419 209.651 262.416 209.665 262.416C209.679 262.416 209.693 262.419 209.706 262.425C209.719 262.431 209.731 262.439 209.74 262.45C209.785 262.518 209.806 262.599 209.8 262.68V263.68C209.799 263.783 209.779 263.885 209.74 263.98C209.706 264.054 209.654 264.119 209.59 264.17L206.17 266.17C206.15 266.189 206.123 266.2 206.095 266.2C206.067 266.2 206.04 266.189 206.02 266.17C205.975 266.106 205.954 266.028 205.96 265.95V256.95C205.96 256.847 205.981 256.745 206.02 256.65C206.048 256.572 206.101 256.505 206.17 256.46L206.8 256.09C206.82 256.071 206.847 256.061 206.875 256.061C206.903 256.061 206.93 256.071 206.95 256.09C206.995 256.154 207.016 256.232 207.01 256.31V263.92L209.59 262.45Z" fill="#FAFAFA"/>
<path d="M212.66 255.05C212.885 254.894 213.157 254.82 213.43 254.84C213.664 254.859 213.883 254.966 214.04 255.14C214.227 255.354 214.363 255.607 214.44 255.88C214.547 256.234 214.608 256.601 214.62 256.97C214.62 257.05 214.62 257.16 214.62 257.29V258.06C214.62 258.18 214.62 258.29 214.62 258.38C214.6 258.815 214.54 259.247 214.44 259.67C214.348 260.083 214.214 260.485 214.04 260.87C213.882 261.229 213.677 261.565 213.43 261.87C213.219 262.147 212.958 262.381 212.66 262.56C212.429 262.711 212.156 262.784 211.88 262.77C211.649 262.75 211.435 262.643 211.28 262.47C211.088 262.264 210.951 262.013 210.88 261.74C210.773 261.386 210.713 261.02 210.7 260.65C210.7 260.57 210.7 260.47 210.7 260.34V259.57C210.7 259.44 210.7 259.33 210.7 259.25C210.712 258.812 210.769 258.376 210.87 257.95C210.968 257.534 211.105 257.129 211.28 256.74C211.439 256.384 211.641 256.048 211.88 255.74C212.092 255.461 212.357 255.226 212.66 255.05ZM213.6 257.63C213.6 257.409 213.563 257.189 213.49 256.98C213.453 256.853 213.376 256.74 213.27 256.66C213.185 256.603 213.082 256.578 212.98 256.59C212.866 256.612 212.757 256.656 212.66 256.72C212.543 256.784 212.435 256.865 212.34 256.96C212.226 257.079 212.128 257.214 212.05 257.36C211.95 257.542 211.876 257.737 211.83 257.94C211.765 258.196 211.724 258.457 211.71 258.72C211.71 258.8 211.71 258.89 211.71 259V259.71C211.71 259.82 211.71 259.91 211.71 259.97C211.72 260.191 211.76 260.41 211.83 260.62C211.867 260.748 211.944 260.86 212.05 260.94C212.092 260.97 212.139 260.99 212.189 261C212.239 261.011 212.29 261.011 212.34 261C212.454 260.981 212.562 260.94 212.66 260.88C212.776 260.813 212.884 260.733 212.98 260.64C213.092 260.518 213.189 260.384 213.27 260.24C213.366 260.056 213.44 259.862 213.49 259.66C213.556 259.405 213.592 259.143 213.6 258.88C213.606 258.787 213.606 258.693 213.6 258.6V257.9C213.606 257.81 213.606 257.72 213.6 257.63Z" fill="#FAFAFA"/>
<path d="M217.68 260.9C217.808 260.822 217.923 260.724 218.02 260.61C218.14 260.469 218.244 260.314 218.33 260.15C218.429 259.949 218.506 259.738 218.56 259.52C218.621 259.275 218.652 259.023 218.65 258.77V258.26C218.65 258.36 218.55 258.48 218.48 258.62C218.411 258.766 218.331 258.906 218.24 259.04C218.136 259.18 218.022 259.314 217.9 259.44C217.775 259.571 217.629 259.683 217.47 259.77C217.367 259.84 217.251 259.888 217.129 259.913C217.007 259.937 216.882 259.936 216.76 259.91C216.538 259.84 216.347 259.695 216.22 259.5C216.057 259.241 215.939 258.957 215.87 258.66C215.785 258.282 215.738 257.897 215.73 257.51C215.73 257.38 215.73 257.22 215.73 257.03C215.73 256.84 215.73 256.68 215.73 256.54C215.742 256.1 215.789 255.662 215.87 255.23C215.952 254.804 216.069 254.386 216.22 253.98C216.361 253.627 216.543 253.291 216.76 252.98C216.944 252.704 217.187 252.472 217.47 252.3C217.603 252.22 217.748 252.162 217.9 252.13C218.012 252.109 218.128 252.109 218.24 252.13C218.329 252.155 218.411 252.199 218.48 252.26C218.544 252.309 218.601 252.366 218.65 252.43V252.11C218.65 252.007 218.671 251.905 218.71 251.81C218.738 251.732 218.791 251.665 218.86 251.62L219.45 251.27C219.47 251.251 219.497 251.24 219.525 251.24C219.553 251.24 219.58 251.251 219.6 251.27C219.648 251.337 219.673 251.417 219.67 251.5V258C219.697 258.973 219.516 259.941 219.14 260.84C218.845 261.546 218.334 262.141 217.68 262.54C217.457 262.678 217.202 262.757 216.94 262.77C216.733 262.782 216.526 262.73 216.35 262.62C216.181 262.493 216.044 262.329 215.95 262.14C215.852 261.912 215.798 261.668 215.79 261.42C215.781 261.316 215.801 261.212 215.85 261.12C215.874 261.037 215.928 260.966 216 260.92L216.53 260.62C216.542 260.607 216.557 260.596 216.573 260.589C216.59 260.582 216.607 260.579 216.625 260.579C216.643 260.579 216.66 260.582 216.677 260.589C216.693 260.596 216.708 260.607 216.72 260.62C216.769 260.672 216.813 260.729 216.85 260.79C216.911 260.897 217.011 260.976 217.13 261.01C217.25 261.1 217.43 261 217.68 260.9ZM216.74 256.05C216.74 256.316 216.74 256.576 216.74 256.83C216.711 257.229 216.825 257.626 217.06 257.95C217.149 258.027 217.263 258.069 217.38 258.069C217.497 258.069 217.611 258.027 217.7 257.95C217.99 257.761 218.217 257.489 218.35 257.17C218.532 256.753 218.634 256.305 218.65 255.85C218.65 255.7 218.65 255.52 218.65 255.31C218.65 255.1 218.65 254.92 218.65 254.79C218.67 254.432 218.564 254.078 218.35 253.79C218.261 253.708 218.145 253.663 218.025 253.663C217.905 253.663 217.789 253.708 217.7 253.79C217.415 253.978 217.193 254.246 217.06 254.56C216.855 255.03 216.746 255.537 216.74 256.05Z" fill="#FAFAFA"/>
<path d="M222 247.17C222.02 247.153 222.044 247.145 222.07 247.145C222.095 247.145 222.12 247.153 222.14 247.17C222.192 247.234 222.217 247.317 222.21 247.4V248.49C222.211 248.594 222.187 248.697 222.14 248.79C222.112 248.865 222.063 248.931 222 248.98L221.33 249.37C221.321 249.38 221.309 249.389 221.296 249.395C221.283 249.401 221.269 249.404 221.255 249.404C221.241 249.404 221.227 249.401 221.214 249.395C221.201 249.389 221.189 249.38 221.18 249.37C221.154 249.34 221.134 249.305 221.122 249.267C221.11 249.229 221.106 249.189 221.11 249.15V248.06C221.109 247.956 221.133 247.853 221.18 247.76C221.208 247.682 221.261 247.615 221.33 247.57L222 247.17ZM222.17 256.56C222.17 256.659 222.15 256.758 222.11 256.85C222.078 256.928 222.026 256.997 221.96 257.05L221.36 257.39C221.351 257.4 221.341 257.409 221.329 257.414C221.317 257.42 221.303 257.423 221.29 257.423C221.276 257.423 221.263 257.42 221.251 257.414C221.239 257.409 221.228 257.4 221.22 257.39C221.168 257.325 221.142 257.243 221.15 257.16V250.69C221.149 250.586 221.173 250.483 221.22 250.39C221.248 250.312 221.296 250.243 221.36 250.19L221.96 249.85C221.98 249.831 222.007 249.82 222.035 249.82C222.063 249.82 222.09 249.831 222.11 249.85C222.155 249.914 222.176 249.992 222.17 250.07V256.56Z" fill="#FAFAFA"/>
<path d="M227.43 253.51C227.43 253.613 227.409 253.715 227.37 253.81C227.342 253.888 227.29 253.955 227.22 254L226.62 254.35C226.601 254.368 226.576 254.379 226.55 254.379C226.524 254.379 226.499 254.368 226.48 254.35C226.428 254.285 226.403 254.203 226.41 254.12V250.6C226.441 250.185 226.365 249.768 226.19 249.39C226.05 249.14 225.83 249.1 225.52 249.28C225.211 249.488 224.982 249.795 224.87 250.15C224.703 250.622 224.622 251.12 224.63 251.62V255.15C224.63 255.253 224.609 255.355 224.57 255.45C224.546 255.532 224.492 255.603 224.42 255.65L223.83 255.99C223.821 256.001 223.809 256.009 223.796 256.015C223.783 256.021 223.769 256.024 223.755 256.024C223.741 256.024 223.727 256.021 223.714 256.015C223.701 256.009 223.69 256.001 223.68 255.99C223.634 255.927 223.612 255.848 223.62 255.77V249.3C223.619 249.197 223.639 249.095 223.68 249C223.705 248.918 223.758 248.847 223.83 248.8L224.42 248.46C224.43 248.449 224.441 248.441 224.454 248.435C224.467 248.429 224.481 248.426 224.495 248.426C224.509 248.426 224.523 248.429 224.536 248.435C224.549 248.441 224.561 248.449 224.57 248.46C224.615 248.528 224.636 248.609 224.63 248.69V249C224.762 248.695 224.923 248.404 225.11 248.13C225.275 247.878 225.498 247.668 225.76 247.52C225.988 247.354 226.271 247.282 226.55 247.32C226.661 247.348 226.764 247.399 226.854 247.469C226.944 247.54 227.017 247.629 227.07 247.73C227.215 248.001 227.31 248.295 227.35 248.6C227.404 248.998 227.43 249.399 227.43 249.8V253.51Z" fill="#FAFAFA"/>
<path d="M277.87 224.4L268.16 230L269.67 216.38C268.5 215.76 267.76 214.25 267.76 212.08C267.76 208.21 270.12 203.72 273.02 202.08C275.92 200.44 278.27 202.18 278.27 206.08C278.21 208.374 277.555 210.614 276.37 212.58L277.87 224.4Z" fill="#455A64"/>
<path d="M277.88 224.4L269.33 219.47L268.16 230.01L277.88 224.4Z" fill="#37474F"/>
<path d="M273 202.05C270.885 203.479 269.309 205.573 268.52 208L276.35 212.52C277.535 210.554 278.19 208.315 278.25 206.02C278.27 202.15 275.92 200.38 273 202.05Z" fill="#37474F"/>
<path d="M225.8 156.7C222.47 154.78 217.88 155.05 212.8 157.98C202.66 163.84 194.44 178.07 194.44 189.78C194.44 195.66 196.52 199.78 199.86 201.68L206.33 205.44C209.65 207.36 214.24 207.08 219.33 204.15C229.47 198.3 237.69 184.06 237.69 172.35C237.69 166.5 235.63 162.35 232.31 160.48" fill="#407BFF"/>
<path d="M219.32 161.75C209.18 167.61 200.96 181.85 200.96 193.55C200.96 205.25 209.18 210.01 219.32 204.15C229.46 198.29 237.69 184.06 237.68 172.35C237.67 160.64 229.45 155.9 219.32 161.75Z" fill="#407BFF"/>
<path d="M229.45 187.73V189.07C227.021 193.406 223.537 197.059 219.32 199.69C215.37 201.96 211.8 202.21 209.18 200.76V198C209.314 195.129 210.134 192.331 211.571 189.841C213.008 187.352 215.021 185.242 217.44 183.69L220.11 182.15C222.47 180.79 224.77 180.61 226.57 181.66C228.37 182.71 229.45 184.92 229.45 187.73Z" fill="#407BFF"/>
<path opacity="0.4" d="M225.8 156.7L232.3 160.48C228.98 158.55 224.39 158.82 219.3 161.75C212.66 165.59 206.84 173.02 203.62 180.98L197.11 177.21C200.34 169.21 206.11 161.82 212.79 157.98C217.89 155.06 222.48 154.78 225.8 156.7Z" fill="white"/>
<path opacity="0.2" d="M206.1 205.29L199.87 201.68C196.53 199.78 194.45 195.68 194.45 189.78L200.96 193.56C201 199.26 202.92 203.32 206.1 205.29Z" fill="black"/>
<path opacity="0.1" d="M197.13 177.21L203.64 180.98C201.972 184.965 201.076 189.231 201 193.55L194.49 189.77C194.57 185.454 195.466 181.193 197.13 177.21Z" fill="black"/>
<path d="M217 181.52C216.38 181.527 215.769 181.368 215.23 181.06C214.581 180.627 214.061 180.027 213.724 179.323C213.388 178.619 213.248 177.837 213.32 177.06C213.405 175.238 213.925 173.463 214.837 171.883C215.748 170.303 217.025 168.965 218.56 167.98C219.177 167.488 219.927 167.193 220.714 167.134C221.501 167.076 222.287 167.256 222.97 167.651C223.653 168.047 224.2 168.639 224.541 169.351C224.882 170.062 225 170.86 224.88 171.64C224.794 173.462 224.273 175.236 223.361 176.816C222.45 178.395 221.174 179.734 219.64 180.72C218.846 181.215 217.935 181.492 217 181.52Z" fill="white"/>
<path d="M226.57 181.65C224.77 180.6 222.47 180.78 220.11 182.14L217.44 183.68C215.019 185.233 213.006 187.344 211.569 189.835C210.132 192.327 209.313 195.127 209.18 198V200.77C211.8 202.22 215.37 201.97 219.32 199.7C223.537 197.069 227.021 193.416 229.45 189.08V187.74C229.45 184.92 228.41 182.71 226.57 181.65Z" fill="white"/>
<path d="M432.15 354.65C432.15 354.65 433.48 342.97 439.29 333.9C445.1 324.83 453.08 319.18 460.53 318.59C467.98 318 474 324.86 466.03 329.59C458.06 334.32 443.9 339.1 437.38 356.7L432.15 354.65Z" fill="#407BFF"/>
<path opacity="0.1" d="M432.15 354.65C432.15 354.65 433.48 342.97 439.29 333.9C445.1 324.83 453.08 319.18 460.53 318.59C467.98 318 474 324.86 466.03 329.59C458.06 334.32 443.9 339.1 437.38 356.7L432.15 354.65Z" fill="black"/>
<path d="M434.34 351.61H434.26C434.162 351.57 434.084 351.493 434.042 351.395C434.001 351.298 434 351.188 434.04 351.09C441.9 331.74 456.86 323.65 463.68 322.09C463.731 322.078 463.784 322.076 463.836 322.085C463.888 322.094 463.937 322.113 463.982 322.14C464.026 322.168 464.065 322.205 464.096 322.247C464.126 322.29 464.148 322.339 464.16 322.39C464.172 322.441 464.173 322.494 464.165 322.546C464.156 322.598 464.137 322.647 464.109 322.692C464.081 322.737 464.045 322.775 464.002 322.806C463.959 322.836 463.911 322.858 463.86 322.87C457.18 324.41 442.51 332.35 434.78 351.4C434.741 351.48 434.677 351.544 434.597 351.582C434.517 351.62 434.426 351.63 434.34 351.61Z" fill="white"/>
<path d="M474.12 351.84C473.45 353.36 471.79 354.16 470.25 354.78C468.71 355.4 467.03 356.07 466.19 357.51C464.51 360.41 467.27 364.51 465.47 367.32C465.046 367.885 464.512 368.36 463.9 368.714C463.289 369.068 462.611 369.294 461.91 369.38C460.76 369.59 459.59 369.59 458.43 369.69C457.874 369.682 457.32 369.639 456.77 369.56C455.154 369.199 453.464 369.378 451.96 370.07C449.65 371.37 448.96 374.28 447.54 376.53C446.672 377.854 445.529 378.976 444.188 379.818C442.847 380.661 441.34 381.203 439.77 381.41C438.77 381.54 436.77 381.73 435.77 381.14C435.691 381.101 435.618 381.054 435.55 381C435.4 380.84 435.22 380.63 435.14 380.52C435.135 380.497 435.135 380.473 435.14 380.45C434.73 378.94 435.4 377.38 435.43 375.82V375.54C435.36 373.73 435.31 371.93 435.27 370.13C435.183 366.796 435.15 363.463 435.17 360.13C435.17 357.97 434.93 355.61 435.85 353.58C436.85 351.34 439.37 351.29 440.32 349.1C440.7 348.22 440.9 347.29 441.27 346.4C441.842 345.106 442.757 343.994 443.918 343.184C445.078 342.375 446.438 341.899 447.85 341.81C452.24 341.59 456.17 345.14 460.56 344.81C461.69 344.72 462.8 344.37 463.92 344.17C467.47 343.5 471.58 344.51 473.58 347.52C474.019 348.139 474.298 348.858 474.392 349.612C474.486 350.366 474.393 351.131 474.12 351.84Z" fill="#407BFF"/>
<path d="M434.7 373.52C434.605 373.492 434.525 373.428 434.477 373.343C434.428 373.257 434.415 373.155 434.44 373.06C440.5 350.32 464.44 347.06 470.07 347.44C470.119 347.442 470.168 347.455 470.213 347.476C470.257 347.498 470.297 347.528 470.33 347.566C470.362 347.603 470.387 347.647 470.403 347.694C470.418 347.741 470.424 347.791 470.42 347.84C470.41 347.937 470.363 348.027 470.288 348.09C470.214 348.153 470.118 348.186 470.02 348.18C464.53 347.79 441.09 351 435.16 373.26C435.132 373.354 435.068 373.434 434.983 373.483C434.897 373.531 434.795 373.545 434.7 373.52Z" fill="white"/>
<path d="M461.33 362C461.254 361.989 461.184 361.954 461.13 361.9C458.917 359.982 456.307 358.576 453.488 357.782C450.669 356.989 447.709 356.828 444.82 357.31C444.723 357.319 444.626 357.291 444.548 357.232C444.47 357.172 444.417 357.086 444.4 356.99C444.386 356.892 444.41 356.792 444.468 356.712C444.526 356.632 444.613 356.577 444.71 356.56C447.723 356.058 450.81 356.23 453.749 357.061C456.688 357.893 459.407 359.364 461.71 361.37C461.745 361.404 461.774 361.446 461.793 361.491C461.812 361.537 461.822 361.585 461.822 361.635C461.822 361.684 461.812 361.733 461.793 361.779C461.774 361.824 461.745 361.865 461.71 361.9C461.665 361.954 461.604 361.992 461.536 362.01C461.468 362.028 461.396 362.025 461.33 362Z" fill="white"/>
<path d="M377.12 79.9998L380.3 81.2198V74.2198C380.3 68.6598 384.73 67.3298 389.54 70.1098C394.36 72.8898 398.26 79.6398 398.26 85.1998V86.1998C398.93 85.995 399.638 85.9443 400.331 86.0517C401.024 86.1591 401.683 86.4216 402.26 86.8198C404.086 88.0107 405.606 89.6158 406.696 91.5045C407.785 93.3933 408.414 95.5125 408.53 97.6898V98.1498L412.97 100.71C414.171 101.494 415.171 102.55 415.888 103.792C416.606 105.034 417.021 106.428 417.1 107.86C417.1 110.5 415.25 111.57 412.97 110.25L377.12 89.5398C375.918 88.7575 374.918 87.7019 374.202 86.4592C373.486 85.2166 373.074 83.8221 373 82.3898C373 79.7598 374.83 78.6898 377.12 79.9998Z" fill="#E6E6E6"/>
<path d="M419.71 74.4598L425.48 77.7898C425.449 77.5377 425.432 77.2839 425.43 77.0298V75.3598C425.43 72.3598 427.51 71.1798 430.09 72.6698C431.199 73.3486 432.147 74.2595 432.87 75.3398C433.29 71.5998 436.23 70.2098 439.79 72.2598C441.825 73.5836 443.518 75.368 444.735 77.4685C445.951 79.569 446.655 81.9264 446.79 84.3498V86.8498C446.816 87.8487 446.614 88.8404 446.2 89.7498L451 92.5098C451.748 93.006 452.369 93.6706 452.814 94.4504C453.259 95.2302 453.514 96.1034 453.56 96.9998C453.56 98.6498 452.4 99.3198 450.97 98.4998L419.71 80.4998C418.954 80.0072 418.325 79.3427 417.875 78.5606C417.425 77.7785 417.166 76.901 417.12 75.9998C417.12 74.3098 418.28 73.6398 419.71 74.4598Z" fill="#E6E6E6"/>
<path d="M397.37 226.23C393.17 233.33 389.13 239.5 386.29 242.46C380.9 244.96 368.24 248.82 363.29 249.46C362.421 249.571 361.54 249.365 360.81 248.88C358.86 247.6 357.35 247.39 355.3 246.68C353.69 246.13 353.01 245.36 352.71 245.68C352.4 246.043 352.245 246.513 352.276 246.99C352.308 247.466 352.525 247.911 352.88 248.23C353.649 248.961 354.502 249.598 355.42 250.13C353.224 250.675 350.934 250.716 348.72 250.25C344.43 249.12 342.41 251.18 345.31 255.84C346.31 257.5 350.43 260.17 358.71 259.45C361.664 259.291 364.606 258.957 367.52 258.45C375.46 256.75 384.29 255.11 389.72 253.45C391.74 252.656 393.548 251.403 395 249.79C404.13 239.38 407.16 231.96 411.16 225.22L410.82 214.22C404.34 214 400.88 220.29 397.37 226.23Z" fill="#FFA8A7"/>
<path d="M411.93 214C410.051 213.736 408.136 213.991 406.391 214.736C404.646 215.482 403.138 216.69 402.03 218.23C397.59 223.92 389.73 237.58 389.73 237.58C389.73 237.58 392.3 244.43 399.24 245.58L410.39 230.52C410.39 230.52 415.67 220.06 411.93 214Z" fill="#455A64"/>
<path d="M436.04 367.54H428.77V380.5H436.04V367.54Z" fill="#FFA8A7"/>
<path d="M410.84 366.85L403.58 367.11L403.21 353.39L410.84 353.13V366.85Z" fill="#FFA8A7"/>
<path d="M437.06 255.35C437.06 262.57 436 320.74 436 320.74C436.16 322.82 438 326.66 437.63 334.65C437.08 345.5 436.35 374.02 436.35 374.02C435.102 374.659 433.725 375.005 432.324 375.033C430.922 375.06 429.532 374.769 428.26 374.18C428.26 374.18 422.36 334.18 421.06 323.47C419.92 314.08 417 283 417 283L413.07 319.74C413.903 323.682 414.206 327.718 413.97 331.74C413.63 336.74 411.29 362.62 411.29 362.62C410.034 363.361 408.626 363.806 407.172 363.922C405.719 364.038 404.258 363.822 402.9 363.29C402.9 363.29 398.76 324.29 398.68 319.71C398.58 314.51 401.1 255.29 401.1 255.29L437.06 255.35Z" fill="#37474F"/>
<path d="M428.77 376.76V375.68C428.07 375.99 426.46 382.41 423.57 385.15C421.28 387.33 418.16 389.84 417.36 392.27C416.56 394.7 421.71 396.19 423.86 395.8C426.34 395.34 430.66 393.51 431.74 391.8C432.82 390.09 433.33 387.61 434.21 386.37C435.09 385.13 437.12 383.75 437.59 382.31C437.737 380.963 437.597 379.6 437.18 378.31C436.84 376.97 436.48 375.5 436.04 375.63V376.45C435.015 377.291 433.726 377.745 432.4 377.73C431.34 377.82 428.76 377.6 428.77 376.76Z" fill="#263238"/>
<path d="M403.5 364.77C403.12 364.77 402.81 365.34 401.98 366.28C400.746 367.578 399.303 368.66 397.71 369.48C394.99 370.9 389.71 373.08 387.3 374.21C385.8 374.91 385.87 376.79 387.42 377.86C388.97 378.93 392.7 379.7 397.18 378.66C399.62 378.09 402.8 375.74 404.82 375.87C406.84 376 410.59 375.96 412.08 374.87C413.57 373.78 412.97 371.52 412.55 369.57C412.09 367.43 411.55 364.1 410.84 364.25V365C409.97 366.38 405.46 366.94 403.54 365.93L403.5 364.77Z" fill="#263238"/>
<path d="M417 283C413.218 281.762 409.761 279.695 406.88 276.95C406.88 276.95 408.88 280.76 414.64 284.31L413.4 317.12L417 283Z" fill="#263238"/>
<path d="M433 215.06C433 215.06 439 216.44 438.57 227.28L437.32 244.53V270.43C431.98 276.49 408.32 276.05 400.17 269.95C400.17 269.95 401.09 239.3 401.64 227.5C402.03 219.12 403.96 214.9 412.2 213.98L422.33 214.42L433 215.06Z" fill="#407BFF"/>
<path d="M425.36 192.54C425.394 193.991 425.141 195.435 424.615 196.788C424.089 198.141 423.3 199.376 422.295 200.423C421.289 201.47 420.086 202.307 418.755 202.887C417.424 203.466 415.991 203.777 414.54 203.8C408.54 203.8 405.02 198.62 403.72 192.54C401.32 181.41 408.56 181.27 414.54 181.27C417.469 181.33 420.254 182.552 422.283 184.665C424.312 186.778 425.419 189.611 425.36 192.54Z" fill="#263238"/>
<path d="M430.88 197.09C430.88 197.09 429.22 205.21 428.55 206.55C428.128 207.357 427.412 207.969 426.55 208.26L426.67 202.55L430.88 197.09Z" fill="#263238"/>
<path d="M428.79 185.46C428.79 185.46 429.98 185.16 431.25 187.14C432.33 188.83 432.58 192.63 430.88 197.14L427.75 197.52L428.79 185.46Z" fill="#263238"/>
<path d="M429.94 187.11L433.78 187.18C433.806 186.932 433.781 186.681 433.706 186.443C433.63 186.205 433.507 185.985 433.342 185.798C433.178 185.61 432.976 185.458 432.751 185.352C432.525 185.245 432.279 185.187 432.03 185.18C431.505 185.188 431.001 185.389 430.616 185.745C430.23 186.101 429.989 186.587 429.94 187.11Z" fill="#263238"/>
<path d="M430.41 186.2L433.25 183.47C433.086 183.277 432.885 183.12 432.657 183.009C432.43 182.898 432.182 182.836 431.929 182.825C431.676 182.815 431.424 182.857 431.189 182.949C430.953 183.041 430.739 183.181 430.56 183.36C430.183 183.728 429.959 184.225 429.931 184.751C429.903 185.277 430.074 185.794 430.41 186.2Z" fill="#263238"/>
<path d="M426.81 197.47C427.44 197.86 428.33 196.61 429.11 195.76C429.89 194.91 432.31 194.13 433.57 196.89C434.83 199.65 432.68 202.38 430.88 203.28C427.65 204.88 426.63 202.55 426.63 202.55L426.36 215.41C421.82 222.41 411.52 222.19 415.23 215.07V211.16C413.704 211.414 412.154 211.494 410.61 211.4C408.09 211 406.51 208.93 405.74 206.09C404.52 201.53 404.05 197.85 405.09 188.88C406.23 179.06 417.21 178.95 423.09 182.88C428.97 186.81 426.81 197.47 426.81 197.47Z" fill="#FFA8A7"/>
<path d="M413.13 187.35C415.75 187.09 418.34 186.55 420.97 186.35C421.537 186.281 422.112 186.308 422.67 186.43C424.67 186.98 424.43 189.32 424.75 190.95C425.3 193.77 425.75 198.54 426.81 198.56C427.13 198.56 428.33 196.49 429.11 195.75C429.539 195.113 429.781 194.368 429.81 193.6C430.01 192.44 430.11 191.25 430.2 190.07C430.28 189.07 430.38 188.07 430.38 187.07C430.426 185.94 430.335 184.809 430.11 183.7C429.859 182.757 429.378 181.891 428.71 181.18L428.51 180.96C427.192 179.582 425.592 178.504 423.82 177.8C421.27 176.845 418.596 176.262 415.88 176.07C413.168 175.878 410.467 175.544 407.79 175.07C407.637 175.025 407.474 175.025 407.32 175.07C407.212 175.13 407.12 175.217 407.053 175.322C406.987 175.426 406.948 175.546 406.94 175.67C406.83 176.292 406.899 176.931 407.138 177.515C407.377 178.099 407.776 178.604 408.29 178.97C406.48 179.11 404.4 178.17 402.66 177.69C402.519 177.63 402.368 177.6 402.215 177.6C402.062 177.6 401.911 177.63 401.77 177.69C401.596 177.812 401.471 177.993 401.42 178.2C401.293 178.67 401.276 179.163 401.37 179.64C401.529 181.087 402.067 182.467 402.93 183.64C404.278 185.395 406.182 186.64 408.33 187.17C409.911 187.475 411.53 187.536 413.13 187.35Z" fill="#263238"/>
<path d="M415.24 211.16C415.24 211.16 420.86 209.98 422.82 208.89C423.987 208.252 424.935 207.276 425.54 206.09C425.245 207.281 424.718 208.403 423.99 209.39C422.56 211.31 415.24 212.71 415.24 212.71V211.16Z" fill="#F28F8F"/>
<path d="M416.59 196C416.579 196.309 416.691 196.609 416.901 196.836C417.111 197.063 417.401 197.197 417.71 197.21C417.955 197.23 418.2 197.176 418.414 197.054C418.628 196.933 418.799 196.749 418.907 196.528C419.015 196.307 419.053 196.059 419.017 195.816C418.981 195.573 418.872 195.346 418.705 195.166C418.538 194.985 418.321 194.86 418.081 194.805C417.842 194.75 417.591 194.769 417.362 194.86C417.134 194.95 416.938 195.107 416.8 195.311C416.662 195.514 416.589 195.755 416.59 196Z" fill="#263238"/>
<path d="M418.39 191.15L420.8 192.54C420.975 192.197 421.015 191.801 420.911 191.43C420.808 191.06 420.568 190.742 420.24 190.54C420.08 190.45 419.904 190.395 419.721 190.377C419.539 190.36 419.355 190.38 419.181 190.437C419.007 190.495 418.847 190.588 418.71 190.711C418.574 190.833 418.465 190.983 418.39 191.15Z" fill="#263238"/>
<path d="M415.74 204.11L413.17 205.11C413.222 205.287 413.309 205.45 413.427 205.591C413.544 205.733 413.69 205.848 413.854 205.93C414.018 206.013 414.197 206.061 414.381 206.071C414.564 206.081 414.748 206.054 414.92 205.99C415.27 205.84 415.549 205.562 415.701 205.212C415.854 204.863 415.867 204.469 415.74 204.11Z" fill="#F28F8F"/>
<path d="M406.25 192.18L408.45 190.42C408.352 190.267 408.222 190.135 408.069 190.035C407.916 189.935 407.744 189.868 407.564 189.839C407.384 189.81 407.2 189.819 407.023 189.866C406.847 189.912 406.682 189.996 406.54 190.11C406.246 190.359 406.054 190.708 406.001 191.09C405.947 191.472 406.036 191.86 406.25 192.18Z" fill="#263238"/>
<path d="M407.22 195.67C407.237 195.889 407.318 196.098 407.452 196.272C407.587 196.445 407.769 196.576 407.976 196.648C408.184 196.72 408.407 196.73 408.62 196.676C408.833 196.623 409.026 196.509 409.175 196.348C409.324 196.187 409.423 195.986 409.46 195.77C409.497 195.553 409.47 195.331 409.382 195.13C409.295 194.928 409.151 194.757 408.967 194.636C408.784 194.516 408.569 194.451 408.35 194.45C408.195 194.455 408.043 194.491 407.903 194.555C407.762 194.62 407.635 194.711 407.53 194.825C407.425 194.938 407.344 195.071 407.29 195.216C407.237 195.361 407.213 195.516 407.22 195.67Z" fill="#263238"/>
<path d="M413.25 194.73L413.12 201.84L409.08 200.92L413.25 194.73Z" fill="#F28F8F"/>
<path d="M317.31 254.28L323.58 250.66L326.06 247.65L319.8 251.27L317.31 254.28Z" fill="#407BFF"/>
<path opacity="0.4" d="M317.31 254.28L323.58 250.66L326.06 247.65L319.8 251.27L317.31 254.28Z" fill="black"/>
<path d="M334.36 264.12L340.63 260.5L345.86 255.87L339.6 259.48L334.36 264.12Z" fill="#407BFF"/>
<path opacity="0.4" d="M334.36 264.12L340.63 260.5L345.86 255.87L339.6 259.48L334.36 264.12Z" fill="black"/>
<path d="M387.62 276.61C389.102 278.597 389.999 280.96 390.21 283.43C388.734 281.439 387.837 279.079 387.62 276.61ZM402.19 276.8C400.08 262.45 392.37 248.26 383.19 242.95C378.78 240.4 374.7 240.31 371.43 242.22L365.53 245.62L365.2 245.82C364.937 245.965 364.683 246.125 364.44 246.3C363.955 246.634 363.5 247.008 363.08 247.42L362.88 247.61C362.7 247.79 362.51 248 362.34 248.2C362.17 248.4 361.91 248.71 361.71 248.98C361.285 249.539 360.901 250.127 360.56 250.74C360.38 251.05 360.21 251.38 360.05 251.74L308.52 222L302.26 225.61V229.61L302.79 229.91L303.29 230.2V231L302.29 231.59V233.91L309.86 249.91L317.34 254.24L319.83 251.24L326.43 255.19L330.22 261.68L334.4 264.09L339.63 259.45L346.05 263.16L348.21 272.07L359 278.31C359.533 280.578 360.201 282.812 361 285C361.07 285.22 361.16 285.45 361.25 285.7C364.83 295.1 370.52 303.15 376.94 306.86C377.709 307.316 378.515 307.708 379.35 308.03C379.791 308.205 380.242 308.356 380.7 308.48C381.1 308.587 381.5 308.677 381.9 308.75C383.163 308.98 384.457 308.98 385.72 308.75L386.24 308.62C386.488 308.57 386.733 308.5 386.97 308.41L387.53 308.19C387.728 308.118 387.919 308.028 388.1 307.92C388.285 307.84 388.465 307.75 388.64 307.65L388.9 307.49C388.947 307.475 388.991 307.451 389.03 307.42C390.46 306.6 393.98 304.56 394.94 304.02C399.7 301.26 402.78 294.28 402.78 284.41C402.772 281.862 402.575 279.319 402.19 276.8Z" fill="#407BFF"/>
<path d="M385.79 288.72C383.31 287.29 381.31 283.05 381.31 279.25C381.31 275.45 383.31 273.52 385.79 274.94C388.27 276.36 390.26 280.61 390.26 284.42C390.26 288.23 388.26 290.15 385.79 288.72ZM395.92 280.41C393.82 266.07 386.11 251.87 376.92 246.57C372.66 244.11 368.72 243.93 365.52 245.62L365.19 245.82C364.927 245.965 364.673 246.125 364.43 246.3C363.945 246.634 363.49 247.009 363.07 247.42L362.87 247.61C362.69 247.79 362.5 248 362.33 248.2C362.16 248.4 361.9 248.71 361.7 248.98C361.276 249.539 360.891 250.127 360.55 250.74C360.37 251.05 360.2 251.38 360.04 251.74C359.108 253.673 358.435 255.721 358.04 257.83L302.25 225.61V229.61L302.78 229.91L303.28 230.2V231L302.28 231.59V233.91L309.85 249.91L317.33 254.24L319.82 251.24L326.42 255.19L330.21 261.68L334.39 264.09L339.62 259.45L346.04 263.16L348.2 272.07L359 278.31C359.533 280.578 360.201 282.812 361 285C361.07 285.22 361.16 285.45 361.25 285.7C364.83 295.1 370.52 303.15 376.94 306.86C377.709 307.317 378.516 307.708 379.35 308.03C379.791 308.206 380.242 308.356 380.7 308.48C381.1 308.587 381.5 308.677 381.9 308.75C383.163 308.981 384.457 308.981 385.72 308.75L386.24 308.62C386.489 308.57 386.733 308.5 386.97 308.41L387.53 308.19C387.728 308.119 387.919 308.028 388.1 307.92C388.285 307.84 388.465 307.75 388.64 307.65L388.9 307.49C388.947 307.475 388.991 307.451 389.03 307.42C393.59 304.54 396.52 297.66 396.52 288.03C396.503 285.479 396.303 282.933 395.92 280.41Z" fill="#407BFF"/>
<path opacity="0.4" d="M390.26 284.41C390.26 288.22 388.26 290.15 385.79 288.72C383.32 287.29 381.31 283.06 381.31 279.25C381.31 275.44 383.31 273.51 385.79 274.94C386.504 275.375 387.126 275.946 387.62 276.62C387.835 279.089 388.732 281.451 390.21 283.44C390.247 283.762 390.263 284.086 390.26 284.41Z" fill="black"/>
<path opacity="0.4" d="M402.76 284.4C402.76 294.27 399.68 301.25 394.92 304.01C393.92 304.55 390.44 306.59 389.01 307.41C393.57 304.53 396.5 297.65 396.5 288.02C396.489 285.473 396.296 282.93 395.92 280.41C393.82 266.07 386.11 251.87 376.92 246.57C372.66 244.11 368.72 243.93 365.52 245.62L371.42 242.22C374.69 240.31 378.77 240.4 383.18 242.95C392.37 248.26 400.08 262.45 402.18 276.8C402.561 279.316 402.755 281.856 402.76 284.4Z" fill="white"/>
<path d="M396.5 288C396.5 297.63 393.57 304.51 389.01 307.39C390.44 306.57 393.96 304.53 394.92 303.99C399.68 301.23 402.76 294.25 402.76 284.38C402.76 284.02 402.76 283.65 402.76 283.28L396.5 286.9C396.49 287.29 396.5 287.65 396.5 288Z" fill="#407BFF"/>
<path opacity="0.1" d="M396.5 288C396.5 297.63 393.57 304.51 389.01 307.39C390.44 306.57 393.96 304.53 394.92 303.99C399.68 301.23 402.76 294.25 402.76 284.38C402.76 284.02 402.76 283.65 402.76 283.28L396.5 286.9C396.49 287.29 396.5 287.65 396.5 288Z" fill="black"/>
<path opacity="0.15" d="M358.28 261.92V263.95L302.26 231.61L303.29 231.01V230.17L358.28 261.92Z" fill="black"/>
<path opacity="0.15" d="M358.28 262.76V263.95L302.26 231.61L303.29 231.01V231L358.28 262.76Z" fill="black"/>
<path opacity="0.15" d="M382.64 304C380.517 303.945 378.446 303.327 376.64 302.21C367.51 296.94 360.08 281.26 360.08 267.26C360.08 259.09 362.55 252.99 366.86 250.5C369.86 248.76 373.41 248.98 377.14 251.13C386.26 256.4 393.69 272.13 393.69 286.13C393.69 294.29 391.22 300.4 386.91 302.88C385.61 303.622 384.137 304.009 382.64 304ZM371.19 250.35C369.857 250.343 368.546 250.688 367.39 251.35C363.46 253.62 361.11 259.57 361.11 267.25C361.11 280.93 368.31 296.25 377.17 301.33C380.56 303.33 383.77 303.51 386.44 301.97C390.37 299.7 392.72 293.76 392.72 286.08C392.72 272.39 385.52 257.08 376.67 251.99C375.016 250.984 373.126 250.432 371.19 250.39V250.35Z" fill="black"/>
<path opacity="0.4" d="M360 251.72C359.068 253.653 358.395 255.701 358 257.81L302.21 225.59L308.47 221.98L360 251.72Z" fill="white"/>
<path d="M432.51 254.85C435.43 249.32 438.77 236.9 440.43 230.63C442.79 221.73 438.97 216.13 434.63 215.9C431.92 216.32 422.99 248.79 422.99 248.79C421.99 249.58 408.42 256.47 404.06 258.2C403.281 258.495 402.42 258.495 401.64 258.2C399.55 257.44 398.12 257.58 396.07 257.38C394.46 257.22 393.65 256.65 393.44 256.99C393.25 257.412 393.225 257.891 393.371 258.33C393.518 258.769 393.824 259.137 394.23 259.36C395.113 259.875 396.053 260.284 397.03 260.58C395.278 261.112 393.451 261.359 391.62 261.31C387.42 261.22 385.91 263.04 389.17 267.31C391.17 269.97 394.48 270.81 401.87 268.26C403.99 267.52 406.87 266.09 409.56 265.12C415.1 263.12 416.56 262.88 420.78 261.45C426.93 259.37 431.21 257.31 432.51 254.85Z" fill="#FFA8A7"/>
<path d="M433 215.06C435.55 215.41 438 215.98 439.51 218.06C441.02 220.14 442.23 223.06 440.75 231.01C439.617 236.601 438.1 242.107 436.21 247.49C436.21 247.49 430.27 250.03 423.96 243.59L428.3 226.81C428.3 226.81 429 215.9 433 215.06Z" fill="#455A64"/>
</svg>
