<svg width="429" height="130" viewBox="0 0 429 130" fill="none" xmlns="http://www.w3.org/2000/svg">
<g filter="url(#filter0_d_37_34)">
<path d="M82.3718 90.35C80.0718 90.35 78.0052 89.95 76.1718 89.15C74.3718 88.3167 72.9552 87.1833 71.9218 85.75C70.8885 84.2833 70.3552 82.6 70.3218 80.7H75.1718C75.3385 82.3333 76.0052 83.7167 77.1718 84.85C78.3718 85.95 80.1052 86.5 82.3718 86.5C84.5385 86.5 86.2385 85.9667 87.4718 84.9C88.7385 83.8 89.3718 82.4 89.3718 80.7C89.3718 79.3667 89.0052 78.2833 88.2718 77.45C87.5385 76.6167 86.6218 75.9833 85.5218 75.55C84.4218 75.1167 82.9385 74.65 81.0718 74.15C78.7718 73.55 76.9218 72.95 75.5218 72.35C74.1552 71.75 72.9718 70.8167 71.9718 69.55C71.0052 68.25 70.5218 66.5167 70.5218 64.35C70.5218 62.45 71.0052 60.7667 71.9718 59.3C72.9385 57.8333 74.2885 56.7 76.0218 55.9C77.7885 55.1 79.8052 54.7 82.0718 54.7C85.3385 54.7 88.0052 55.5167 90.0718 57.15C92.1718 58.7833 93.3552 60.95 93.6218 63.65H88.6218C88.4552 62.3167 87.7552 61.15 86.5218 60.15C85.2885 59.1167 83.6552 58.6 81.6218 58.6C79.7218 58.6 78.1718 59.1 76.9718 60.1C75.7718 61.0667 75.1718 62.4333 75.1718 64.2C75.1718 65.4667 75.5218 66.5 76.2218 67.3C76.9552 68.1 77.8385 68.7167 78.8718 69.15C79.9385 69.55 81.4218 70.0167 83.3218 70.55C85.6218 71.1833 87.4718 71.8167 88.8718 72.45C90.2718 73.05 91.4718 74 92.4718 75.3C93.4718 76.5667 93.9718 78.3 93.9718 80.5C93.9718 82.2 93.5218 83.8 92.6218 85.3C91.7218 86.8 90.3885 88.0167 88.6218 88.95C86.8552 89.8833 84.7718 90.35 82.3718 90.35ZM124.968 62.6V90H120.418V85.95C119.551 87.35 118.334 88.45 116.768 89.25C115.234 90.0167 113.534 90.4 111.668 90.4C109.534 90.4 107.618 89.9667 105.918 89.1C104.218 88.2 102.868 86.8667 101.868 85.1C100.901 83.3333 100.418 81.1833 100.418 78.65V62.6H104.918V78.05C104.918 80.75 105.601 82.8333 106.968 84.3C108.334 85.7333 110.201 86.45 112.568 86.45C115.001 86.45 116.918 85.7 118.318 84.2C119.718 82.7 120.418 80.5167 120.418 77.65V62.6H124.968ZM137.2 67.7C138.133 66.0667 139.5 64.7333 141.3 63.7C143.1 62.6667 145.15 62.15 147.45 62.15C149.917 62.15 152.133 62.7333 154.1 63.9C156.067 65.0667 157.617 66.7167 158.75 68.85C159.883 70.95 160.45 73.4 160.45 76.2C160.45 78.9667 159.883 81.4333 158.75 83.6C157.617 85.7667 156.05 87.45 154.05 88.65C152.083 89.85 149.883 90.45 147.45 90.45C145.083 90.45 143 89.9333 141.2 88.9C139.433 87.8667 138.1 86.55 137.2 84.95V90H132.65V53H137.2V67.7ZM155.8 76.2C155.8 74.1333 155.383 72.3333 154.55 70.8C153.717 69.2667 152.583 68.1 151.15 67.3C149.75 66.5 148.2 66.1 146.5 66.1C144.833 66.1 143.283 66.5167 141.85 67.35C140.45 68.15 139.317 69.3333 138.45 70.9C137.617 72.4333 137.2 74.2167 137.2 76.25C137.2 78.3167 137.617 80.1333 138.45 81.7C139.317 83.2333 140.45 84.4167 141.85 85.25C143.283 86.05 144.833 86.45 146.5 86.45C148.2 86.45 149.75 86.05 151.15 85.25C152.583 84.4167 153.717 83.2333 154.55 81.7C155.383 80.1333 155.8 78.3 155.8 76.2ZM176.139 90.45C174.039 90.45 172.156 90.1 170.489 89.4C168.822 88.6667 167.506 87.6667 166.539 86.4C165.572 85.1 165.039 83.6167 164.939 81.95H169.639C169.772 83.3167 170.406 84.4333 171.539 85.3C172.706 86.1667 174.222 86.6 176.089 86.6C177.822 86.6 179.189 86.2167 180.189 85.45C181.189 84.6833 181.689 83.7167 181.689 82.55C181.689 81.35 181.156 80.4667 180.089 79.9C179.022 79.3 177.372 78.7167 175.139 78.15C173.106 77.6167 171.439 77.0833 170.139 76.55C168.872 75.9833 167.772 75.1667 166.839 74.1C165.939 73 165.489 71.5667 165.489 69.8C165.489 68.4 165.906 67.1167 166.739 65.95C167.572 64.7833 168.756 63.8667 170.289 63.2C171.822 62.5 173.572 62.15 175.539 62.15C178.572 62.15 181.022 62.9167 182.889 64.45C184.756 65.9833 185.756 68.0833 185.889 70.75H181.339C181.239 69.3167 180.656 68.1667 179.589 67.3C178.556 66.4333 177.156 66 175.389 66C173.756 66 172.456 66.35 171.489 67.05C170.522 67.75 170.039 68.6667 170.039 69.8C170.039 70.7 170.322 71.45 170.889 72.05C171.489 72.6167 172.222 73.0833 173.089 73.45C173.989 73.7833 175.222 74.1667 176.789 74.6C178.756 75.1333 180.356 75.6667 181.589 76.2C182.822 76.7 183.872 77.4667 184.739 78.5C185.639 79.5333 186.106 80.8833 186.139 82.55C186.139 84.05 185.722 85.4 184.889 86.6C184.056 87.8 182.872 88.75 181.339 89.45C179.839 90.1167 178.106 90.45 176.139 90.45ZM211.762 63.5C212.495 63.5 213.095 63.75 213.562 64.25C214.029 64.7167 214.262 65.3167 214.262 66.05V87.55C214.262 90.4833 213.695 92.8667 212.562 94.7C211.462 96.5333 209.962 97.8667 208.062 98.7C206.195 99.5667 204.079 100 201.712 100C200.512 100 199.312 99.8833 198.112 99.65C196.912 99.45 195.929 99.15 195.162 98.75C194.362 98.3833 193.795 97.9333 193.462 97.4C193.129 96.8667 193.079 96.2833 193.312 95.65C193.545 94.85 193.945 94.3 194.512 94C195.079 93.7333 195.662 93.7167 196.262 93.95C196.829 94.1833 197.579 94.4833 198.512 94.85C199.445 95.2167 200.512 95.4 201.712 95.4C203.345 95.4 204.729 95.1333 205.862 94.6C206.995 94.0667 207.845 93.2333 208.412 92.1C209.012 90.9667 209.312 89.5 209.312 87.7V84.25L210.112 85.45C209.579 86.55 208.879 87.4667 208.012 88.2C207.145 88.9333 206.112 89.5 204.912 89.9C203.745 90.3 202.445 90.5 201.012 90.5C199.179 90.5 197.595 90.1 196.262 89.3C194.962 88.4667 193.962 87.3333 193.262 85.9C192.562 84.4333 192.212 82.7667 192.212 80.9V66.05C192.212 65.3167 192.445 64.7167 192.912 64.25C193.379 63.75 193.979 63.5 194.712 63.5C195.412 63.5 195.995 63.75 196.462 64.25C196.962 64.7167 197.212 65.3167 197.212 66.05V79.55C197.212 81.75 197.695 83.3667 198.662 84.4C199.629 85.4 201.062 85.9 202.962 85.9C204.229 85.9 205.329 85.6333 206.262 85.1C207.195 84.5667 207.929 83.8333 208.462 82.9C208.995 81.9333 209.262 80.8167 209.262 79.55V66.05C209.262 65.3167 209.495 64.7167 209.962 64.25C210.462 63.75 211.062 63.5 211.762 63.5ZM234.965 62.1C238.298 62.1 240.998 63.1167 243.065 65.15C245.131 67.15 246.165 70.05 246.165 73.85V90H241.665V74.5C241.665 71.7667 240.981 69.6833 239.615 68.25C238.248 66.7833 236.381 66.05 234.015 66.05C231.615 66.05 229.698 66.8 228.265 68.3C226.865 69.8 226.165 71.9833 226.165 74.85V90H221.615V62.6H226.165V66.5C227.065 65.1 228.281 64.0167 229.815 63.25C231.381 62.4833 233.098 62.1 234.965 62.1ZM251.897 76.25C251.897 73.4167 252.464 70.95 253.597 68.85C254.731 66.7167 256.297 65.0667 258.297 63.9C260.331 62.7333 262.647 62.15 265.247 62.15C268.614 62.15 271.381 62.9667 273.547 64.6C275.747 66.2333 277.197 68.5 277.897 71.4H272.997C272.531 69.7333 271.614 68.4167 270.247 67.45C268.914 66.4833 267.247 66 265.247 66C262.647 66 260.547 66.9 258.947 68.7C257.347 70.4667 256.547 72.9833 256.547 76.25C256.547 79.55 257.347 82.1 258.947 83.9C260.547 85.7 262.647 86.6 265.247 86.6C267.247 86.6 268.914 86.1333 270.247 85.2C271.581 84.2667 272.497 82.9333 272.997 81.2H277.897C277.164 84 275.697 86.25 273.497 87.95C271.297 89.6167 268.547 90.45 265.247 90.45C262.647 90.45 260.331 89.8667 258.297 88.7C256.297 87.5333 254.731 85.8833 253.597 83.75C252.464 81.6167 251.897 79.1167 251.897 76.25Z" fill="white"/>
<ellipse cx="102.718" cy="58" rx="3.02113" ry="3" fill="#A90623"/>
<ellipse cx="195.366" cy="59" rx="3.02113" ry="3" fill="white"/>
<ellipse cx="122.859" cy="58" rx="3.02113" ry="3" fill="#A90623"/>
<ellipse cx="212.486" cy="59" rx="3.02113" ry="3" fill="white"/>
</g>
<defs>
<filter id="filter0_d_37_34" x="-4" y="-20" width="437" height="158" filterUnits="userSpaceOnUse" color-interpolation-filters="sRGB">
<feFlood flood-opacity="0" result="BackgroundImageFix"/>
<feColorMatrix in="SourceAlpha" type="matrix" values="0 0 0 0 0 0 0 0 0 0 0 0 0 0 0 0 0 0 127 0" result="hardAlpha"/>
<feOffset dy="4"/>
<feGaussianBlur stdDeviation="2"/>
<feComposite in2="hardAlpha" operator="out"/>
<feColorMatrix type="matrix" values="0 0 0 0 0 0 0 0 0 0 0 0 0 0 0 0 0 0 0.25 0"/>
<feBlend mode="normal" in2="BackgroundImageFix" result="effect1_dropShadow_37_34"/>
<feBlend mode="normal" in="SourceGraphic" in2="effect1_dropShadow_37_34" result="shape"/>
</filter>
</defs>
</svg>
