<svg width="429" height="81" viewBox="0 0 429 81" fill="none" xmlns="http://www.w3.org/2000/svg">
<g filter="url(#filter0_d_37_11)">
<path d="M82.3718 56.35C80.0718 56.35 78.0052 55.95 76.1718 55.15C74.3718 54.3167 72.9552 53.1833 71.9218 51.75C70.8885 50.2833 70.3552 48.6 70.3218 46.7H75.1718C75.3385 48.3333 76.0052 49.7167 77.1718 50.85C78.3718 51.95 80.1052 52.5 82.3718 52.5C84.5385 52.5 86.2385 51.9667 87.4718 50.9C88.7385 49.8 89.3718 48.4 89.3718 46.7C89.3718 45.3667 89.0052 44.2833 88.2718 43.45C87.5385 42.6167 86.6218 41.9833 85.5218 41.55C84.4218 41.1167 82.9385 40.65 81.0718 40.15C78.7718 39.55 76.9218 38.95 75.5218 38.35C74.1552 37.75 72.9718 36.8167 71.9718 35.55C71.0052 34.25 70.5218 32.5167 70.5218 30.35C70.5218 28.45 71.0052 26.7667 71.9718 25.3C72.9385 23.8333 74.2885 22.7 76.0218 21.9C77.7885 21.1 79.8052 20.7 82.0718 20.7C85.3385 20.7 88.0052 21.5167 90.0718 23.15C92.1718 24.7833 93.3552 26.95 93.6218 29.65H88.6218C88.4552 28.3167 87.7552 27.15 86.5218 26.15C85.2885 25.1167 83.6552 24.6 81.6218 24.6C79.7218 24.6 78.1718 25.1 76.9718 26.1C75.7718 27.0667 75.1718 28.4333 75.1718 30.2C75.1718 31.4667 75.5218 32.5 76.2218 33.3C76.9552 34.1 77.8385 34.7167 78.8718 35.15C79.9385 35.55 81.4218 36.0167 83.3218 36.55C85.6218 37.1833 87.4718 37.8167 88.8718 38.45C90.2718 39.05 91.4718 40 92.4718 41.3C93.4718 42.5667 93.9718 44.3 93.9718 46.5C93.9718 48.2 93.5218 49.8 92.6218 51.3C91.7218 52.8 90.3885 54.0167 88.6218 54.95C86.8552 55.8833 84.7718 56.35 82.3718 56.35ZM124.968 28.6V56H120.418V51.95C119.551 53.35 118.334 54.45 116.768 55.25C115.234 56.0167 113.534 56.4 111.668 56.4C109.534 56.4 107.618 55.9667 105.918 55.1C104.218 54.2 102.868 52.8667 101.868 51.1C100.901 49.3333 100.418 47.1833 100.418 44.65V28.6H104.918V44.05C104.918 46.75 105.601 48.8333 106.968 50.3C108.334 51.7333 110.201 52.45 112.568 52.45C115.001 52.45 116.918 51.7 118.318 50.2C119.718 48.7 120.418 46.5167 120.418 43.65V28.6H124.968ZM137.2 33.7C138.133 32.0667 139.5 30.7333 141.3 29.7C143.1 28.6667 145.15 28.15 147.45 28.15C149.917 28.15 152.133 28.7333 154.1 29.9C156.067 31.0667 157.617 32.7167 158.75 34.85C159.883 36.95 160.45 39.4 160.45 42.2C160.45 44.9667 159.883 47.4333 158.75 49.6C157.617 51.7667 156.05 53.45 154.05 54.65C152.083 55.85 149.883 56.45 147.45 56.45C145.083 56.45 143 55.9333 141.2 54.9C139.433 53.8667 138.1 52.55 137.2 50.95V56H132.65V19H137.2V33.7ZM155.8 42.2C155.8 40.1333 155.383 38.3333 154.55 36.8C153.717 35.2667 152.583 34.1 151.15 33.3C149.75 32.5 148.2 32.1 146.5 32.1C144.833 32.1 143.283 32.5167 141.85 33.35C140.45 34.15 139.317 35.3333 138.45 36.9C137.617 38.4333 137.2 40.2167 137.2 42.25C137.2 44.3167 137.617 46.1333 138.45 47.7C139.317 49.2333 140.45 50.4167 141.85 51.25C143.283 52.05 144.833 52.45 146.5 52.45C148.2 52.45 149.75 52.05 151.15 51.25C152.583 50.4167 153.717 49.2333 154.55 47.7C155.383 46.1333 155.8 44.3 155.8 42.2ZM176.139 56.45C174.039 56.45 172.156 56.1 170.489 55.4C168.822 54.6667 167.506 53.6667 166.539 52.4C165.572 51.1 165.039 49.6167 164.939 47.95H169.639C169.772 49.3167 170.406 50.4333 171.539 51.3C172.706 52.1667 174.222 52.6 176.089 52.6C177.822 52.6 179.189 52.2167 180.189 51.45C181.189 50.6833 181.689 49.7167 181.689 48.55C181.689 47.35 181.156 46.4667 180.089 45.9C179.022 45.3 177.372 44.7167 175.139 44.15C173.106 43.6167 171.439 43.0833 170.139 42.55C168.872 41.9833 167.772 41.1667 166.839 40.1C165.939 39 165.489 37.5667 165.489 35.8C165.489 34.4 165.906 33.1167 166.739 31.95C167.572 30.7833 168.756 29.8667 170.289 29.2C171.822 28.5 173.572 28.15 175.539 28.15C178.572 28.15 181.022 28.9167 182.889 30.45C184.756 31.9833 185.756 34.0833 185.889 36.75H181.339C181.239 35.3167 180.656 34.1667 179.589 33.3C178.556 32.4333 177.156 32 175.389 32C173.756 32 172.456 32.35 171.489 33.05C170.522 33.75 170.039 34.6667 170.039 35.8C170.039 36.7 170.322 37.45 170.889 38.05C171.489 38.6167 172.222 39.0833 173.089 39.45C173.989 39.7833 175.222 40.1667 176.789 40.6C178.756 41.1333 180.356 41.6667 181.589 42.2C182.822 42.7 183.872 43.4667 184.739 44.5C185.639 45.5333 186.106 46.8833 186.139 48.55C186.139 50.05 185.722 51.4 184.889 52.6C184.056 53.8 182.872 54.75 181.339 55.45C179.839 56.1167 178.106 56.45 176.139 56.45ZM211.762 29.5C212.495 29.5 213.095 29.75 213.562 30.25C214.029 30.7167 214.262 31.3167 214.262 32.05V53.55C214.262 56.4833 213.695 58.8667 212.562 60.7C211.462 62.5333 209.962 63.8667 208.062 64.7C206.195 65.5667 204.079 66 201.712 66C200.512 66 199.312 65.8833 198.112 65.65C196.912 65.45 195.929 65.15 195.162 64.75C194.362 64.3833 193.795 63.9333 193.462 63.4C193.129 62.8667 193.079 62.2833 193.312 61.65C193.545 60.85 193.945 60.3 194.512 60C195.079 59.7333 195.662 59.7167 196.262 59.95C196.829 60.1833 197.579 60.4833 198.512 60.85C199.445 61.2167 200.512 61.4 201.712 61.4C203.345 61.4 204.729 61.1333 205.862 60.6C206.995 60.0667 207.845 59.2333 208.412 58.1C209.012 56.9667 209.312 55.5 209.312 53.7V50.25L210.112 51.45C209.579 52.55 208.879 53.4667 208.012 54.2C207.145 54.9333 206.112 55.5 204.912 55.9C203.745 56.3 202.445 56.5 201.012 56.5C199.179 56.5 197.595 56.1 196.262 55.3C194.962 54.4667 193.962 53.3333 193.262 51.9C192.562 50.4333 192.212 48.7667 192.212 46.9V32.05C192.212 31.3167 192.445 30.7167 192.912 30.25C193.379 29.75 193.979 29.5 194.712 29.5C195.412 29.5 195.995 29.75 196.462 30.25C196.962 30.7167 197.212 31.3167 197.212 32.05V45.55C197.212 47.75 197.695 49.3667 198.662 50.4C199.629 51.4 201.062 51.9 202.962 51.9C204.229 51.9 205.329 51.6333 206.262 51.1C207.195 50.5667 207.929 49.8333 208.462 48.9C208.995 47.9333 209.262 46.8167 209.262 45.55V32.05C209.262 31.3167 209.495 30.7167 209.962 30.25C210.462 29.75 211.062 29.5 211.762 29.5ZM234.965 28.1C238.298 28.1 240.998 29.1167 243.065 31.15C245.131 33.15 246.165 36.05 246.165 39.85V56H241.665V40.5C241.665 37.7667 240.981 35.6833 239.615 34.25C238.248 32.7833 236.381 32.05 234.015 32.05C231.615 32.05 229.698 32.8 228.265 34.3C226.865 35.8 226.165 37.9833 226.165 40.85V56H221.615V28.6H226.165V32.5C227.065 31.1 228.281 30.0167 229.815 29.25C231.381 28.4833 233.098 28.1 234.965 28.1ZM251.897 42.25C251.897 39.4167 252.464 36.95 253.597 34.85C254.731 32.7167 256.297 31.0667 258.297 29.9C260.331 28.7333 262.647 28.15 265.247 28.15C268.614 28.15 271.381 28.9667 273.547 30.6C275.747 32.2333 277.197 34.5 277.897 37.4H272.997C272.531 35.7333 271.614 34.4167 270.247 33.45C268.914 32.4833 267.247 32 265.247 32C262.647 32 260.547 32.9 258.947 34.7C257.347 36.4667 256.547 38.9833 256.547 42.25C256.547 45.55 257.347 48.1 258.947 49.9C260.547 51.7 262.647 52.6 265.247 52.6C267.247 52.6 268.914 52.1333 270.247 51.2C271.581 50.2667 272.497 48.9333 272.997 47.2H277.897C277.164 50 275.697 52.25 273.497 53.95C271.297 55.6167 268.547 56.45 265.247 56.45C262.647 56.45 260.331 55.8667 258.297 54.7C256.297 53.5333 254.731 51.8833 253.597 49.75C252.464 47.6167 251.897 45.1167 251.897 42.25Z" fill="#0B0087"/>
<ellipse cx="102.718" cy="24" rx="3.02113" ry="3" fill="#A90623"/>
<ellipse cx="195.366" cy="25" rx="3.02113" ry="3" fill="white"/>
<ellipse cx="122.859" cy="24" rx="3.02113" ry="3" fill="#A90623"/>
<ellipse cx="212.486" cy="25" rx="3.02113" ry="3" fill="white"/>
</g>
<defs>
<filter id="filter0_d_37_11" x="-4" y="-54" width="437" height="158" filterUnits="userSpaceOnUse" color-interpolation-filters="sRGB">
<feFlood flood-opacity="0" result="BackgroundImageFix"/>
<feColorMatrix in="SourceAlpha" type="matrix" values="0 0 0 0 0 0 0 0 0 0 0 0 0 0 0 0 0 0 127 0" result="hardAlpha"/>
<feOffset dy="4"/>
<feGaussianBlur stdDeviation="2"/>
<feComposite in2="hardAlpha" operator="out"/>
<feColorMatrix type="matrix" values="0 0 0 0 0 0 0 0 0 0 0 0 0 0 0 0 0 0 0.25 0"/>
<feBlend mode="normal" in2="BackgroundImageFix" result="effect1_dropShadow_37_11"/>
<feBlend mode="normal" in="SourceGraphic" in2="effect1_dropShadow_37_11" result="shape"/>
</filter>
</defs>
</svg>
