<svg width="741" height="436" viewBox="0 0 741 436" fill="none" xmlns="http://www.w3.org/2000/svg">
<g clip-path="url(#clip0_42_357)">
<path d="M119.967 49.6699C114.018 49.6766 108.315 52.0446 104.109 56.2542C99.9022 60.4638 97.536 66.1713 97.5293 72.1246V316.245C97.536 322.198 99.9022 327.906 104.109 332.115C108.315 336.325 114.018 338.693 119.967 338.7H625.588C631.537 338.693 637.24 336.325 641.447 332.115C645.653 327.906 648.019 322.198 648.026 316.245V72.1246C648.019 66.1713 645.653 60.4638 641.447 56.2542C637.24 52.0446 631.537 49.6766 625.588 49.6699H119.967Z" fill="white"/>
<path d="M625.588 339.576H119.967C113.787 339.569 107.861 337.108 103.49 332.734C99.1198 328.361 96.6613 322.43 96.6543 316.245V72.1246C96.6613 65.9391 99.1198 60.009 103.49 55.6352C107.861 51.2613 113.787 48.8011 119.967 48.794H625.588C631.769 48.8011 637.695 51.2614 642.065 55.6352C646.436 60.009 648.894 65.9391 648.901 72.1246V316.245C648.894 322.43 646.436 328.361 642.065 332.734C637.695 337.108 631.769 339.569 625.588 339.576ZM119.967 50.5458C114.251 50.5522 108.77 52.8277 104.727 56.8731C100.685 60.9186 98.4111 66.4035 98.4047 72.1246V316.245C98.4111 321.966 100.685 327.451 104.727 331.496C108.77 335.542 114.251 337.817 119.967 337.824H625.588C631.305 337.817 636.786 335.542 640.828 331.496C644.871 327.451 647.145 321.966 647.151 316.245V72.1246C647.145 66.4035 644.871 60.9186 640.828 56.8731C636.786 52.8277 631.305 50.5522 625.588 50.5458H119.967Z" fill="#3F3D56"/>
<path d="M265.86 325.901C265.899 324.921 262.898 324.006 259.157 323.857C255.416 323.709 252.352 324.383 252.314 325.363C252.275 326.344 255.276 327.259 259.016 327.407C262.757 327.556 265.821 326.881 265.86 325.901Z" fill="#E6E6E6"/>
<path d="M309.009 323.614C309.048 322.634 306.047 321.719 302.307 321.57C298.566 321.422 295.502 322.096 295.463 323.076C295.424 324.057 298.425 324.972 302.166 325.12C305.907 325.269 308.97 324.594 309.009 323.614Z" fill="#3F3D56"/>
<path d="M249.281 312.577C249.32 311.597 246.319 310.682 242.578 310.533C238.837 310.385 235.773 311.059 235.734 312.039C235.696 313.019 238.697 313.934 242.437 314.083C246.178 314.232 249.242 313.557 249.281 312.577Z" fill="#FF6584"/>
<path d="M228.44 307.709C228.54 306.834 227.279 305.972 225.625 305.783C223.97 305.594 222.548 306.151 222.448 307.026C222.348 307.901 223.609 308.763 225.264 308.952C226.919 309.141 228.341 308.584 228.44 307.709Z" fill="#E6E6E6"/>
<path d="M218.482 297.503C218.582 296.628 217.321 295.766 215.667 295.577C214.012 295.388 212.59 295.945 212.49 296.82C212.39 297.695 213.651 298.557 215.306 298.746C216.961 298.935 218.383 298.378 218.482 297.503Z" fill="#3F3D56"/>
<path d="M274.758 314.881C274.857 314.006 273.597 313.144 271.942 312.955C270.287 312.766 268.865 313.323 268.765 314.198C268.666 315.073 269.926 315.935 271.581 316.124C273.236 316.313 274.658 315.756 274.758 314.881Z" fill="#E6E6E6"/>
<path d="M255.01 319.224C255.109 318.349 253.849 317.487 252.194 317.298C250.539 317.109 249.117 317.666 249.017 318.541C248.918 319.416 250.178 320.279 251.833 320.467C253.488 320.656 254.91 320.1 255.01 319.224Z" fill="#FF6584"/>
<path d="M286.952 326.22C287.052 325.345 285.791 324.483 284.136 324.294C282.482 324.105 281.059 324.662 280.96 325.537C280.86 326.412 282.121 327.274 283.775 327.463C285.43 327.652 286.852 327.095 286.952 326.22Z" fill="#3F3D56"/>
<path d="M4.60965e-06 290.004C-0.000403291 290.141 0.0262636 290.277 0.0784617 290.403C0.13066 290.53 0.207367 290.645 0.304164 290.742C0.400961 290.839 0.515936 290.916 0.642484 290.968C0.769033 291.02 0.904652 291.047 1.04154 291.046H739.959C740.235 291.046 740.5 290.936 740.695 290.741C740.89 290.546 741 290.28 741 290.004C741 289.728 740.89 289.463 740.695 289.267C740.5 289.072 740.235 288.962 739.959 288.962H1.04149C0.904605 288.961 0.768998 288.988 0.642458 289.04C0.515917 289.093 0.400942 289.169 0.304151 289.266C0.20736 289.363 0.130658 289.478 0.0784617 289.605C0.0262652 289.731 -0.000398611 289.867 4.60965e-06 290.004Z" fill="#CCCCCC"/>
<path d="M252.571 271.59C252.067 271.613 251.569 271.481 251.143 271.211C250.718 270.941 250.385 270.547 250.191 270.082C249.997 269.617 249.95 269.103 250.057 268.611C250.164 268.118 250.42 267.67 250.79 267.328L250.958 266.658C250.936 266.605 250.914 266.551 250.891 266.498C250.384 265.299 249.535 264.277 248.449 263.561C247.364 262.844 246.091 262.464 244.791 262.469C243.49 262.474 242.22 262.863 241.14 263.588C240.06 264.313 239.218 265.341 238.72 266.543C236.73 271.341 234.195 276.147 233.571 281.22C233.296 283.462 233.412 285.736 233.914 287.938C229.238 277.732 226.81 266.638 226.795 255.41C226.794 252.593 226.95 249.777 227.263 246.977C227.522 244.682 227.881 242.403 228.34 240.14C230.846 227.863 236.227 216.355 244.04 206.562C247.821 204.498 250.879 201.322 252.802 197.465C253.498 196.078 253.991 194.598 254.264 193.07C253.837 193.126 252.655 186.624 252.977 186.225C252.382 185.323 251.318 184.874 250.669 183.993C247.44 179.612 242.991 180.377 240.669 186.331C235.708 188.836 235.66 192.992 238.704 196.989C240.641 199.532 240.907 202.972 242.606 205.695C242.431 205.919 242.249 206.136 242.075 206.36C238.879 210.472 236.093 214.888 233.758 219.544C234.326 214.328 233.648 209.051 231.781 204.148C229.888 199.579 226.34 195.73 223.216 191.78C219.464 187.035 211.768 189.106 211.107 195.121C211.101 195.179 211.095 195.237 211.089 195.295C211.553 195.557 212.007 195.835 212.451 196.129C213.01 196.503 213.442 197.036 213.693 197.66C213.943 198.283 213.999 198.968 213.854 199.624C213.708 200.28 213.369 200.877 212.879 201.337C212.389 201.796 211.771 202.097 211.108 202.199L211.04 202.21C211.205 203.883 211.497 205.542 211.914 207.171C207.906 222.683 216.559 228.332 228.914 228.586C229.187 228.726 229.452 228.866 229.725 228.999C227.379 235.652 225.907 242.583 225.347 249.616C225.03 253.765 225.049 257.933 225.403 262.08L225.382 261.933C224.487 257.322 222.029 253.162 218.424 250.155C213.07 245.753 205.505 244.132 199.728 240.593C199.114 240.199 198.4 239.988 197.67 239.987C196.941 239.985 196.226 240.192 195.61 240.583C194.994 240.975 194.503 241.534 194.195 242.196C193.886 242.858 193.773 243.594 193.869 244.318C193.877 244.369 193.885 244.421 193.893 244.472C194.754 244.823 195.592 245.227 196.403 245.683C196.867 245.945 197.321 246.223 197.766 246.517C198.324 246.89 198.757 247.424 199.007 248.047C199.257 248.671 199.314 249.356 199.168 250.012C199.023 250.668 198.683 251.265 198.193 251.724C197.703 252.184 197.086 252.484 196.422 252.587L196.354 252.597C196.305 252.604 196.263 252.611 196.214 252.618C197.686 256.134 199.751 259.37 202.319 262.185C204.825 275.725 215.589 277.01 227.103 273.067H227.11C228.373 278.561 230.203 283.908 232.571 289.023H252.082C252.152 288.806 252.215 288.582 252.278 288.365C250.472 288.479 248.659 288.371 246.879 288.043C248.326 286.266 249.774 284.474 251.222 282.697C251.254 282.663 251.284 282.628 251.312 282.592C252.047 281.682 252.788 280.779 253.522 279.869L253.523 279.868C253.562 277.079 253.241 274.297 252.571 271.59Z" fill="#F2F2F2"/>
<path d="M155.173 260.757C154.357 260.794 153.549 260.58 152.859 260.142C152.169 259.705 151.629 259.066 151.314 258.312C150.999 257.558 150.923 256.725 151.097 255.926C151.271 255.127 151.686 254.401 152.285 253.846C152.386 253.447 152.458 253.16 152.558 252.76C152.522 252.673 152.486 252.586 152.45 252.5C151.628 250.556 150.25 248.9 148.491 247.738C146.731 246.575 144.667 245.959 142.558 245.967C140.45 245.975 138.391 246.606 136.639 247.782C134.888 248.957 133.523 250.624 132.715 252.573C129.488 260.353 125.378 268.145 124.366 276.371C123.921 280.007 124.109 283.693 124.922 287.264C117.341 270.715 113.405 252.728 113.379 234.523C113.378 229.954 113.631 225.389 114.139 220.849C114.558 217.127 115.141 213.432 115.885 209.763C119.948 189.856 128.672 171.197 141.34 155.319C147.472 151.971 152.43 146.823 155.548 140.568C156.677 138.319 157.475 135.919 157.918 133.442C157.226 133.533 155.31 122.991 155.831 122.344C154.867 120.881 153.142 120.153 152.09 118.725C146.854 111.621 139.641 112.861 135.875 122.515C127.831 126.578 127.753 133.316 132.689 139.796C135.829 143.919 136.261 149.498 139.016 153.912C138.733 154.275 138.438 154.627 138.154 154.99C132.972 161.658 128.456 168.819 124.67 176.368C125.591 167.91 124.492 159.355 121.464 151.405C118.395 143.995 112.642 137.755 107.577 131.35C101.492 123.657 89.0149 127.014 87.9429 136.767C87.9326 136.862 87.9224 136.956 87.9126 137.05C88.665 137.475 89.4015 137.926 90.1221 138.403C91.0274 139.008 91.7289 139.873 92.1346 140.884C92.5404 141.895 92.6315 143.006 92.3959 144.069C92.1604 145.133 91.6093 146.101 90.8148 146.846C90.0203 147.591 89.0194 148.078 87.9434 148.244L87.8332 148.261C88.1012 150.975 88.575 153.665 89.2505 156.307C82.7519 181.457 96.7819 190.617 116.815 191.029C117.257 191.256 117.688 191.483 118.13 191.698C114.326 202.486 111.94 213.723 111.032 225.127C110.518 231.855 110.548 238.613 111.123 245.336L111.089 245.098C109.637 237.622 105.652 230.877 99.8068 226.001C91.1247 218.863 78.8584 216.235 69.492 210.498C64.9832 207.736 59.2056 211.305 59.9925 216.536C60.005 216.62 60.0178 216.704 60.0308 216.787C61.427 217.356 62.7865 218.012 64.1013 218.75C64.8537 219.175 65.5902 219.626 66.3108 220.103C67.2161 220.708 67.9176 221.573 68.3234 222.584C68.7291 223.595 68.8202 224.705 68.5847 225.769C68.3492 226.833 67.7981 227.801 67.0036 228.546C66.209 229.291 65.2082 229.778 64.1321 229.944L64.0218 229.961C63.9425 229.972 63.8744 229.984 63.7952 229.995C66.1809 235.696 69.5293 240.943 73.6938 245.507C77.7572 267.462 95.2095 269.545 113.878 263.151H113.889C115.938 272.059 118.906 280.729 122.745 289.023H154.38C154.493 288.671 154.595 288.308 154.697 287.956C151.769 288.141 148.83 287.965 145.944 287.434C148.291 284.552 150.638 281.647 152.985 278.765C153.038 278.711 153.087 278.654 153.133 278.595C154.323 277.12 155.525 275.656 156.716 274.181L156.716 274.179C156.78 269.657 156.261 265.146 155.174 260.757L155.173 260.757Z" fill="#F2F2F2"/>
<path d="M588.12 15.8008C585.996 -0.48978 548.448 0.549409 544.903 15.8762C543.022 14.699 538.238 15.5138 536.454 16.8669C534.67 18.2199 533.526 20.209 532.407 22.1398C530.878 24.8217 529.294 27.5995 528.955 30.6744C528.603 33.7435 529.808 37.2202 532.588 38.5868C534.794 39.6758 539.647 38.9404 542.072 38.4528C543.764 38.1162 545.184 37.8213 546.389 37.5322C546.794 35.6247 546.514 33.6354 545.6 31.9135C546.574 32.107 547.493 32.5139 548.292 33.105C549.09 33.6961 549.748 34.4567 550.218 35.3323C550.408 35.699 557.287 87.5201 557.287 87.5201C559.167 87.747 561.065 87.7944 562.955 87.6617C564.127 81.284 564.341 74.7668 563.588 68.326C565.58 72.0074 567.156 75.8995 568.286 79.9302C568.934 82.1846 569.466 84.4707 569.881 86.7795C586.253 83.7159 608.383 73.1636 612.421 55.2459C612.399 55.1881 612.377 55.1303 612.354 55.0725C612.134 54.5249 612.11 53.9176 612.288 53.3545C612.465 52.7915 612.833 52.3077 613.328 51.9861C613.822 51.6645 614.413 51.525 615 51.5916C615.586 51.6582 616.131 51.9267 616.541 52.3511C617.035 52.8594 617.475 53.2939 617.846 53.6306C616.411 42.188 607.738 31.8913 588.12 15.8008Z" fill="#2F2E41"/>
<path d="M349.077 414.773L339.898 409.97L354.453 371.465L368 378.554L349.077 414.773Z" fill="#A0616A"/>
<path d="M312.041 414.309C311.473 415.398 311.361 416.668 311.727 417.841C312.094 419.014 312.911 419.993 313.998 420.564L332.249 430.111L338.788 425.247L336.619 432.393L343.502 436L353.697 411.772L351.373 410.378L341.906 404.671L338.848 402.836L335.414 409.41L315.576 411.857C314.832 411.949 314.122 412.22 313.507 412.647C312.891 413.074 312.388 413.644 312.041 414.309Z" fill="#2F2E41"/>
<path d="M339.674 273.021L332.998 265.096L361.046 234.981L370.899 246.677L339.674 273.021Z" fill="#A0616A"/>
<path d="M305.575 258.548C304.637 259.341 304.052 260.474 303.947 261.698C303.843 262.923 304.228 264.138 305.018 265.079L318.293 280.834L326.187 278.813L321.473 284.603L326.478 290.552L345.086 271.996L343.463 269.825L336.862 260.954L334.727 258.096L329.06 262.877L309.774 257.62C309.052 257.423 308.292 257.405 307.561 257.566C306.829 257.728 306.148 258.065 305.575 258.548Z" fill="#2F2E41"/>
<path d="M634.105 243.326C634.105 243.326 662.449 304.039 545.072 287.679C545.072 287.679 482.536 218.323 484.342 209.978C484.342 209.978 457.726 182.912 459.029 182.419C460.331 181.926 461.134 180.856 458.982 180.953C456.83 181.051 456.83 177.845 456.83 177.845C456.83 177.845 408.729 230.048 368.226 255.952L354.223 240.187C354.223 240.187 359.684 223.091 362.309 223.091C364.935 223.091 365.84 223.723 366.263 220.342C366.685 216.96 364.595 214.057 367.39 213.757C370.186 213.457 428.131 145.684 428.131 145.684C428.131 145.684 434.383 123.361 453.483 127.682C472.584 132.003 571.836 212.757 571.836 212.757L634.105 243.326Z" fill="#2F2E41"/>
<path d="M586.308 289.646L431.24 288.359L363.85 395.212L344.806 385.123L349.027 383.34C349.027 383.34 347.749 368.489 349.315 364.729C350.881 360.969 355.538 362.1 355.538 362.1L394.828 271.425C397.538 263.376 402.861 256.466 409.95 251.796C417.039 247.126 425.485 244.964 433.944 245.655C466.454 240.91 519.228 244.701 574.055 249.357L586.308 289.646Z" fill="#2F2E41"/>
<path d="M496.528 107.793C499.48 108.246 502.138 109.833 503.938 112.218C505.738 114.602 506.537 117.596 506.166 120.561C506.081 121.162 505.946 121.756 505.763 122.335L537.626 146.522L531.051 167.02L490.982 129.164C488.64 128.22 486.677 126.526 485.399 124.347C484.121 122.168 483.599 119.627 483.915 117.12C484.109 115.696 484.581 114.323 485.305 113.081C486.029 111.839 486.99 110.752 488.134 109.882C489.277 109.012 490.581 108.375 491.97 108.009C493.36 107.643 494.807 107.555 496.231 107.749C496.33 107.762 496.429 107.777 496.528 107.793Z" fill="#A0616A"/>
<path d="M637.095 109.303L625.639 141.044L580.838 204.403C580.838 204.403 580.47 204.245 579.805 203.965C575.954 202.301 561.969 196.187 548.815 189.242C536.466 182.717 524.834 175.456 523.031 170.464C522.839 169.938 522.664 169.43 522.506 168.94V168.931C521.667 166.389 521.14 163.753 520.94 161.083C520.791 159.025 520.922 157.921 520.642 157.79C520.423 157.694 519.968 158.167 518.962 159.235C518.892 159.305 518.831 159.375 518.76 159.437C515.12 163.089 510.647 162.616 511.741 160.882C512.862 159.104 512.275 159.139 510.63 157.282C509.405 155.898 505.423 150.485 503.462 147.814C502.788 146.894 502.359 146.299 502.359 146.299L503.033 145.239L504.897 142.314L513.763 128.405L514.253 127.643C514.253 127.643 532.475 131.856 534.899 135.859C537.332 139.861 531.232 139.73 537.332 139.861C543.432 139.993 549.655 131.69 545.2 139.949C540.745 148.2 541.918 151.081 547.432 149.776C549.672 149.242 553.217 150.932 556.63 153.122V153.131C558.764 154.518 560.824 156.018 562.8 157.624C564.909 159.323 566.336 160.61 566.336 160.61L600.941 90.3497L604.774 82.5722C605.943 80.2055 607.571 78.0958 609.563 76.3663C611.556 74.6369 613.873 73.3224 616.38 72.4999L617.579 74.5932C625.044 85.5959 631.572 97.2066 637.095 109.303Z" fill="#6C63FF"/>
<path d="M639.012 210.043C649.619 212.513 638.335 289.785 625.691 290.026C533.796 291.777 561.776 240.181 556.849 235.241C551.921 230.293 547.475 233.84 551.921 226.141C555.159 220.536 559.964 221.368 560.034 218.224C560.069 217.05 559.448 215.333 557.838 212.513C551.921 202.143 551.921 199.051 551.921 199.051C550.446 195.937 549.401 192.637 548.814 189.242C547.854 184.193 547.736 179.02 548.464 173.932C549.575 166.468 552.368 159.355 556.63 153.131V153.122C557.076 152.456 557.54 151.782 558.03 151.116C559.142 149.601 565.303 149.89 565.303 149.89L578.431 94.7115L570.834 72.7102L606.813 55.8413L616.379 72.5L617.578 74.5932C625.044 85.5959 631.572 97.2067 637.095 109.303C642.407 121.136 646.775 134.274 646.932 145.703C647.352 175.508 642.215 184.372 642.215 184.372C642.215 184.372 654.687 193.7 648.446 199.402C642.215 205.112 628.404 207.573 639.012 210.043Z" fill="#6C63FF"/>
<path d="M476.016 100.534L470.146 104.997C468.986 105.884 468.226 107.195 468.03 108.643C467.835 110.09 468.221 111.557 469.103 112.72L483.242 131.318L491.59 142.29C492.476 143.448 493.784 144.209 495.228 144.404C496.672 144.599 498.135 144.214 499.296 143.332L505.173 138.864C506.328 137.974 507.085 136.664 507.279 135.218C507.473 133.773 507.088 132.309 506.209 131.146L505.343 130L488.216 107.48L483.722 101.576C483.285 101.001 482.738 100.518 482.114 100.155C481.49 99.7909 480.801 99.554 480.085 99.4572C479.369 99.3604 478.642 99.4056 477.944 99.5904C477.246 99.7752 476.591 100.096 476.016 100.534Z" fill="#3F3D56"/>
<path d="M479.086 100.197L472.762 104.611C472.205 104.976 471.731 105.456 471.371 106.017C471.012 106.579 470.776 107.211 470.679 107.87C470.581 108.53 470.625 109.203 470.806 109.844C470.987 110.486 471.302 111.082 471.731 111.593L480.008 121.574L484.419 126.891L487.362 130.439L493.944 138.375C494.875 139.44 496.165 140.124 497.567 140.299C498.97 140.474 500.388 140.126 501.551 139.322L506.29 136.014L507.866 134.913C508.652 134.389 509.266 133.644 509.63 132.771C509.994 131.899 510.093 130.938 509.913 130.01C509.754 129.239 509.406 128.52 508.9 127.917L489.45 104.463L486.693 101.143C485.763 100.077 484.474 99.3913 483.07 99.2166C481.667 99.0419 480.249 99.3908 479.086 100.197Z" fill="#6C63FF"/>
<path d="M483.127 124.848C486.078 125.301 488.737 126.888 490.537 129.273C492.337 131.657 493.136 134.65 492.764 137.616C492.679 138.217 492.545 138.811 492.362 139.39L524.225 163.577L517.649 184.075L477.581 146.219C475.239 145.274 473.276 143.58 471.998 141.402C470.719 139.223 470.198 136.682 470.514 134.175C470.708 132.75 471.18 131.378 471.904 130.136C472.628 128.894 473.589 127.807 474.732 126.937C475.876 126.066 477.18 125.43 478.569 125.064C479.958 124.698 481.406 124.609 482.83 124.803C482.929 124.817 483.028 124.832 483.127 124.848Z" fill="#A0616A"/>
<path d="M613.08 88.9773C615.865 89.5448 618.495 90.7058 620.792 92.3815C623.089 94.0572 624.998 96.2082 626.39 98.6883C627.782 101.168 628.623 103.919 628.858 106.754C629.092 109.589 628.714 112.441 627.749 115.116L612.242 158.096L567.433 221.461C567.433 221.461 513.696 198.746 509.628 187.518C505.559 176.29 509.233 172.416 505.559 176.29C501.885 180.165 497.227 179.705 498.342 177.932C499.457 176.159 498.871 176.197 497.228 174.34C495.586 172.483 488.959 163.356 488.959 163.356L500.851 144.7C500.851 144.7 519.074 148.909 521.501 152.915C523.929 156.92 517.827 156.789 523.929 156.92C530.031 157.051 536.256 148.744 531.799 157.001C527.342 165.258 528.517 168.137 534.031 166.829C539.545 165.52 552.93 177.667 552.93 177.667L591.376 99.6288C593.31 95.7036 596.488 92.5297 600.415 90.6028C604.341 88.6758 608.795 88.1042 613.08 88.9773Z" fill="#6C63FF"/>
<path d="M590.151 63.1052C601.29 51.9575 601.29 33.8834 590.151 22.7356C579.011 11.5878 560.951 11.5878 549.811 22.7356C538.672 33.8834 538.672 51.9575 549.811 63.1052C560.951 74.253 579.011 74.253 590.151 63.1052Z" fill="#A0616A"/>
<path d="M603.337 11.8225C601.213 -4.46808 563.665 -3.42889 560.119 11.8979C558.239 10.7207 553.455 11.5355 551.671 12.8886C549.886 14.2416 548.743 16.2307 547.623 18.1615C546.095 20.8434 535.399 29.9165 533.796 27.2712C530.189 21.318 523.116 34.3268 528.545 43.0365C529.847 45.1248 555.002 41.7723 557.426 41.2848C556.221 41.5739 559.118 40.9481 557.426 41.2848C557.816 39.3953 561.746 29.6328 560.816 27.9351C561.791 28.1287 562.71 28.5356 563.508 29.1267C564.307 29.7178 564.964 30.4784 565.434 31.354C565.624 31.7207 572.504 83.5418 572.504 83.5418C574.384 83.7686 576.282 83.816 578.171 83.6833C579.344 77.3057 579.557 70.7885 578.804 64.3477C580.796 68.029 582.372 71.9211 583.503 75.9518C584.151 78.2063 584.683 80.4924 585.098 82.8012C601.469 79.7376 623.6 69.1853 627.638 51.2675C605.562 43.9123 622.955 27.913 603.337 11.8225Z" fill="#2F2E41"/>
<path d="M353.659 93.6843C354.025 91.168 351.391 88.7015 347.777 88.1752C344.162 87.6489 340.935 89.2622 340.57 91.7785C340.204 94.2948 342.837 96.7613 346.452 97.2876C350.066 97.8139 353.293 96.2007 353.659 93.6843Z" fill="#E6E6E6"/>
<path d="M396.693 89.482C397.059 86.9657 394.425 84.4992 390.811 83.9729C387.196 83.4466 383.97 85.0598 383.604 87.5761C383.238 90.0924 385.872 92.559 389.486 93.0853C393.101 93.6116 396.327 91.9983 396.693 89.482Z" fill="#3F3D56"/>
<path d="M341.875 58.8185C342.241 56.3022 339.607 53.8356 335.993 53.3093C332.378 52.783 329.151 54.3963 328.785 56.9126C328.42 59.4289 331.053 61.8954 334.668 62.4217C338.282 62.948 341.509 61.3348 341.875 58.8185Z" fill="#FF6584"/>
<path d="M323.175 44.5369C323.192 42.2268 321.905 40.3443 320.299 40.3321C318.693 40.32 317.377 42.1828 317.36 44.4929C317.342 46.803 318.63 48.6855 320.236 48.6977C321.842 48.7098 323.157 46.847 323.175 44.5369Z" fill="#E6E6E6"/>
<path d="M316.833 17.936C316.851 15.6259 315.563 13.7434 313.957 13.7312C312.351 13.719 311.035 15.5819 311.018 17.892C311 20.202 312.288 22.0846 313.894 22.0967C315.5 22.1089 316.816 20.246 316.833 17.936Z" fill="#3F3D56"/>
<path d="M366.147 64.7517C366.164 62.4417 364.876 60.5591 363.271 60.547C361.665 60.5348 360.349 62.3977 360.331 64.7077C360.314 67.0178 361.602 68.9004 363.207 68.9125C364.813 68.9247 366.129 67.0618 366.147 64.7517Z" fill="#E6E6E6"/>
<path d="M345.35 75.1428C345.367 72.8327 344.08 70.9502 342.474 70.938C340.868 70.9259 339.552 72.7887 339.535 75.0988C339.517 77.4089 340.805 79.2914 342.41 79.3035C344.016 79.3157 345.332 77.4529 345.35 75.1428Z" fill="#FF6584"/>
<path d="M374.299 94.3482C374.316 92.0381 373.029 90.1556 371.423 90.1434C369.817 90.1312 368.501 91.9941 368.484 94.3042C368.466 96.6142 369.754 98.4968 371.36 98.5089C372.966 98.5211 374.281 96.6583 374.299 94.3482Z" fill="#3F3D56"/>
<path d="M473.646 118.912C474.04 118.63 473.789 117.605 473.086 116.621C472.383 115.637 471.495 115.068 471.102 115.349C470.708 115.63 470.959 116.656 471.662 117.64C472.365 118.623 473.253 119.193 473.646 118.912Z" fill="#3F3D56"/>
<path d="M471.02 115.408C471.414 115.127 471.163 114.101 470.46 113.118C469.757 112.134 468.869 111.564 468.476 111.846C468.082 112.127 468.333 113.153 469.036 114.136C469.739 115.12 470.627 115.69 471.02 115.408Z" fill="#3F3D56"/>
</g>
<defs>
<clipPath id="clip0_42_357">
<rect width="741" height="436" fill="white"/>
</clipPath>
</defs>
</svg>
