<svg width="542" height="324" viewBox="0 0 542 324" fill="none" xmlns="http://www.w3.org/2000/svg">
<g clip-path="url(#clip0_37_68)">
<path d="M414.968 320.336C408.029 314.473 403.814 305.212 404.919 296.196C406.025 287.18 412.871 278.892 421.752 276.977C430.632 275.062 440.755 280.362 443.453 289.036C444.937 272.313 446.648 254.89 455.54 240.649C463.591 227.754 477.537 218.527 492.65 216.876C507.764 215.225 523.677 221.46 533.103 233.387C542.529 245.315 544.836 262.655 538.235 276.349C533.372 286.437 524.412 293.944 515.024 300.052C484.69 319.622 448.308 327.58 412.572 322.462L414.968 320.336Z" fill="#F2F2F2"/>
<path d="M518.157 221.805C505.686 231.962 494.246 243.321 484.001 255.718C467.968 275.054 454.993 296.732 445.53 319.999C444.837 321.696 447.594 322.435 448.279 320.756C463.762 282.944 488.481 249.616 520.173 223.821C521.596 222.662 519.568 220.656 518.157 221.805Z" fill="white"/>
<path d="M174.479 318.743C184.009 310.691 189.799 297.97 188.28 285.587C186.762 273.203 177.359 261.819 165.161 259.189C152.964 256.56 139.06 263.839 135.355 275.753C133.316 252.784 130.967 228.852 118.753 209.292C107.695 191.581 88.5406 178.908 67.7819 176.641C47.0232 174.374 25.167 182.937 12.2206 199.319C-0.725842 215.702 -3.89572 239.518 5.17162 258.327C11.8512 272.182 24.1574 282.494 37.0512 290.883C78.1868 317.646 129.216 328.808 177.77 321.664" fill="#F2F2F2"/>
<path d="M32.7484 183.411C49.8769 197.361 65.5904 212.962 79.6618 229.99C93.7354 247.001 106.126 265.336 116.659 284.738C122.546 295.622 127.835 306.819 132.502 318.28C133.453 320.611 129.667 321.626 128.726 319.321C120.46 299.116 110.234 279.77 98.194 261.56C86.2123 243.416 72.4987 226.477 57.2457 210.981C48.6186 202.22 39.5162 193.941 29.9798 186.179C28.0251 184.588 30.8099 181.833 32.7484 183.411Z" fill="white"/>
<path d="M389.056 323.291H161.666V90.0106C161.666 40.3785 202.049 0 251.687 0H299.035C348.673 0 389.056 40.3785 389.056 90.0106V323.291Z" fill="#F2F2F2"/>
<path d="M341.709 323.291H161.666V90.0106C161.616 70.9927 167.639 52.4555 178.857 37.0979C179.271 36.5343 179.683 35.978 180.109 35.4277C185.535 28.3117 191.993 22.0446 199.268 16.8335C199.679 16.5345 200.092 16.2407 200.511 15.9469C206.599 11.7344 213.184 8.29078 220.117 5.6944C220.529 5.53836 220.948 5.38202 221.368 5.23207C227.638 2.99462 234.138 1.46198 240.748 0.662445C241.157 0.606476 241.578 0.56268 241.999 0.518883C248.44 -0.169726 254.936 -0.169726 261.377 0.518883C261.797 0.56268 262.217 0.606471 262.632 0.663043C269.24 1.46263 275.738 2.99509 282.007 5.2321C282.426 5.38205 282.846 5.53838 283.259 5.69472C290.106 8.25835 296.614 11.6506 302.638 15.7957C303.056 16.0832 303.475 16.377 303.888 16.6708C307.966 19.5815 311.796 22.8242 315.34 26.3658C318.182 29.2065 320.831 32.2346 323.267 35.4296C323.691 35.978 324.104 36.5343 324.517 37.097C335.736 52.4548 341.759 70.9924 341.709 90.0106V323.291Z" fill="#CCCCCC"/>
<path d="M327.069 218.953C332.574 218.953 337.037 214.491 337.037 208.987C337.037 203.482 332.574 199.02 327.069 199.02C321.564 199.02 317.101 203.482 317.101 208.987C317.101 214.491 321.564 218.953 327.069 218.953Z" fill="#6C63FF"/>
<path d="M370.428 316.304H362.791L359.157 286.847L370.43 286.848L370.428 316.304Z" fill="#FFB8B8"/>
<path d="M357.335 314.121H372.065V323.395H348.061C348.061 322.177 348.3 320.971 348.767 319.846C349.233 318.721 349.916 317.699 350.777 316.837C351.638 315.976 352.661 315.293 353.786 314.827C354.911 314.361 356.117 314.121 357.335 314.121Z" fill="#2F2E41"/>
<path d="M408.431 316.304H400.793L397.159 286.847L408.432 286.848L408.431 316.304Z" fill="#FFB8B8"/>
<path d="M395.337 314.121H410.067V323.395H386.063C386.063 322.177 386.303 320.971 386.769 319.846C387.235 318.721 387.918 317.699 388.779 316.837C389.64 315.976 390.663 315.293 391.788 314.827C392.913 314.361 394.119 314.121 395.337 314.121Z" fill="#2F2E41"/>
<path d="M332.114 210.961C331.564 210.152 331.199 209.231 331.044 208.266C330.888 207.3 330.947 206.312 331.215 205.371C331.482 204.43 331.953 203.559 332.594 202.82C333.235 202.081 334.03 201.491 334.924 201.092L360.887 129.54L373.663 136.512L344.018 204.889C344.589 206.434 344.572 208.135 343.972 209.669C343.373 211.203 342.231 212.464 340.763 213.212C339.296 213.96 337.605 214.145 336.011 213.73C334.417 213.315 333.03 212.33 332.114 210.961Z" fill="#FFB8B8"/>
<path d="M404.529 224.406C403.68 223.919 402.949 223.253 402.385 222.453C401.822 221.653 401.441 220.739 401.269 219.776C401.098 218.813 401.139 217.824 401.391 216.878C401.643 215.933 402.099 215.054 402.727 214.304L394.684 138.615L409.223 139.279L412.566 213.73C413.756 214.868 414.487 216.404 414.62 218.046C414.754 219.687 414.281 221.321 413.29 222.637C412.299 223.953 410.86 224.86 409.246 225.186C407.631 225.512 405.953 225.234 404.529 224.406Z" fill="#FFB8B8"/>
<path d="M381.335 116.287C389.786 116.287 396.636 109.437 396.636 100.988C396.636 92.5383 389.786 85.6886 381.335 85.6886C372.884 85.6886 366.034 92.5383 366.034 100.988C366.034 109.437 372.884 116.287 381.335 116.287Z" fill="#FFB8B8"/>
<path d="M404.431 207.192H358.301L358.357 206.833C358.439 206.296 366.578 152.989 360.575 135.549C359.973 133.836 360.026 131.96 360.724 130.283C361.422 128.605 362.716 127.246 364.357 126.465C372.936 122.425 389.406 117.451 403.306 129.523C405.352 131.329 406.949 133.586 407.972 136.115C408.994 138.644 409.415 141.377 409.199 144.097L404.431 207.192Z" fill="#6C63FF"/>
<path d="M367.161 160.867L346.393 156.654L356.128 133.588C356.71 131.354 358.155 129.442 360.146 128.272C362.136 127.101 364.509 126.768 366.745 127.345C368.981 127.923 370.897 129.363 372.072 131.35C373.247 133.338 373.586 135.71 373.014 137.947L367.161 160.867Z" fill="#6C63FF"/>
<path d="M393.76 168.689L392.512 140.072C391.565 134.692 394.645 129.607 399.382 128.776C404.12 127.947 408.746 131.678 409.697 137.098L414.39 163.838L393.76 168.689Z" fill="#6C63FF"/>
<path d="M402.897 203.766C410.319 232.031 411.129 267.969 409.126 307.169L399.159 305.923L381.092 231.174L371.124 307.169L359.91 306.546C356.56 265.415 353.298 230.105 358.664 206.88L402.897 203.766Z" fill="#2F2E41"/>
<path d="M391.417 112.812C388.562 115.852 383.261 114.22 382.889 110.066C382.86 109.744 382.862 109.419 382.895 109.097C383.087 107.258 384.151 105.587 383.896 103.645C383.838 103.161 383.658 102.7 383.373 102.306C381.098 99.2604 375.758 103.668 373.611 100.911C372.295 99.2206 373.842 96.5588 372.832 94.6693C371.499 92.1754 367.55 93.4056 365.074 92.0399C362.318 90.5203 362.483 86.2934 364.297 83.7224C366.509 80.5869 370.387 78.9138 374.217 78.6726C378.047 78.4315 381.85 79.4667 385.426 80.86C389.488 82.443 393.517 84.6308 396.017 88.2025C399.057 92.5462 399.35 98.3859 397.829 103.465C396.905 106.555 393.748 110.329 391.417 112.812Z" fill="#2F2E41"/>
<path d="M523.299 323.692H63.3502C63.1539 323.691 62.9658 323.613 62.8271 323.474C62.6885 323.335 62.6106 323.146 62.6106 322.95C62.6106 322.754 62.6885 322.565 62.8271 322.426C62.9658 322.287 63.1539 322.209 63.3502 322.208H523.299C523.495 322.209 523.683 322.287 523.822 322.426C523.961 322.565 524.039 322.754 524.039 322.95C524.039 323.146 523.961 323.335 523.822 323.474C523.683 323.613 523.495 323.691 523.299 323.692Z" fill="#3F3D56"/>
<path d="M292.181 255.705H211.193C210.126 255.711 209.101 255.293 208.342 254.544C207.583 253.795 207.152 252.775 207.144 251.709V70.9591C207.152 69.8926 207.583 68.873 208.342 68.1238C209.101 67.3747 210.126 66.9572 211.193 66.9629H292.181C293.248 66.9572 294.273 67.3747 295.033 68.1238C295.792 68.873 296.223 69.8926 296.231 70.9591V251.709C296.223 252.775 295.792 253.795 295.033 254.544C294.273 255.293 293.248 255.711 292.181 255.705Z" fill="white"/>
<path d="M296.231 125.448H207.144V126.694H296.231V125.448Z" fill="#CCCCCC"/>
<path d="M296.542 196.528H207.455V197.774H296.542V196.528Z" fill="#CCCCCC"/>
<path d="M236.424 66.9629H235.178V256.328H236.424V66.9629Z" fill="#CCCCCC"/>
<path d="M267.574 66.9629H266.328V256.328H267.574V66.9629Z" fill="#CCCCCC"/>
</g>
<defs>
<clipPath id="clip0_37_68">
<rect width="542" height="324" fill="white"/>
</clipPath>
</defs>
</svg>
