<svg width="526" height="377" viewBox="0 0 526 377" fill="none" xmlns="http://www.w3.org/2000/svg">
<g clip-path="url(#clip0_37_116)">
<path d="M13.9272 376.168C13.9272 376.63 14.2982 377 14.7601 377H525.167C525.629 377 526 376.63 526 376.168C526 375.707 525.629 375.337 525.167 375.337H14.7601C14.2982 375.337 13.9272 375.707 13.9272 376.168Z" fill="#3F3D58"/>
<path d="M177.368 66.5002H13.6686C7.42577 66.5002 2.34473 61.4262 2.34473 55.192C2.34473 48.9579 7.42577 43.8839 13.6686 43.8839H177.368C183.611 43.8839 188.692 48.9579 188.692 55.192C188.692 61.4262 183.611 66.5002 177.368 66.5002ZM13.6686 45.2816C8.19563 45.2816 3.74446 49.7266 3.74446 55.192C3.74446 60.6574 8.19563 65.1024 13.6686 65.1024H177.368C182.841 65.1024 187.292 60.6574 187.292 55.192C187.292 49.7266 182.841 45.2816 177.368 45.2816H13.6686Z" fill="#E2E3E4"/>
<path d="M177.367 198.837H13.6683C7.61441 198.837 2.69434 193.923 2.69434 187.878C2.69434 181.833 7.61441 176.919 13.6683 176.919H177.367C183.421 176.919 188.341 181.833 188.341 187.878C188.341 193.923 183.421 198.837 177.367 198.837Z" fill="#6C63FF"/>
<path d="M123.723 21.9175H10.9739C4.92007 21.9175 0 17.0042 0 10.9587C0 4.91326 4.92007 0 10.9739 0H123.723C129.777 0 134.697 4.91326 134.697 10.9587C134.697 17.0042 129.777 21.9175 123.723 21.9175Z" fill="#E2E3E4"/>
<path d="M177.368 110.727H13.6686C7.42577 110.727 2.34473 105.653 2.34473 99.4184C2.34473 93.1842 7.42577 88.1102 13.6686 88.1102H177.368C183.611 88.1102 188.692 93.1842 188.692 99.4184C188.692 105.653 183.611 110.727 177.368 110.727ZM13.6686 89.508C8.19563 89.508 3.74446 93.953 3.74446 99.4184C3.74446 104.884 8.19563 109.329 13.6686 109.329H177.368C182.841 109.329 187.292 104.884 187.292 99.4184C187.292 93.953 182.841 89.508 177.368 89.508H13.6686Z" fill="#E2E3E4"/>
<path d="M177.368 154.96H13.6686C7.42577 154.96 2.34473 149.886 2.34473 143.652C2.34473 137.417 7.42577 132.343 13.6686 132.343H177.368C183.611 132.343 188.692 137.417 188.692 143.652C188.692 149.886 183.611 154.96 177.368 154.96ZM13.6686 133.741C8.19563 133.741 3.74446 138.186 3.74446 143.652C3.74446 149.117 8.19563 153.562 13.6686 153.562H177.368C182.841 153.562 187.292 149.117 187.292 143.652C187.292 138.186 182.841 133.741 177.368 133.741H13.6686Z" fill="#E2E3E4"/>
<path d="M8.04166 35.7626H50.9436C51.9654 35.7626 52.7982 36.5874 52.7982 37.6147C52.7982 38.6351 51.9654 39.4668 50.9436 39.4668H8.04166C7.01985 39.4668 6.18701 38.6421 6.18701 37.6147C6.18701 36.5943 7.01985 35.7626 8.04166 35.7626Z" fill="#E2E3E4"/>
<path d="M8.04166 81.0373H50.9436C51.9654 81.0373 52.7982 81.862 52.7982 82.8824C52.7982 83.9028 51.9654 84.7345 50.9436 84.7345H8.04166C7.01985 84.7345 6.18701 83.9098 6.18701 82.8894C6.18701 81.869 7.01985 81.0373 8.04166 81.0373Z" fill="#E2E3E4"/>
<path d="M8.04166 126.319H50.9436C51.9654 126.319 52.7982 127.144 52.7982 128.171C52.7982 129.191 51.9654 130.016 50.9436 130.016H8.04166C7.01985 130.016 6.18701 129.191 6.18701 128.164C6.18701 127.144 7.01985 126.319 8.04166 126.319Z" fill="#E2E3E4"/>
<path d="M312.897 92.4364L297.248 97.5803V75.0827H311.448L312.897 92.4364Z" fill="#9F616A"/>
<path d="M299.187 81.3099C307.799 81.3099 314.78 74.3383 314.78 65.7384C314.78 57.1385 307.799 50.167 299.187 50.167C290.575 50.167 283.594 57.1385 283.594 65.7384C283.594 74.3383 290.575 81.3099 299.187 81.3099Z" fill="#9F616A"/>
<path d="M303.47 64.1939C300.86 64.117 299.145 61.4821 298.13 59.0779C297.115 56.6737 296.072 53.9131 293.651 52.9206C291.67 52.1099 288.178 57.5963 286.617 56.1356C284.987 54.612 286.575 46.7913 288.304 45.3865C290.033 43.9817 292.398 43.7091 294.624 43.6043C300.055 43.3527 305.521 43.793 310.847 44.9043C314.143 45.5892 317.53 46.6235 319.91 48.9998C322.919 52.019 323.689 56.5689 323.906 60.8252C324.13 65.1793 323.878 69.7361 321.758 73.5451C319.637 77.3541 315.2 80.1637 310.945 79.1922C310.518 76.8859 310.952 74.5166 311.12 72.1683C311.281 69.827 311.113 67.297 309.678 65.4309C308.25 63.5649 305.185 62.824 303.519 64.4804" fill="#2F2E43"/>
<path d="M322.653 69.5894C324.214 68.4501 326.083 67.4927 328 67.7303C330.072 67.9819 331.829 69.6872 332.361 71.707C332.892 73.7268 332.298 75.9493 331.01 77.5987C329.729 79.2481 327.818 80.3384 325.803 80.8836C324.634 81.1981 323.353 81.3309 322.24 80.8556C320.603 80.1497 319.714 78.06 320.358 76.3966" fill="#2F2E43"/>
<path d="M262.983 216.1C261.94 221.215 263.85 225.891 267.238 226.541C270.625 227.191 274.216 223.564 275.251 218.448C275.692 216.407 275.622 214.296 275.048 212.284L287.947 132.085L271.815 129.052L265.586 210.473C264.263 212.123 263.375 214.052 262.983 216.107V216.1Z" fill="#9F616A"/>
<path d="M297.08 87.2575H286.071C278.289 88.4387 276.175 92.5831 274.404 100.243C271.703 111.929 268.253 127.486 268.938 127.717C270.037 128.08 288.78 136.886 298.333 134.873L297.08 87.2575Z" fill="#E2E3E4"/>
<path d="M307.725 342.712H293.07V363.476H307.725V342.712Z" fill="#9F616A"/>
<path d="M278.8 376.043C277.26 376.043 275.888 376.008 274.852 375.91C270.961 375.553 267.245 372.681 265.376 371.003C264.536 370.249 264.27 369.047 264.704 368.012C265.019 367.271 265.642 366.712 266.419 366.496L276.707 363.56L293.364 352.336L293.553 352.671C293.623 352.797 295.26 355.74 295.806 357.724C296.016 358.479 295.96 359.108 295.645 359.597C295.428 359.933 295.12 360.129 294.876 360.24C295.176 360.555 296.121 361.198 299.033 361.659C303.281 362.33 304.177 357.934 304.212 357.752L304.24 357.606L304.366 357.522C306.388 356.222 307.634 355.628 308.061 355.753C308.327 355.83 308.775 355.97 309.986 367.942C310.105 368.32 310.952 371.073 310.378 373.708C309.755 376.574 297.213 375.588 294.701 375.365C294.631 375.372 285.238 376.043 278.807 376.043H278.8Z" fill="#2F2E43"/>
<path d="M349.456 326.398L337.021 334.143L348.024 351.761L360.459 344.017L349.456 326.398Z" fill="#9F616A"/>
<path d="M332.942 373.198C331.22 373.198 329.638 372.988 328.511 372.793C327.406 372.597 326.538 371.716 326.356 370.612C326.23 369.815 326.461 369.012 327.007 368.418L334.18 360.492L342.369 342.167L342.705 342.349C342.831 342.419 345.777 344.047 347.296 345.445C347.877 345.976 348.164 346.542 348.15 347.122C348.143 347.527 347.989 347.849 347.835 348.08C348.255 348.191 349.396 348.233 352.111 347.087C356.072 345.417 354.505 341.209 354.435 341.035L354.379 340.895L354.442 340.762C355.47 338.589 356.205 337.428 356.639 337.31C356.912 337.233 357.36 337.114 364.73 346.64C365.031 346.891 367.207 348.785 368.117 351.322C369.104 354.083 357.941 359.877 355.694 361.009C355.624 361.065 343.944 369.543 339.142 371.954C337.239 372.911 334.985 373.205 332.935 373.205L332.942 373.198Z" fill="#2F2E43"/>
<path d="M318.517 169.071H277.484L273.761 207.189L290.054 348.031H311.001L302.623 266.686L336.602 340.126L355.218 327.113L328.686 258.551C328.686 258.551 338.163 198.823 330.716 183.943C323.269 169.071 318.517 169.071 318.517 169.071Z" fill="#2F2E43"/>
<path d="M338.932 171.391H273.761L293.315 87.2575H321.709L338.932 171.391Z" fill="#E2E3E4"/>
<path d="M344.797 216.1C345.84 221.215 343.929 225.891 340.542 226.541C337.155 227.191 333.564 223.564 332.529 218.448C332.088 216.407 332.158 214.296 332.732 212.284L319.833 132.085L335.965 129.052L342.194 210.473C343.517 212.123 344.405 214.052 344.797 216.107V216.1Z" fill="#9F616A"/>
<path d="M310.7 87.2575H321.708C329.491 88.4387 331.605 92.5831 333.375 100.243C336.077 111.929 339.527 127.486 338.841 127.717C337.742 128.08 319 136.886 309.447 134.873L310.7 87.2575Z" fill="#E2E3E4"/>
</g>
<defs>
<clipPath id="clip0_37_116">
<rect width="526" height="377" fill="white"/>
</clipPath>
</defs>
</svg>
