<svg width="204" height="238" viewBox="0 0 204 238" fill="none" xmlns="http://www.w3.org/2000/svg">
<g clip-path="url(#clip0_39_102)">
<path d="M197.407 87.7205H6.41872C4.71697 87.7185 3.08548 87.0415 1.88216 85.8378C0.678848 84.6342 0.00196497 83.0023 0 81.3002V6.42028C0.00196497 4.71812 0.678848 3.08623 1.88216 1.88262C3.08548 0.679014 4.71697 0.00196545 6.41872 0H197.407C199.108 0.00196545 200.74 0.679014 201.943 1.88262C203.146 3.08623 203.823 4.71812 203.825 6.42028V81.3002C203.823 83.0024 203.146 84.6342 201.943 85.8378C200.74 87.0415 199.108 87.7185 197.407 87.7205Z" fill="#F2F2F2"/>
<path d="M152.864 83.6258H36.7351C28.0813 83.616 19.7848 80.1731 13.6656 74.0525C7.5465 67.9319 4.10449 59.6333 4.09473 50.9775V36.7466C4.10448 28.0907 7.54648 19.7921 13.6656 13.6715C19.7847 7.55081 28.0813 4.1079 36.7351 4.09808H167.091C175.745 4.1079 184.042 7.55081 190.161 13.6715C196.28 19.7921 199.722 28.0907 199.732 36.7466C199.717 49.1754 194.775 61.0911 185.989 69.8796C177.202 78.6681 165.29 83.6117 152.864 83.6258Z" fill="white"/>
<path d="M122.907 25.5337H46.1446C45.7056 25.5337 45.2846 25.3592 44.9741 25.0487C44.6637 24.7382 44.4893 24.317 44.4893 23.8779C44.4893 23.4388 44.6637 23.0176 44.9741 22.7071C45.2846 22.3966 45.7056 22.2221 46.1446 22.2221H122.907C123.346 22.2221 123.767 22.3966 124.078 22.7071C124.388 23.0176 124.563 23.4388 124.563 23.8779C124.563 24.317 124.388 24.7382 124.078 25.0487C123.767 25.3592 123.346 25.5337 122.907 25.5337Z" fill="#E6E6E6"/>
<path d="M161.766 43.1999H46.1446C45.7056 43.1999 45.2846 43.0254 44.9741 42.7149C44.6637 42.4044 44.4893 41.9832 44.4893 41.5441C44.4893 41.1049 44.6637 40.6838 44.9741 40.3733C45.2846 40.0628 45.7056 39.8883 46.1446 39.8883H161.766C162.205 39.8883 162.626 40.0628 162.936 40.3733C163.247 40.6838 163.421 41.1049 163.421 41.5441C163.421 41.9832 163.247 42.4044 162.936 42.7149C162.626 43.0254 162.205 43.1999 161.766 43.1999Z" fill="#E6E6E6"/>
<path d="M161.766 60.8662H46.1446C45.7056 60.8662 45.2846 60.6917 44.9741 60.3812C44.6637 60.0707 44.4893 59.6495 44.4893 59.2104C44.4893 58.7712 44.6637 58.3501 44.9741 58.0395C45.2846 57.729 45.7056 57.5546 46.1446 57.5546H161.766C162.205 57.5546 162.626 57.729 162.936 58.0395C163.247 58.3501 163.421 58.7712 163.421 59.2104C163.421 59.6495 163.247 60.0707 162.936 60.3812C162.626 60.6917 162.205 60.8662 161.766 60.8662Z" fill="#E6E6E6"/>
<path d="M161.766 60.8662H46.1446C45.7056 60.8662 45.2846 60.6917 44.9741 60.3812C44.6637 60.0707 44.4893 59.6495 44.4893 59.2104C44.4893 58.7712 44.6637 58.3501 44.9741 58.0395C45.2846 57.729 45.7056 57.5546 46.1446 57.5546H161.766C162.205 57.5546 162.626 57.729 162.936 58.0395C163.247 58.3501 163.421 58.7712 163.421 59.2104C163.421 59.6495 163.247 60.0707 162.936 60.3812C162.626 60.6917 162.205 60.8662 161.766 60.8662Z" fill="#E6E6E6"/>
<path d="M114.807 45.2276C114.825 45.7263 114.953 46.215 115.18 46.6591C115.408 47.1032 115.73 47.492 116.124 47.7981C116.519 48.1042 116.975 48.3202 117.461 48.4307C117.948 48.5413 118.453 48.5438 118.941 48.4381L125.254 58.7972L127.94 53.0943L121.534 44.1315C121.302 43.3238 120.782 42.6293 120.072 42.1795C119.363 41.7297 118.513 41.5559 117.684 41.691C116.854 41.8261 116.104 42.2608 115.573 42.9126C115.043 43.5644 114.77 44.3881 114.807 45.2276Z" fill="#FFB6B6"/>
<path d="M162.182 74.9159L140.426 63.1123L133.564 56.6725C133.564 56.6725 130.58 55.8736 131.678 54.9033C132.776 53.9331 129.647 52.9974 129.647 52.9974L125.964 49.5403L120.729 53.2451L122.244 55.5941C122.244 55.5941 122.14 59.4826 124.269 58.7345C126.399 57.9864 125.867 61.2115 125.867 61.2115L138.579 80.9214L162.182 74.9159Z" fill="#3F3D56"/>
<path d="M97.9612 63.7951C109.697 63.7951 119.211 54.2787 119.211 42.5397C119.211 30.8006 109.697 21.2842 97.9612 21.2842C86.225 21.2842 76.7109 30.8006 76.7109 42.5397C76.7109 54.2787 86.225 63.7951 97.9612 63.7951Z" fill="#6C63FF"/>
<path d="M162.249 229.736H157.831L155.728 212.689H162.249V229.736Z" fill="#FFB6B6"/>
<path d="M164.582 237.393H161.413L160.847 234.401L159.399 237.393H150.995C150.592 237.394 150.2 237.265 149.875 237.026C149.551 236.787 149.311 236.451 149.191 236.066C149.071 235.682 149.077 235.269 149.209 234.888C149.34 234.507 149.59 234.178 149.921 233.949L156.633 229.313V226.288L163.692 226.709L164.582 237.393Z" fill="#2F2E41"/>
<path d="M126.91 229.736H122.492L120.389 212.689H126.91V229.736Z" fill="#FFB6B6"/>
<path d="M129.242 237.393H126.074L125.508 234.401L124.059 237.393H115.655C115.253 237.394 114.86 237.265 114.536 237.026C114.211 236.787 113.972 236.451 113.852 236.066C113.732 235.682 113.738 235.269 113.869 234.888C114.001 234.507 114.25 234.178 114.582 233.949L121.293 229.313V226.288L128.352 226.709L129.242 237.393Z" fill="#2F2E41"/>
<path d="M157.561 100.812H135.26V126.208H157.561V100.812Z" fill="#FFB6B6"/>
<path d="M135.775 113.338L132 117.8L125.482 131.527L109.056 170.619L105.582 178.886L108.387 193.501C108.387 193.501 108.841 203.797 108.841 205.482C108.841 208.914 111.711 210.816 111.711 210.816L113.816 221.783L134.231 220.926C134.231 220.926 133.518 208.836 129.243 205.786C124.967 202.737 123.002 186.844 123.002 186.844L120.678 179.792L143.323 152.943L143.469 162.328L143.54 166.871C143.54 166.871 140.224 196.417 144.089 202.151C147.955 207.885 144.168 207.21 144.168 207.21L144.352 219.038L168.54 219.21L163.204 185.157C163.204 185.157 160.494 183.017 161.944 180.865C163.394 178.714 160.539 176.08 160.539 176.08L161.819 149.495C161.819 149.495 160.402 144.903 162.069 144.307C163.737 143.71 162.288 139.761 162.288 139.761L162.536 134.615L157.561 118.658L135.775 113.338Z" fill="#2F2E41"/>
<path d="M157.904 100.812L160.306 93.6054L162.021 91.2031L162.708 84.3395C162.708 65.8077 158.575 68.8936 158.575 68.8936L156.189 62.3759L145.21 62.0327L138.176 68.7247L132.344 70.7838L130.06 82.6546L134.231 95.3213L135.26 102.185C133.296 105.811 133.463 104.096 135.088 106.818L154.473 112.137C161.335 114.539 161.335 108.362 159.959 106.818C158.583 105.274 157.904 100.812 157.904 100.812Z" fill="#3F3D56"/>
<path d="M149.281 59.729C154.902 59.729 159.459 55.171 159.459 49.5485C159.459 43.9259 154.902 39.368 149.281 39.368C143.659 39.368 139.103 43.9259 139.103 49.5485C139.103 55.171 143.659 59.729 149.281 59.729Z" fill="#FFB6B6"/>
<path d="M162.869 63.1377C162.965 63.2996 163.023 63.481 163.039 63.6684C163.055 63.8558 163.029 64.0445 162.962 64.2203C162.895 64.3961 162.789 64.5546 162.652 64.6838C162.516 64.8131 162.352 64.9098 162.172 64.9669C160.807 65.4199 159.966 66.7411 158.985 67.7981C158.007 68.8517 156.432 69.7268 155.184 69.0095C153.938 68.2957 153.852 66.4734 152.809 65.4851C151.794 64.5242 150.106 64.6408 148.912 65.3718L148.876 65.3938C148.67 65.5282 148.429 65.5992 148.183 65.5981C147.937 65.597 147.697 65.5238 147.492 65.3875C147.287 65.2512 147.126 65.0579 147.03 64.8314C146.934 64.6049 146.906 64.3551 146.951 64.113C147.369 61.8876 147.787 59.6624 148.205 57.4375C147.107 60.0835 145.512 62.4949 143.508 64.5413C142.956 65.1787 142.256 65.6712 141.47 65.9758C140.756 66.2023 140.063 65.4645 139.37 65.5983C141.093 64.0917 146.884 54.4346 145.848 47.9794C144.63 48.1167 143.412 48.2539 142.194 48.3912C142.062 47.8146 141.78 47.2831 141.377 46.8503C141.427 47.4115 141.355 47.9766 141.168 48.5079C140.66 48.5662 140.149 48.6212 139.641 48.6795C138.934 48.7584 138.166 48.8271 137.559 48.4564C136.546 47.8387 136.516 46.3768 136.804 45.2236C137.648 41.8708 140.207 39.067 143.34 37.5982C146.472 36.1328 147.399 39.3964 150.699 38.3532C157.218 36.2941 162.214 39.8152 163.974 46.3493C165.452 51.8299 164.379 57.6468 162.869 63.1377Z" fill="#2F2E41"/>
<path d="M191.046 237.615H178.584L178.53 237.518C178.371 237.229 178.217 236.922 178.073 236.608C176.789 233.859 176.247 230.715 175.768 227.941L175.407 225.85C175.364 225.597 175.397 225.336 175.502 225.102C175.607 224.867 175.78 224.669 175.998 224.534C176.216 224.398 176.47 224.331 176.727 224.34C176.983 224.35 177.232 224.435 177.439 224.587C179.333 225.965 181.228 227.342 183.123 228.718C183.841 229.241 184.661 229.845 185.446 230.499C185.522 230.131 185.601 229.762 185.68 229.398C185.735 229.146 185.863 228.917 186.049 228.739C186.234 228.561 186.469 228.443 186.722 228.399C186.975 228.355 187.236 228.388 187.47 228.493C187.705 228.599 187.903 228.771 188.039 228.99L189.497 231.333C190.56 233.044 191.499 234.731 191.308 236.549C191.309 236.571 191.307 236.594 191.303 236.615C191.264 236.914 191.194 237.208 191.091 237.491L191.046 237.615Z" fill="#F0F0F0"/>
<path d="M203.555 237.885L85.1261 238C85.0078 237.999 84.8947 237.952 84.8113 237.868C84.7279 237.784 84.6812 237.671 84.6812 237.553C84.6812 237.435 84.7279 237.321 84.8113 237.237C84.8947 237.153 85.0078 237.106 85.1261 237.105L203.555 236.99C203.673 236.991 203.786 237.038 203.87 237.122C203.953 237.206 204 237.319 204 237.437C204 237.556 203.953 237.669 203.87 237.753C203.786 237.837 203.673 237.884 203.555 237.885Z" fill="#CACACA"/>
<path d="M96.0295 71.1479L83.0028 60.1443C82.5575 59.7673 82.2799 59.2291 82.2309 58.6476C82.1819 58.0662 82.3655 57.4891 82.7414 57.0429L85.139 54.2031C85.5158 53.7577 86.054 53.48 86.6353 53.431C87.2166 53.382 87.7935 53.5656 88.2396 53.9416L101.266 64.9453C101.712 65.3222 101.989 65.8605 102.038 66.4419C102.087 67.0233 101.904 67.6005 101.528 68.0467L99.1301 70.8865C98.7533 71.3318 98.2152 71.6095 97.6339 71.6585C97.0526 71.7075 96.4756 71.5239 96.0295 71.1479Z" fill="#3F3D56"/>
<path d="M83.6865 57.2718C83.4839 57.5123 83.385 57.8233 83.4114 58.1366C83.4378 58.4499 83.5874 58.74 83.8274 58.9431L96.854 69.9468C97.0944 70.1494 97.4054 70.2483 97.7186 70.2219C98.0319 70.1955 98.3218 70.0459 98.5249 69.8059L100.923 66.9661C101.125 66.7257 101.224 66.4146 101.198 66.1013C101.171 65.788 101.022 65.498 100.782 65.2948L87.755 54.2912C87.5146 54.0886 87.2037 53.9896 86.8904 54.016C86.5772 54.0425 86.2872 54.1921 86.0841 54.4321L83.6865 57.2718Z" fill="white"/>
<path d="M91.334 61.5494C91.2888 61.6127 91.2295 61.6645 91.1607 61.7009C91.092 61.7372 91.0157 61.7571 90.938 61.7589L88.8912 61.8059C88.8255 61.8074 88.7601 61.7959 88.6988 61.7722C88.6374 61.7484 88.5814 61.7127 88.5338 61.6673C88.4863 61.6219 88.4481 61.5675 88.4216 61.5073C88.395 61.4471 88.3805 61.3823 88.379 61.3165C88.3775 61.2508 88.389 61.1853 88.4128 61.124C88.4365 61.0627 88.4721 61.0066 88.5176 60.959C88.563 60.9115 88.6174 60.8733 88.6775 60.8467C88.7377 60.8202 88.8025 60.8057 88.8683 60.8042L90.2073 60.7734L88.8886 57.293C88.8419 57.1689 88.8463 57.0313 88.901 56.9104C88.9556 56.7895 89.0559 56.6952 89.1799 56.6482C89.3039 56.6012 89.4415 56.6053 89.5625 56.6596C89.6835 56.7139 89.778 56.814 89.8253 56.938L91.3949 61.0805C91.4233 61.1554 91.4333 61.2361 91.4241 61.3157C91.4149 61.3953 91.3867 61.4715 91.342 61.538L91.334 61.5494Z" fill="#6C63FF"/>
<path d="M91.5963 62.4241C92.0899 62.4966 92.5617 62.6765 92.9784 62.9511C93.395 63.2258 93.7464 63.5884 94.0077 64.0136C94.2691 64.4387 94.4341 64.916 94.491 65.4118C94.548 65.9077 94.4956 66.41 94.3375 66.8834L103.946 74.2868L97.9864 76.3383L89.7755 68.9933C88.9981 68.675 88.3644 68.0824 87.9945 67.3279C87.6247 66.5735 87.5443 65.7095 87.7688 64.8998C87.9932 64.0901 88.5068 63.3908 89.2122 62.9345C89.9177 62.4782 90.7659 62.2966 91.5963 62.4241Z" fill="#FFB6B6"/>
<path d="M141.621 66.0847L117.02 81.2142C117.02 81.2142 107.101 77.5433 109.039 75.8439C110.978 74.1445 104.807 72.9956 104.807 72.9956L97.9896 68.408L94.0337 73.0066C94.0337 73.0066 94.7545 80.4761 95.9809 79.1828C97.2074 77.8894 99.0406 81.4225 99.0406 81.4225C99.0406 81.4225 99.5823 85.3676 103.074 84.3748C106.565 83.382 115.933 93.7883 115.933 93.7883L146.21 82.4934L141.621 66.0847Z" fill="#3F3D56"/>
<path d="M97.2137 51.0661C96.9285 51.0661 96.6472 50.9997 96.3922 50.8721C96.1371 50.7444 95.9152 50.5592 95.7442 50.3309L91.2385 44.3218C91.0937 44.1287 90.9884 43.909 90.9286 43.6753C90.8687 43.4415 90.8554 43.1983 90.8896 42.9594C90.9237 42.7205 91.0045 42.4907 91.1274 42.283C91.2504 42.0754 91.413 41.894 91.606 41.7492C91.9958 41.4568 92.4857 41.3313 92.968 41.4002C93.2068 41.4344 93.4366 41.5152 93.6442 41.6382C93.8518 41.7611 94.0331 41.9238 94.1779 42.1168L97.1257 46.0478L104.697 34.6888C104.967 34.2833 105.387 34.0018 105.865 33.9062C106.343 33.8106 106.839 33.9088 107.244 34.1791C107.65 34.4495 107.931 34.8698 108.027 35.3477C108.122 35.8256 108.024 36.3219 107.754 36.7274L98.7425 50.2478C98.5795 50.4923 98.3602 50.6942 98.1031 50.8365C97.846 50.9787 97.5585 51.0573 97.2648 51.0655C97.2478 51.0658 97.2308 51.0661 97.2137 51.0661Z" fill="white"/>
</g>
<defs>
<clipPath id="clip0_39_102">
<rect width="204" height="238" fill="white"/>
</clipPath>
</defs>
</svg>
