<svg width="487" height="371" viewBox="0 0 487 371" fill="none" xmlns="http://www.w3.org/2000/svg">
<g clip-path="url(#clip0_37_142)">
<path d="M194.873 76.9369H193.097V28.2048C193.097 24.5009 192.368 20.8333 190.952 17.4113C189.537 13.9893 187.462 10.8801 184.846 8.26101C182.23 5.64195 179.125 3.5644 175.708 2.14697C172.29 0.729546 168.627 3.13824e-06 164.928 0H61.8151C54.3443 -1.42602e-05 47.1795 2.97153 41.8969 8.26095C36.6143 13.5504 33.6465 20.7243 33.6465 28.2047V295.553C33.6465 299.257 34.3751 302.924 35.7907 306.346C37.2063 309.768 39.2812 312.877 41.8968 315.496C44.5125 318.115 47.6178 320.193 51.0354 321.61C54.453 323.028 58.1159 323.757 61.815 323.757H164.928C172.399 323.757 179.563 320.786 184.846 315.496C190.129 310.207 193.096 303.033 193.097 295.553V111.625H194.873V76.9369Z" fill="#3F3D56"/>
<path d="M166.064 7.33789H152.605C153.224 8.85737 153.46 10.5059 153.293 12.1384C153.126 13.7708 152.56 15.3371 151.646 16.6991C150.732 18.0611 149.497 19.1771 148.051 19.9488C146.604 20.7205 144.99 21.1241 143.352 21.1243H84.2795C82.6406 21.1242 81.0269 20.7205 79.5805 19.9488C78.1341 19.1771 76.8994 18.0611 75.9853 16.6991C75.0711 15.3371 74.5055 13.7708 74.3382 12.1384C74.171 10.506 74.4073 8.85737 75.0263 7.33789H62.4549C59.6925 7.33789 56.957 7.8827 54.4048 8.94121C51.8526 9.99973 49.5336 11.5512 47.5802 13.5071C45.6269 15.463 44.0774 17.7849 43.0202 20.3404C41.9631 22.8959 41.4189 25.6349 41.4189 28.4009V295.357C41.4189 298.123 41.9631 300.861 43.0202 303.417C44.0774 305.972 45.6269 308.294 47.5802 310.25C49.5336 312.206 51.8526 313.758 54.4048 314.816C56.957 315.875 59.6924 316.42 62.4549 316.42H166.064C168.827 316.42 171.562 315.875 174.114 314.816C176.667 313.758 178.986 312.206 180.939 310.25C182.892 308.294 184.442 305.972 185.499 303.417C186.556 300.862 187.1 298.123 187.1 295.357V28.4009C187.1 25.6349 186.556 22.8959 185.499 20.3404C184.442 17.7849 182.892 15.463 180.939 13.5071C178.986 11.5512 176.667 9.99973 174.114 8.94121C171.562 7.8827 168.827 7.33789 166.064 7.33789Z" fill="white"/>
<path d="M227.923 323.803H0.596656C0.438413 323.803 0.286651 323.741 0.174756 323.628C0.0628614 323.516 0 323.365 0 323.206C0 323.048 0.0628614 322.896 0.174756 322.784C0.286651 322.672 0.438413 322.609 0.596656 322.609H227.923C228.081 322.609 228.233 322.672 228.345 322.784C228.456 322.896 228.519 323.048 228.519 323.206C228.519 323.365 228.456 323.516 228.345 323.628C228.233 323.741 228.081 323.803 227.923 323.803Z" fill="#CBCBCB"/>
<path d="M114.26 206.517C142.087 206.517 164.645 183.93 164.645 156.067C164.645 128.204 142.087 105.617 114.26 105.617C86.4328 105.617 63.8745 128.204 63.8745 156.067C63.8745 183.93 86.4328 206.517 114.26 206.517Z" fill="#A90623"/>
<path d="M109.267 175.312C108.133 175.314 107.03 174.947 106.123 174.266L106.067 174.224L94.2256 165.154C93.6772 164.733 93.2169 164.208 92.8712 163.609C92.5254 163.01 92.3008 162.349 92.2104 161.663C92.1199 160.977 92.1652 160.28 92.3438 159.611C92.5223 158.943 92.8306 158.316 93.2511 157.767C93.6715 157.218 94.1959 156.757 94.7942 156.411C95.3925 156.065 96.053 155.84 96.7381 155.749C97.4232 155.659 98.1194 155.704 98.787 155.883C99.4545 156.061 100.08 156.37 100.629 156.791L108.299 162.68L126.423 139.005C126.843 138.456 127.367 137.995 127.965 137.649C128.563 137.303 129.224 137.079 129.908 136.988C130.593 136.897 131.289 136.943 131.956 137.122C132.624 137.3 133.249 137.609 133.797 138.03L133.799 138.031L133.686 138.187L133.802 138.031C134.908 138.882 135.632 140.137 135.814 141.522C135.996 142.907 135.623 144.307 134.775 145.416L113.457 173.251C112.964 173.893 112.33 174.412 111.604 174.768C110.878 175.124 110.08 175.309 109.272 175.306L109.267 175.312Z" fill="white"/>
<path d="M414.226 328.762C414.839 327.77 415.56 326.849 416.377 326.017C416.714 325.667 417.069 325.338 417.435 325.017C419.663 323.031 422.379 321.676 425.303 321.09C428.228 320.504 431.255 320.708 434.075 321.682C436.894 322.656 439.404 324.364 441.345 326.631C443.287 328.898 444.59 331.641 445.121 334.58C447.582 325.468 441.177 316.493 434.736 309.598C428.292 302.707 420.928 295.146 420.965 285.702C420.983 280.448 423.55 275.76 427.426 272.284C427.546 272.179 427.665 272.074 427.787 271.972C432.472 267.951 438.499 265.848 444.665 266.083C456.121 266.697 466.123 274.406 473.069 283.55C484.25 298.263 489.149 318.915 481.322 335.664C474.437 350.394 459.753 359.141 444.767 366.174C442.675 367.156 440.586 368.108 438.502 369.031C438.489 369.035 438.473 369.045 438.46 369.048C438.359 369.092 438.259 369.137 438.165 369.182C437.735 369.372 437.304 369.562 436.878 369.75L437.075 369.879L437.692 370.279C437.478 370.149 437.267 370.023 437.053 369.894C436.989 369.855 436.922 369.818 436.859 369.778C429.499 365.356 422.036 360.678 416.951 353.775C411.678 346.607 409.557 336.34 414.226 328.762Z" fill="#F1F1F1"/>
<path d="M463.332 312.116C464.962 315.828 466.042 319.759 466.539 323.783C466.93 327.372 466.783 330.999 466.103 334.544C464.642 341.83 461.454 348.657 456.809 354.452C453.304 358.851 449.258 362.79 444.767 366.173C442.675 367.156 440.586 368.108 438.502 369.031C438.488 369.035 438.473 369.045 438.459 369.048C438.359 369.092 438.259 369.136 438.165 369.182C437.734 369.372 437.304 369.562 436.878 369.75L437.075 369.879L437.691 370.278C437.478 370.149 437.266 370.023 437.053 369.894C436.989 369.854 436.922 369.818 436.859 369.778C438.479 364.105 438.717 358.126 437.553 352.342C436.39 346.557 433.859 341.137 430.172 336.534C426.465 331.989 421.739 328.385 416.377 326.017C416.714 325.667 417.069 325.337 417.435 325.017C419.501 325.966 421.478 327.097 423.344 328.395C430.019 333.015 435.032 339.663 437.639 347.357C439.967 354.337 440.258 361.837 438.478 368.977C438.847 368.735 439.218 368.487 439.578 368.24C446.435 363.61 452.754 358.05 457.514 351.231C461.62 345.468 464.247 338.783 465.164 331.764C466.077 324.097 464.161 316.557 460.742 309.716C456.967 302.397 452.21 295.629 446.604 289.601C440.972 283.406 434.605 277.924 427.644 273.278C427.487 273.172 427.377 273.01 427.337 272.825C427.296 272.64 427.328 272.446 427.426 272.284C427.5 272.136 427.63 272.024 427.787 271.972C427.867 271.952 427.95 271.95 428.03 271.966C428.111 271.982 428.187 272.017 428.252 272.066C429.111 272.641 429.963 273.22 430.805 273.816C437.815 278.786 444.182 284.609 449.758 291.151C455.146 297.457 460.05 304.463 463.332 312.116Z" fill="white"/>
<path d="M313.269 23.4253C319.179 23.4253 323.97 18.6284 323.97 12.7111C323.97 6.79375 319.179 1.99683 313.269 1.99683C307.36 1.99683 302.569 6.79375 302.569 12.7111C302.569 18.6284 307.36 23.4253 313.269 23.4253Z" fill="#F1F1F1"/>
<path d="M446.324 166.807C449.927 166.807 452.848 163.882 452.848 160.275C452.848 156.667 449.927 153.742 446.324 153.742C442.721 153.742 439.8 156.667 439.8 160.275C439.8 163.882 442.721 166.807 446.324 166.807Z" fill="#F1F1F1"/>
<path d="M255.394 184.73C258.997 184.73 261.918 181.805 261.918 178.197C261.918 174.59 258.997 171.665 255.394 171.665C251.791 171.665 248.87 174.59 248.87 178.197C248.87 181.805 251.791 184.73 255.394 184.73Z" fill="#F1F1F1"/>
<path d="M259.077 371H486.403C486.561 371 486.713 370.937 486.825 370.825C486.937 370.713 487 370.561 487 370.403C487 370.244 486.937 370.092 486.825 369.98C486.713 369.868 486.561 369.805 486.403 369.805H259.077C258.919 369.805 258.767 369.868 258.655 369.98C258.543 370.092 258.48 370.244 258.48 370.403C258.48 370.561 258.543 370.713 258.655 370.825C258.767 370.937 258.919 371 259.077 371Z" fill="#CBCBCB"/>
<path d="M461.316 57.7321C461.615 55.6101 461.126 53.4522 459.941 51.6672C458.757 49.8823 456.96 48.5944 454.89 48.0475C452.821 47.5007 450.623 47.7328 448.714 48.7001C446.804 49.6673 445.315 51.3024 444.529 53.2955L426.082 74.4707L431.494 89.6075L450.046 64.8651C451.257 65.2533 452.537 65.3711 453.798 65.2101C455.059 65.0491 456.27 64.6132 457.344 63.9332C458.419 63.2531 459.331 62.3454 460.018 61.274C460.704 60.2026 461.147 58.9936 461.316 57.7321Z" fill="#FFB7B7"/>
<path d="M384.851 140.125L446.085 74.6898L437.826 61.5417L361.022 126.58L384.851 140.125Z" fill="#3F3D56"/>
<path d="M371.184 100.367C383.047 100.367 392.664 90.738 392.664 78.8599C392.664 66.9818 383.047 57.3527 371.184 57.3527C359.321 57.3527 349.705 66.9818 349.705 78.8599C349.705 90.738 359.321 100.367 371.184 100.367Z" fill="#2F2E41"/>
<path d="M372.911 66.7103C377.533 62.0172 383.126 58.3956 389.297 56.1005C393.258 54.6312 397.57 53.7234 401.711 54.5578C405.852 55.3922 409.768 58.2607 410.923 62.329C411.868 65.6556 410.892 69.2374 409.426 72.369C407.96 75.5005 406.003 78.4044 404.817 81.6529C403.608 84.9674 403.244 88.5319 403.759 92.0229C404.274 95.514 405.652 98.8209 407.767 101.644C409.882 104.466 412.668 106.715 415.872 108.186C419.075 109.657 422.595 110.304 426.112 110.068C422.043 110.614 418.292 112.528 414.315 113.548C410.338 114.567 405.644 114.498 402.689 111.645C399.562 108.626 399.499 103.719 399.65 99.3721C399.875 92.911 400.1 86.4499 400.324 79.9887C400.439 76.6937 400.537 73.293 399.35 70.2175C398.163 67.1421 395.343 64.449 392.05 64.477C389.555 64.4982 387.346 66.0119 385.345 67.5047C383.343 68.9976 381.225 70.5903 378.739 70.8123C376.253 71.0344 373.415 69.1924 373.601 66.7006L372.911 66.7103Z" fill="#2F2E41"/>
<path d="M289.603 223.271C287.541 223.844 285.341 223.641 283.418 222.698C281.496 221.756 279.986 220.14 279.174 218.157C278.363 216.175 278.305 213.962 279.013 211.94C279.722 209.918 281.146 208.226 283.017 207.185L301.573 186.106L317.268 189.501L295.193 211.151C295.736 212.302 296.02 213.558 296.025 214.831C296.031 216.103 295.757 217.362 295.224 218.517C294.691 219.673 293.912 220.697 292.941 221.519C291.969 222.34 290.83 222.938 289.603 223.271Z" fill="#FFB7B7"/>
<path d="M350.654 147.806L304.404 205.935L290.306 199.454L344.667 114.713L350.654 147.806Z" fill="#3F3D56"/>
<path d="M313.751 323.332L302.728 323.159L304.054 360.776H313.749L313.751 323.332Z" fill="#FFB7B7"/>
<path d="M316.222 357.607L297.128 357.606H297.127C293.9 357.606 290.806 358.89 288.524 361.175C286.242 363.46 284.96 366.558 284.959 369.79V370.186L316.221 370.187L316.222 357.607Z" fill="#2F2E41"/>
<path d="M386.732 313.355L374.69 321.095L398.776 350.109L406.935 344.865L386.732 313.355Z" fill="#FFB7B7"/>
<path d="M407.306 340.859L391.238 351.188L391.238 351.188C388.522 352.934 386.611 355.689 385.923 358.846C385.236 362.003 385.829 365.304 387.573 368.023L387.786 368.356L414.093 351.445L407.306 340.859Z" fill="#2F2E41"/>
<path d="M391.022 198.488C391.022 198.488 364.268 109.515 355.67 108.313C347.072 107.111 333.219 131.142 333.219 131.142C315.258 154.088 296.737 228.415 296.737 228.415C296.737 228.415 327.612 230.35 350.181 242.373C372.751 254.397 399.386 241.765 399.386 241.765L391.022 198.488Z" fill="#3F3D56"/>
<path opacity="0.1" d="M391.022 198.488C391.022 198.488 364.268 109.515 355.67 108.313C347.072 107.111 336.737 131.386 336.737 131.386C327.787 168.427 296.737 228.415 296.737 228.415C296.737 228.415 327.612 230.35 350.181 242.373C372.751 254.397 399.386 241.765 399.386 241.765L391.022 198.488Z" fill="black"/>
<path d="M369.072 171.868V216.576L374.327 281.339L400.58 330.328L388.05 339.289L352.25 292.69L338.091 246.42L315.854 348.848L299.148 347.653L310.751 205.639L332.768 165.666L369.072 171.868Z" fill="#2F2E41"/>
<path d="M342.097 128.625C333.744 136.989 341.501 145.95 341.501 145.95L331.954 167.458L369.543 177.614L382.68 118.84L373.73 109.282C355.83 108.684 355.82 108.313 355.82 108.313C352.684 111.386 342.097 128.625 342.097 128.625Z" fill="#A90623"/>
<path d="M384.194 112.751C382.486 111.49 380.546 110.58 378.485 110.074C376.424 109.568 374.283 109.477 372.187 109.806C370.09 110.134 368.08 110.876 366.272 111.988C364.464 113.1 362.894 114.56 361.654 116.284C352.204 129.459 343.466 150.732 355.505 177.264C374.836 219.866 391.659 241.675 398.497 241.673C398.796 241.675 399.093 241.628 399.376 241.534C403.586 240.104 409.672 232.972 410.774 226.687C411.168 224.437 411.075 221.304 408.388 219.152C400.67 212.971 386.814 193.725 382.492 168.393C380.103 154.395 384.735 141.645 389.042 133.414C390.861 130.008 391.393 126.06 390.541 122.293C389.688 118.526 387.509 115.193 384.401 112.905L384.194 112.751Z" fill="#3F3D56"/>
<path d="M372.289 98.2543C379.951 94.0603 382.767 84.4409 378.579 76.7687C374.39 69.0966 364.783 66.277 357.121 70.4709C349.459 74.6649 346.643 84.2843 350.831 91.9565C355.02 99.6287 364.627 102.448 372.289 98.2543Z" fill="#FFB7B7"/>
<path d="M342.469 83.1656H365.3L365.534 79.8835L366.705 83.1656H370.22L370.684 76.6606L373.005 83.1656H379.807V82.8433C379.802 78.3146 378.003 73.9728 374.805 70.7705C371.607 67.5681 367.27 65.7668 362.747 65.7617H359.528C355.005 65.7668 350.669 67.5681 347.471 70.7704C344.273 73.9728 342.474 78.3146 342.469 82.8433V83.1656Z" fill="#2F2E41"/>
<path d="M376.358 94.9631L386.101 91.7975V68.1063H367.697L368.153 68.5618C374.492 74.901 381.542 97.3917 376.358 94.9631Z" fill="#2F2E41"/>
</g>
<defs>
<clipPath id="clip0_37_142">
<rect width="487" height="371" fill="white"/>
</clipPath>
</defs>
</svg>
