<svg width="204" height="238" viewBox="0 0 204 238" fill="none" xmlns="http://www.w3.org/2000/svg">
<g clip-path="url(#clip0_43_223)">
<path d="M197.407 87.7205H6.41872C4.71697 87.7185 3.08548 87.0415 1.88216 85.8378C0.678848 84.6342 0.00196497 83.0023 0 81.3002V6.42028C0.00196497 4.71812 0.678848 3.08623 1.88216 1.88262C3.08548 0.679014 4.71697 0.00196545 6.41872 0H197.407C199.108 0.00196545 200.74 0.679014 201.943 1.88262C203.146 3.08623 203.823 4.71812 203.825 6.42028V81.3002C203.823 83.0024 203.146 84.6342 201.943 85.8378C200.74 87.0415 199.108 87.7185 197.407 87.7205Z" fill="#F2F2F2"/>
<path d="M152.864 83.6258H36.7351C28.0813 83.6161 19.7848 80.1732 13.6656 74.0526C7.5465 67.9319 4.10449 59.6334 4.09473 50.9775V36.7467C4.10448 28.0908 7.54648 19.7922 13.6656 13.6715C19.7847 7.55087 28.0813 4.10796 36.7351 4.09814H167.091C175.745 4.10796 184.042 7.55087 190.161 13.6715C196.28 19.7922 199.722 28.0908 199.732 36.7467C199.717 49.1755 194.775 61.0912 185.989 69.8797C177.202 78.6682 165.29 83.6117 152.864 83.6258Z" fill="white"/>
<path d="M122.907 25.5338H46.1446C45.7056 25.5338 45.2846 25.3593 44.9741 25.0488C44.6637 24.7383 44.4893 24.3171 44.4893 23.878C44.4893 23.4388 44.6637 23.0177 44.9741 22.7071C45.2846 22.3966 45.7056 22.2222 46.1446 22.2222H122.907C123.346 22.2222 123.767 22.3966 124.078 22.7071C124.388 23.0177 124.563 23.4388 124.563 23.878C124.563 24.3171 124.388 24.7383 124.078 25.0488C123.767 25.3593 123.346 25.5338 122.907 25.5338Z" fill="#E6E6E6"/>
<path d="M161.766 43.1998H46.1446C45.7056 43.1998 45.2846 43.0253 44.9741 42.7148C44.6637 42.4043 44.4893 41.9831 44.4893 41.544C44.4893 41.1048 44.6637 40.6837 44.9741 40.3732C45.2846 40.0626 45.7056 39.8882 46.1446 39.8882H161.766C162.205 39.8882 162.626 40.0626 162.936 40.3732C163.247 40.6837 163.421 41.1048 163.421 41.544C163.421 41.9831 163.247 42.4043 162.936 42.7148C162.626 43.0253 162.205 43.1998 161.766 43.1998Z" fill="#E6E6E6"/>
<path d="M161.766 60.8663H46.1446C45.7056 60.8663 45.2846 60.6918 44.9741 60.3813C44.6637 60.0708 44.4893 59.6496 44.4893 59.2105C44.4893 58.7713 44.6637 58.3502 44.9741 58.0397C45.2846 57.7291 45.7056 57.5547 46.1446 57.5547H161.766C162.205 57.5547 162.626 57.7291 162.936 58.0397C163.247 58.3502 163.421 58.7713 163.421 59.2105C163.421 59.6496 163.247 60.0708 162.936 60.3813C162.626 60.6918 162.205 60.8663 161.766 60.8663Z" fill="#E6E6E6"/>
<path d="M161.766 60.8663H46.1446C45.7056 60.8663 45.2846 60.6918 44.9741 60.3813C44.6637 60.0708 44.4893 59.6496 44.4893 59.2105C44.4893 58.7713 44.6637 58.3502 44.9741 58.0397C45.2846 57.7291 45.7056 57.5547 46.1446 57.5547H161.766C162.205 57.5547 162.626 57.7291 162.936 58.0397C163.247 58.3502 163.421 58.7713 163.421 59.2105C163.421 59.6496 163.247 60.0708 162.936 60.3813C162.626 60.6918 162.205 60.8663 161.766 60.8663Z" fill="#E6E6E6"/>
<path d="M114.807 45.2277C114.825 45.7264 114.953 46.2151 115.18 46.6592C115.408 47.1034 115.73 47.4922 116.124 47.7983C116.519 48.1044 116.975 48.3203 117.461 48.4309C117.948 48.5414 118.453 48.544 118.941 48.4382L125.254 58.7973L127.94 53.0944L121.534 44.1316C121.302 43.3239 120.782 42.6294 120.072 42.1796C119.363 41.7299 118.513 41.556 117.684 41.6912C116.854 41.8263 116.104 42.2609 115.573 42.9127C115.043 43.5645 114.77 44.3882 114.807 45.2277Z" fill="#FFB6B6"/>
<path d="M162.182 74.9161L140.426 63.1124L133.564 56.6727C133.564 56.6727 130.58 55.8738 131.678 54.9035C132.776 53.9333 129.647 52.9976 129.647 52.9976L125.964 49.5405L120.729 53.2453L122.244 55.5942C122.244 55.5942 122.14 59.4828 124.269 58.7347C126.399 57.9866 125.867 61.2117 125.867 61.2117L138.579 80.9216L162.182 74.9161Z" fill="#3F3D56"/>
<path d="M97.9612 63.795C109.697 63.795 119.211 54.2787 119.211 42.5396C119.211 30.8006 109.697 21.2842 97.9612 21.2842C86.225 21.2842 76.7109 30.8006 76.7109 42.5396C76.7109 54.2787 86.225 63.795 97.9612 63.795Z" fill="#6C63FF"/>
<path d="M162.249 229.736H157.831L155.728 212.689H162.249V229.736Z" fill="#FFB6B6"/>
<path d="M164.582 237.393H161.413L160.847 234.401L159.399 237.393H150.995C150.592 237.394 150.2 237.265 149.875 237.026C149.551 236.787 149.311 236.451 149.191 236.066C149.071 235.682 149.077 235.269 149.209 234.888C149.34 234.507 149.59 234.178 149.921 233.949L156.633 229.313V226.288L163.692 226.709L164.582 237.393Z" fill="#2F2E41"/>
<path d="M126.91 229.736H122.492L120.389 212.689H126.91V229.736Z" fill="#FFB6B6"/>
<path d="M129.242 237.393H126.074L125.508 234.401L124.059 237.393H115.655C115.253 237.394 114.86 237.265 114.536 237.026C114.211 236.787 113.972 236.451 113.852 236.066C113.732 235.682 113.738 235.269 113.869 234.888C114.001 234.507 114.25 234.178 114.582 233.949L121.293 229.313V226.288L128.352 226.709L129.242 237.393Z" fill="#2F2E41"/>
<path d="M157.561 100.812H135.26V126.207H157.561V100.812Z" fill="#FFB6B6"/>
<path d="M135.775 113.338L132 117.8L125.482 131.527L109.056 170.619L105.582 178.886L108.387 193.501C108.387 193.501 108.841 203.797 108.841 205.482C108.841 208.914 111.711 210.816 111.711 210.816L113.816 221.784L134.231 220.926C134.231 220.926 133.518 208.836 129.243 205.787C124.967 202.737 123.002 186.844 123.002 186.844L120.678 179.793L143.323 152.943L143.469 162.329L143.54 166.871C143.54 166.871 140.224 196.417 144.089 202.151C147.955 207.885 144.168 207.21 144.168 207.21L144.352 219.038L168.54 219.21L163.204 185.157C163.204 185.157 160.494 183.017 161.944 180.866C163.394 178.714 160.539 176.08 160.539 176.08L161.819 149.495C161.819 149.495 160.402 144.904 162.069 144.307C163.737 143.71 162.288 139.761 162.288 139.761L162.536 134.616L157.561 118.658L135.775 113.338Z" fill="#2F2E41"/>
<path d="M157.904 100.812L160.306 93.6054L162.021 91.2031L162.708 84.3395C162.708 65.8077 158.575 68.8936 158.575 68.8936L156.189 62.3759L145.21 62.0327L138.176 68.7247L132.344 70.7838L130.06 82.6546L134.231 95.3213L135.26 102.185C133.296 105.811 133.463 104.096 135.088 106.818L154.473 112.137C161.335 114.539 161.335 108.362 159.959 106.818C158.583 105.274 157.904 100.812 157.904 100.812Z" fill="#3F3D56"/>
<path d="M149.281 59.7292C154.902 59.7292 159.459 55.1712 159.459 49.5487C159.459 43.9261 154.902 39.3682 149.281 39.3682C143.659 39.3682 139.103 43.9261 139.103 49.5487C139.103 55.1712 143.659 59.7292 149.281 59.7292Z" fill="#FFB6B6"/>
<path d="M162.869 63.1375C162.965 63.2994 163.023 63.4808 163.039 63.6682C163.055 63.8557 163.029 64.0443 162.962 64.2201C162.895 64.3959 162.789 64.5544 162.652 64.6836C162.516 64.8129 162.352 64.9096 162.172 64.9667C160.807 65.4197 159.966 66.7409 158.985 67.7979C158.007 68.8515 156.432 69.7266 155.184 69.0093C153.938 68.2955 153.852 66.4733 152.809 65.4849C151.794 64.524 150.106 64.6407 148.912 65.3716L148.876 65.3936C148.67 65.528 148.429 65.599 148.183 65.5979C147.937 65.5968 147.697 65.5236 147.492 65.3873C147.287 65.251 147.126 65.0577 147.03 64.8312C146.934 64.6047 146.906 64.3549 146.951 64.1129C147.369 61.8874 147.787 59.6622 148.205 57.4373C147.107 60.0833 145.512 62.4947 143.508 64.5411C142.956 65.1785 142.256 65.671 141.47 65.9756C140.756 66.2021 140.063 65.4643 139.37 65.5981C141.093 64.0916 146.884 54.4344 145.848 47.9792C144.63 48.1165 143.412 48.2538 142.194 48.391C142.062 47.8145 141.78 47.2829 141.377 46.8502C141.427 47.4113 141.355 47.9765 141.168 48.5077C140.66 48.5661 140.149 48.621 139.641 48.6793C138.934 48.7582 138.166 48.8269 137.559 48.4562C136.546 47.8385 136.516 46.3766 136.804 45.2235C137.648 41.8706 140.207 39.0668 143.34 37.598C146.472 36.1326 147.399 39.3963 150.699 38.353C157.218 36.2939 162.214 39.815 163.974 46.3491C165.452 51.8297 164.379 57.6466 162.869 63.1375Z" fill="#2F2E41"/>
<path d="M191.046 237.615H178.584L178.53 237.518C178.371 237.229 178.217 236.922 178.073 236.608C176.789 233.859 176.247 230.715 175.768 227.941L175.407 225.85C175.364 225.597 175.397 225.336 175.502 225.102C175.607 224.867 175.78 224.669 175.998 224.534C176.216 224.398 176.47 224.331 176.727 224.34C176.983 224.35 177.232 224.435 177.439 224.587C179.333 225.965 181.228 227.342 183.123 228.718C183.841 229.241 184.661 229.845 185.446 230.499C185.522 230.131 185.601 229.762 185.68 229.398C185.735 229.146 185.863 228.917 186.049 228.739C186.234 228.561 186.469 228.443 186.722 228.399C186.975 228.355 187.236 228.388 187.47 228.493C187.705 228.599 187.903 228.771 188.039 228.99L189.497 231.333C190.56 233.044 191.499 234.731 191.308 236.549C191.309 236.571 191.307 236.594 191.303 236.615C191.264 236.914 191.194 237.208 191.091 237.491L191.046 237.615Z" fill="#F0F0F0"/>
<path d="M203.555 237.885L85.1261 238C85.0078 238 84.8947 237.952 84.8113 237.868C84.7279 237.785 84.6812 237.671 84.6812 237.553C84.6812 237.435 84.7279 237.321 84.8113 237.237C84.8947 237.154 85.0078 237.106 85.1261 237.106L203.555 236.99C203.673 236.991 203.786 237.038 203.87 237.122C203.953 237.206 204 237.319 204 237.437C204 237.556 203.953 237.669 203.87 237.753C203.786 237.837 203.673 237.884 203.555 237.885Z" fill="#CACACA"/>
<path d="M96.0295 71.148L83.0028 60.1444C82.5575 59.7674 82.2799 59.2292 82.2309 58.6478C82.1819 58.0663 82.3655 57.4892 82.7414 57.043L85.139 54.2032C85.5158 53.7578 86.054 53.4802 86.6353 53.4311C87.2166 53.3821 87.7935 53.5657 88.2396 53.9417L101.266 64.9454C101.712 65.3223 101.989 65.8606 102.038 66.442C102.087 67.0234 101.904 67.6006 101.528 68.0468L99.1301 70.8866C98.7533 71.332 98.2152 71.6096 97.6339 71.6586C97.0526 71.7077 96.4756 71.524 96.0295 71.148Z" fill="#3F3D56"/>
<path d="M83.6865 57.2717C83.4839 57.5122 83.385 57.8232 83.4114 58.1365C83.4378 58.4498 83.5874 58.7399 83.8274 58.943L96.854 69.9467C97.0944 70.1493 97.4054 70.2482 97.7186 70.2218C98.0319 70.1954 98.3218 70.0458 98.5249 69.8058L100.923 66.966C101.125 66.7255 101.224 66.4145 101.198 66.1012C101.171 65.7879 101.022 65.4978 100.782 65.2947L87.755 54.291C87.5146 54.0884 87.2037 53.9895 86.8904 54.0159C86.5772 54.0423 86.2872 54.1919 86.0841 54.4319L83.6865 57.2717Z" fill="white"/>
<path d="M91.334 61.5494C91.2888 61.6127 91.2295 61.6646 91.1607 61.7009C91.092 61.7373 91.0157 61.7572 90.938 61.7589L88.8912 61.8059C88.8255 61.8074 88.7601 61.796 88.6988 61.7722C88.6374 61.7484 88.5814 61.7128 88.5338 61.6674C88.4863 61.6219 88.4481 61.5676 88.4216 61.5074C88.395 61.4472 88.3805 61.3824 88.379 61.3166C88.3775 61.2508 88.389 61.1854 88.4128 61.1241C88.4365 61.0627 88.4721 61.0067 88.5176 60.9591C88.563 60.9115 88.6174 60.8734 88.6775 60.8468C88.7377 60.8202 88.8025 60.8058 88.8683 60.8043L90.2073 60.7735L88.8886 57.2931C88.8419 57.1689 88.8463 57.0313 88.901 56.9104C88.9556 56.7895 89.0559 56.6952 89.1799 56.6482C89.3039 56.6012 89.4415 56.6053 89.5625 56.6597C89.6835 56.714 89.778 56.8141 89.8253 56.938L91.3949 61.0806C91.4233 61.1555 91.4333 61.2361 91.4241 61.3157C91.4149 61.3953 91.3867 61.4715 91.342 61.538L91.334 61.5494Z" fill="#6C63FF"/>
<path d="M91.5963 62.424C92.0899 62.4965 92.5617 62.6764 92.9784 62.9511C93.395 63.2257 93.7464 63.5884 94.0077 64.0135C94.2691 64.4387 94.4341 64.916 94.491 65.4118C94.548 65.9076 94.4956 66.4099 94.3375 66.8833L103.946 74.2868L97.9864 76.3382L89.7755 68.9932C88.9981 68.6749 88.3644 68.0823 87.9945 67.3279C87.6247 66.5734 87.5443 65.7095 87.7688 64.8997C87.9932 64.09 88.5068 63.3907 89.2122 62.9344C89.9177 62.4781 90.7659 62.2965 91.5963 62.424Z" fill="#FFB6B6"/>
<path d="M141.621 66.0845L117.02 81.2141C117.02 81.2141 107.101 77.5431 109.039 75.8437C110.978 74.1443 104.807 72.9954 104.807 72.9954L97.9896 68.4079L94.0337 73.0064C94.0337 73.0064 94.7545 80.4759 95.9809 79.1826C97.2074 77.8892 99.0406 81.4223 99.0406 81.4223C99.0406 81.4223 99.5823 85.3674 103.074 84.3746C106.565 83.3818 115.933 93.7881 115.933 93.7881L146.21 82.4932L141.621 66.0845Z" fill="#3F3D56"/>
<path d="M97.2137 51.0662C96.9285 51.0662 96.6472 50.9998 96.3922 50.8722C96.1371 50.7446 95.9152 50.5593 95.7442 50.331L91.2385 44.3219C91.0937 44.1288 90.9884 43.9092 90.9286 43.6754C90.8687 43.4416 90.8554 43.1984 90.8896 42.9595C90.9237 42.7206 91.0045 42.4908 91.1274 42.2832C91.2504 42.0755 91.413 41.8941 91.606 41.7494C91.9958 41.457 92.4857 41.3314 92.968 41.4004C93.2068 41.4345 93.4366 41.5153 93.6442 41.6383C93.8518 41.7612 94.0331 41.9239 94.1779 42.1169L97.1257 46.048L104.697 34.6889C104.967 34.2834 105.387 34.0019 105.865 33.9063C106.343 33.8107 106.839 33.9089 107.244 34.1792C107.65 34.4496 107.931 34.8699 108.027 35.3478C108.122 35.8257 108.024 36.322 107.754 36.7275L98.7425 50.2479C98.5795 50.4924 98.3602 50.6943 98.1031 50.8366C97.846 50.9789 97.5585 51.0574 97.2648 51.0656C97.2478 51.0659 97.2308 51.0662 97.2137 51.0662Z" fill="white"/>
</g>
<defs>
<clipPath id="clip0_43_223">
<rect width="204" height="238" fill="white"/>
</clipPath>
</defs>
</svg>
